<?xml version="1.0" standalone="no"?>
<!DOCTYPE svg PUBLIC "-//W3C//DTD SVG 1.1//EN" "http://www.w3.org/Graphics/SVG/1.1/DTD/svg11.dtd" >
<svg xmlns="http://www.w3.org/2000/svg" xmlns:xlink="http://www.w3.org/1999/xlink" version="1.1">
<metadata></metadata>
<defs>
<font id="uni_neuelight_italic" horiz-adv-x="1126" >
<font-face units-per-em="2048" ascent="1536" descent="-512" />
<missing-glyph horiz-adv-x="475" />
<glyph horiz-adv-x="0" />
<glyph horiz-adv-x="682" />
<glyph unicode=" "  horiz-adv-x="475" />
<glyph unicode="&#x09;" horiz-adv-x="475" />
<glyph unicode="&#xa0;" horiz-adv-x="475" />
<glyph unicode="!" horiz-adv-x="423" d="M74 53q10 53 61 53q25 0 38.5 -17.5t8.5 -43.5q-3 -24 -19 -38.5t-40 -14.5q-26 0 -39 17t-10 44zM143 317l131 750l70 385q2 12 14 12h39q7 0 10.5 -2.5t2.5 -9.5l-70 -387l-133 -750q-4 -12 -17 -12h-36q-14 0 -11 14z" />
<glyph unicode="&#x22;" horiz-adv-x="520" d="M221 1094l82 360q3 10 12 10h50q6 0 9.5 -4t0.5 -10l-99 -360q-4 -11 -12 -11h-31q-15 0 -12 15zM416 1094l80 360q5 10 14 10h49q5 0 8 -4t2 -10l-100 -360q-4 -11 -12 -11h-29q-7 0 -11 4t-1 11z" />
<glyph unicode="#" horiz-adv-x="1351" d="M61 475l17 33q3 10 14 10h283l188 436h-276q-6 0 -9.5 5.5t-1.5 11.5l17 33q3 10 14 10h283l196 440q3 10 15 10h35q14 0 10 -14l-195 -436h373l197 440q3 10 14 10h35q15 0 8 -14l-193 -436h269q6 0 9.5 -5.5t0.5 -11.5l-14 -32q-6 -11 -15 -11h-274l-193 -436h273 q15 0 8 -14l-14 -35q-5 -10 -15 -10h-276l-201 -449q-3 -10 -14 -10h-37q-12 0 -8 14l198 445h-372l-201 -449q-3 -10 -14 -10h-37q-12 0 -8 14l198 445h-276q-6 0 -9.5 5t-1.5 11zM436 518h371l190 436h-370z" />
<glyph unicode="$" horiz-adv-x="1144" d="M49 176q-7 10 0 21l25 26q8 13 18 0q89 -93 186 -136.5t216 -43.5q182 0 306 86t150 240q11 61 -3.5 110.5t-44 83.5t-83.5 64.5t-105.5 49.5t-127.5 42q-49 14 -90 30.5t-83 38.5t-73.5 47.5t-59 59t-41 71.5t-20 85.5t5.5 101.5q28 158 154.5 242.5t308.5 89.5l25 153 q0 4 4.5 8.5t9.5 4.5h35q16 0 10 -15l-27 -151q116 -4 207.5 -45.5t182.5 -122.5q10 -8 2 -19l-29 -30q-6 -9 -18 0q-166 153 -385 153q-105 0 -189 -27t-146 -92t-79 -163q-11 -64 1.5 -116t40 -88t75 -66t94.5 -49t112 -38q80 -24 141 -49t118.5 -62t91.5 -80t49.5 -102.5 t3.5 -130.5q-32 -181 -175.5 -279.5t-361.5 -98.5l-28 -166q0 -6 -5 -9.5t-10 -3.5h-35q-5 0 -9 4t-3 11l31 168q-197 16 -373 192z" />
<glyph unicode="%" horiz-adv-x="1490" d="M109 16l1253 1438q5 8 16 8h33q8 0 10 -4t-4 -12l-1251 -1438q-3 -8 -14 -8h-35q-18 0 -8 16zM188 954l50 281q19 106 95.5 172t178.5 66q104 0 159 -69t36 -175l-50 -281q-17 -98 -95 -162.5t-179 -64.5q-102 0 -157 67t-38 166zM240 946q-14 -76 28 -126t121 -50 q82 0 142.5 52t74.5 130l49 283q15 85 -25.5 136.5t-123.5 51.5t-142.5 -53.5t-74.5 -138.5zM860 219l51 281q18 106 95.5 171.5t177.5 65.5q104 0 159 -68.5t35 -174.5l-49 -281q-17 -100 -93.5 -164.5t-176.5 -64.5q-104 0 -160 67.5t-39 167.5zM913 211 q-14 -77 28.5 -127.5t123.5 -50.5q78 0 138.5 53t74.5 131l51 283q15 85 -25.5 136.5t-123.5 51.5t-143 -54.5t-74 -139.5z" />
<glyph unicode="&#x26;" horiz-adv-x="1120" d="M70 365q12 68 44 129t83.5 113.5t101.5 92t121 86.5q-126 250 -101 396q23 125 119.5 214t231.5 89q51 0 93 -14.5t68.5 -39.5t46.5 -57t27.5 -67.5t10.5 -71t-5 -66.5q-9 -48 -36.5 -94t-61.5 -82.5t-86.5 -77t-97.5 -71t-108 -70.5q-9 -5 -13 -8q104 -187 297 -465 q63 92 135 238q4 12 16 4l31 -15q13 -9 6 -16q-74 -157 -155 -264q102 -153 157 -232q6 -16 -10 -16h-43q-11 0 -16 8q-50 74 -131 187q-177 -215 -408 -215q-112 0 -192 54t-112 141.5t-13 189.5zM133 358q-23 -131 47.5 -223t214.5 -92q207 0 365 207q-183 268 -307 481 q-64 -42 -111.5 -79t-93.5 -84t-75.5 -99.5t-39.5 -110.5zM383 1171q-22 -133 94 -350q170 109 226 153q126 101 145 200q3 28 4.5 61t-11.5 66.5t-32.5 60.5t-58 44t-88.5 17q-110 0 -186.5 -74.5t-92.5 -177.5z" />
<glyph unicode="'" horiz-adv-x="325" d="M221 1094l82 360q3 10 12 10h50q13 0 10 -14l-99 -360q-4 -11 -14 -11h-29q-15 0 -12 15z" />
<glyph unicode="(" horiz-adv-x="495" d="M145 733q86 481 439 955q5 8 16 8h43q7 0 10 -5.5t-2 -11.5q-167 -223 -283.5 -470.5t-158.5 -483.5q-40 -244 -12.5 -489.5t116.5 -460.5q4 -15 -10 -15h-41q-10 0 -16 11q-183 486 -101 962z" />
<glyph unicode=")" horiz-adv-x="495" d="M-88 -232.5q-3 5.5 2 11.5q167 223 283.5 470.5t158.5 483.5q40 244 12.5 489.5t-116.5 460.5q-4 15 10 15h41q11 0 16 -10q183 -487 101 -963q-86 -481 -438 -954q-6 -9 -17 -9h-43q-7 0 -10 5.5z" />
<glyph unicode="*" horiz-adv-x="890" d="M217 1194l14 31q3 10 15 6l270 -96l59 317q0 12 15 12h33q15 0 12 -12l-55 -317l303 96q14 7 14 -8l6 -33q0 -11 -8 -14l-311 -101l135 -256q2 -10 -6 -18l-29 -19q-3 -3 -6.5 -3.5t-6 1.5t-3.5 6l-136 258l-221 -264q-8 -8 -18 -2l-27 21q-7 11 -2 18l221 262l-264 99 q-10 3 -4 16z" />
<glyph unicode="+" horiz-adv-x="1122" d="M172 664l6 36q0 13 15 13h368l70 395q0 12 14 12h39q16 0 10 -14l-69 -393h370q11 0 11 -13l-7 -36q0 -13 -14 -13h-371l-69 -395q0 -12 -15 -12h-38q-14 0 -11 12l70 395h-369q-13 0 -10 13z" />
<glyph unicode="," horiz-adv-x="350" d="M-61 -205l147 344q4 8 14 8h47q8 0 11 -4t0 -10l-164 -344q-5 -10 -14 -10h-31q-6 0 -9 5t-1 11z" />
<glyph unicode="-" horiz-adv-x="776" d="M147 610l7 37q0 6 4.5 10.5t9.5 4.5h485q11 0 11 -15l-7 -39q0 -12 -14 -12h-483q-13 0 -13 14z" />
<glyph unicode="." horiz-adv-x="325" d="M33 55q3 25 19.5 39.5t39.5 14.5q26 0 40 -18t9 -44q-9 -51 -61 -51q-25 0 -38 16.5t-9 42.5z" />
<glyph unicode="/" horiz-adv-x="806" d="M-14 16l850 1440q3 8 14 8h39q8 0 10 -4t-2 -10l-848 -1442q-3 -8 -14 -8h-41q-14 0 -8 16z" />
<glyph unicode="0" horiz-adv-x="1189" d="M135 446l101 574q39 220 181 342.5t345 122.5q205 0 305.5 -125.5t62.5 -345.5l-102 -576q-38 -215 -178.5 -336.5t-343.5 -121.5q-205 0 -307 125t-64 341zM199 438q-32 -187 51.5 -290t257.5 -103q178 0 300.5 105.5t154.5 291.5l104 576q33 193 -49.5 297t-259.5 104 q-179 0 -301.5 -106t-155.5 -299z" />
<glyph unicode="1" horiz-adv-x="630" d="M168 1223q-4 7 6 14l367 223q12 4 16 4h33q13 0 10 -12l-254 -1440q0 -12 -14 -12h-39q-13 0 -10 12l239 1366l-321 -194q-14 -7 -19 6z" />
<glyph unicode="2" horiz-adv-x="1054" d="M-4 12l4 29q1 5 4.5 9t3.5 5l377 355q91 85 137.5 129t116.5 112.5t106 108t82 95t69 95.5t43 86t28 90q5 43 3.5 85t-21.5 80t-51 67t-84.5 46t-121.5 17q-212 0 -409 -207q-12 -8 -19 5l-20 30q-7 10 2 19q210 217 452 217q95 0 166.5 -30.5t110.5 -82t53.5 -117 t1.5 -137.5q-8 -48 -28 -96.5t-43.5 -91t-69.5 -99.5t-82.5 -98.5t-107 -112t-120 -117.5t-143.5 -136l-330 -304h768q11 0 11 -12l-6 -39q0 -12 -15 -12h-858q-10 0 -10 12z" />
<glyph unicode="3" horiz-adv-x="1077" d="M33 217q-6 9 4 16l26 25q9 9 19 -4q43 -70 85 -112.5t111 -70.5t162 -28q173 0 291.5 106.5t149.5 284.5q31 174 -55.5 274.5t-274.5 100.5q-47 0 -109 -8q-12 0 -14 10l-8 20q-4 11 6 17l575 553h-710q-10 0 -10 14l6 37q0 12 14 12h797q6 0 9 -3.5t1 -8.5l-4 -27 q-1 -7 -6 -16l-572 -547h27q224 1 326 -117t67 -319q-35 -203 -174.5 -324.5t-339.5 -121.5q-147 0 -237.5 59t-161.5 178z" />
<glyph unicode="4" horiz-adv-x="1046" d="M41 414l6 26q0 7 4 15l742 1001q5 8 16 8h47q7 0 10 -5t-2 -9l-729 -985h610l64 356q3 13 16 13h37q15 0 12 -13l-63 -356h154q13 0 10 -14l-6 -39q-4 -13 -17 -13h-151l-70 -387q0 -12 -14 -12h-39q-13 0 -10 12l67 387h-684q-10 0 -10 15z" />
<glyph unicode="5" horiz-adv-x="1097" d="M80 213q-7 12 2 18l29 25q12 9 18 -4q58 -105 134.5 -157t197.5 -52q174 0 296.5 118.5t157.5 319.5q37 203 -41.5 300.5t-242.5 97.5q-111 0 -201.5 -39.5t-179.5 -114.5q-10 -7 -19 -4l-36 14q-5 2 -8.5 7.5t-0.5 9.5l150 702q7 10 16 10h723q15 0 12 -12l-8 -41 q-3 -10 -14 -10h-674l-131 -598q178 141 379 141q190 0 286 -120t56 -349q-38 -225 -180 -360t-344 -135q-136 0 -226.5 59.5t-150.5 173.5z" />
<glyph unicode="6" horiz-adv-x="1130" d="M135 446l103 590q37 206 183 327.5t327 121.5q223 0 356 -154q8 -10 0 -18l-27 -29q-7 -7 -18 0q-111 137 -316 137q-159 0 -284.5 -107t-155.5 -282l-61 -344q47 80 120.5 132.5t145 72.5t145.5 20q202 0 298 -123t57 -346q-38 -216 -177.5 -340t-338.5 -124 q-196 0 -295 127.5t-62 338.5zM199 440q-31 -187 49.5 -292t249.5 -105q172 0 291 110t153 300q35 193 -42.5 294t-254.5 101q-69 0 -138 -22.5t-132 -66t-109 -117.5t-61 -167z" />
<glyph unicode="7" horiz-adv-x="970" d="M117 16l874 1385h-786q-10 0 -10 12l6 39q0 12 14 12h860q10 0 10 -12l-4 -25q0 -8 -6 -14l-887 -1405q-3 -8 -14 -8h-49q-18 0 -8 16z" />
<glyph unicode="8" horiz-adv-x="1163" d="M102 414q22 130 117.5 227.5t239.5 130.5q-118 40 -166.5 133t-26.5 215q28 161 159.5 263t324.5 102q192 0 289 -107.5t69 -269.5q-21 -122 -101 -212t-216 -128q129 -33 191 -135.5t38 -231.5q-33 -188 -176 -304.5t-355 -116.5q-142 0 -238 57t-133.5 154.5 t-15.5 222.5zM166 406q-27 -159 57 -261t271 -102q189 0 311.5 104.5t150.5 264.5q25 144 -65 234.5t-270 90.5q-177 0 -302.5 -93.5t-152.5 -237.5zM330 1112q-23 -138 51 -224.5t246 -86.5q176 0 284 88t131 225q24 145 -56.5 226t-242.5 81t-274.5 -82.5t-138.5 -226.5z " />
<glyph unicode="9" horiz-adv-x="1132" d="M98 209q-5 11 2 18l29 27q12 4 18 -2q58 -100 134 -154.5t186 -54.5q159 0 282.5 107t153.5 282l62 344q-71 -117 -182 -171t-228 -54q-200 0 -296.5 124.5t-57.5 344.5q38 214 178 339.5t336 125.5q197 0 295 -127.5t61 -341.5l-102 -588q-36 -206 -179 -327t-329 -121 q-229 0 -363 229zM266 1014q-33 -195 43.5 -296.5t251.5 -101.5q53 0 108.5 14t110 44t99 72.5t77.5 104.5t45 136l7 35q30 190 -49 294.5t-248 104.5q-172 0 -291.5 -108.5t-153.5 -298.5z" />
<glyph unicode=":" horiz-adv-x="399" d="M61 55q5 25 21 39.5t39 14.5q26 0 40 -18t9 -44q-9 -51 -61 -51q-25 0 -38.5 16.5t-9.5 42.5zM225 981q10 53 62 53q25 0 38.5 -17.5t8.5 -43.5q-3 -24 -19.5 -37.5t-40.5 -13.5q-26 0 -39.5 16.5t-9.5 42.5z" />
<glyph unicode=";" horiz-adv-x="460" d="M-12 -205l147 346q4 11 15 11h51q6 0 9.5 -5t0.5 -10l-166 -348q-5 -10 -16 -10h-31q-6 0 -9.5 5t-0.5 11zM264 985q9 51 62 51q26 0 39 -16t10 -43q-10 -53 -62 -53q-26 0 -39 17t-10 44z" />
<glyph unicode="&#x3c;" horiz-adv-x="1122" d="M143 657l7 45q0 9 12 15l876 405q6 4 11 1t4 -11l-9 -47q0 -11 -10 -14l-813 -373l678 -373q8 -4 8 -16l-8 -45q-4 -14 -16 -8l-731 405q-9 6 -9 16z" />
<glyph unicode="=" horiz-adv-x="1122" d="M137 483l6 37q3 12 17 12h801q15 0 12 -14l-8 -37q-3 -12 -15 -12h-800q-16 0 -13 14zM201 846l8 39q3 10 14 10h801q15 0 12 -12l-6 -39q-2 -10 -16 -10h-801q-15 0 -12 12z" />
<glyph unicode="&#x3e;" horiz-adv-x="1122" d="M123 248l8 47q0 11 10 14l813 373l-678 373q-8 5 -8 14l8 47q7 14 17 6l731 -405q8 -4 8 -15l-6 -45q0 -8 -12 -16l-877 -405q-6 -3 -10.5 1t-3.5 11z" />
<glyph unicode="?" horiz-adv-x="903" d="M199 1300q-7 10 2 19q177 166 397 166q120 0 200.5 -54t109.5 -141t10 -192q-14 -78 -46 -141t-72 -105t-86 -78.5t-91 -69.5t-83.5 -68t-67.5 -83.5t-40 -108.5l-22 -129q0 -4 -5.5 -8t-11.5 -4h-37q-15 0 -12 14l27 140q13 66 43.5 120t70 91t84.5 71t90.5 68.5 t84.5 73.5t69.5 96t42.5 127q5 46 4 91.5t-19.5 87t-48.5 73t-81.5 50.5t-118.5 19q-192 0 -361 -155q-9 -9 -18 4zM281 55q10 54 61 54q25 0 38.5 -18t8.5 -44q-9 -51 -61 -51q-25 0 -38 16.5t-9 42.5z" />
<glyph unicode="@" horiz-adv-x="1837" d="M133 541l35 198q67 379 287 562.5t596 183.5q146 0 264 -25.5t205.5 -75.5t150.5 -109t119 -138q2 -6 2 -19l-109 -626q-28 -163 -101.5 -245.5t-186.5 -82.5q-84 0 -140 48t-69 140q-51 -91 -141 -140.5t-189 -49.5q-148 0 -232.5 111t-56.5 266l29 172 q30 165 139.5 260.5t276.5 95.5q76 0 165 -16.5t146 -40.5q6 -4 6 -17l-90 -522q-21 -115 26 -183.5t140 -68.5q173 3 219 270l111 625q-51 72 -109.5 125.5t-140 98.5t-192 68.5t-246.5 23.5q-360 0 -559 -172t-261 -521l-37 -198q-57 -329 76 -518t445 -189 q120 0 258.5 37t234.5 90q5 4 9 1t6 -9l8 -31q4 -11 -6 -14q-100 -55 -246 -92t-273 -37q-223 0 -366 96t-193.5 267.5t-9.5 400.5zM625 530q-24 -140 46.5 -225.5t192.5 -85.5q107 0 199 68.5t113 169.5l88 510q-30 14 -110 28.5t-146 14.5q-145 0 -235.5 -79t-117.5 -222z " />
<glyph unicode="A" horiz-adv-x="1138" d="M-68 4q-3 4 0 10l756 1440q5 10 17 10h53q14 0 14 -12l256 -1440q1 -6 -3 -9t-9 -3h-43q-14 0 -17 12l-75 449h-641l-236 -451q-2 -10 -14 -10h-47q-8 0 -11 4zM272 522h598l-147 860h-2z" />
<glyph unicode="B" horiz-adv-x="1218" d="M104 12l254 1440q0 12 17 12h422q91 0 160.5 -20t109.5 -55.5t65 -82.5q24 -46 26 -100v-18q0 -46 -7 -94q-44 -250 -291 -316q134 -29 192 -125q40 -66 41 -161q0 -42 -8 -89q-34 -201 -177 -302t-388 -101h-403q-7 0 -10.5 3t-2.5 9zM182 63h346q215 0 337.5 90 t152.5 259q7 42 7 80q0 103 -56 166q-77 87 -262 87h-404zM313 807h402q146 0 244.5 79.5t123.5 217.5q6 42 6 82q-1 3 -1 7q0 43 -19.5 81t-53 66t-92.5 44.5t-139 16.5h-366z" />
<glyph unicode="C" d="M139 471l97 543q39 218 183 344.5t365 126.5q111 0 212.5 -38.5t177.5 -113.5q10 -6 0 -16l-29 -33q-8 -11 -17 -2q-142 139 -354 139q-193 0 -315.5 -112.5t-155.5 -302.5l-94 -539q-10 -56 -11 -105q0 -120 60 -202q84 -116 283 -117q227 0 428 160q3 4 8.5 3.5 t7.5 -5.5l19 -35q5 -9 -5 -19q-208 -167 -473 -167q-220 0 -323 136q-75 99 -75 241q0 54 11 114z" />
<glyph unicode="D" horiz-adv-x="1292" d="M104 12l252 1440q0 12 15 12h454q223 0 331 -139q77 -99 77 -248q0 -59 -12 -127l-78 -454q-41 -236 -191 -366t-379 -130h-458q-14 0 -11 12zM182 63h398q196 0 327.5 115t167.5 324l78 454q11 63 11 118q0 130 -62 212q-88 116 -285 115h-401z" />
<glyph unicode="E" horiz-adv-x="1095" d="M104 12l252 1440q0 12 17 12h755q11 0 11 -12l-6 -39q0 -5 -4.5 -8.5t-10.5 -3.5h-702l-109 -621h668q13 0 10 -14l-4 -37q0 -12 -16 -12h-668l-115 -654h721q10 0 10 -12l-6 -39q0 -12 -14 -12h-776q-7 0 -10.5 3t-2.5 9z" />
<glyph unicode="F" horiz-adv-x="1054" d="M104 12l254 1442q0 5 4.5 8.5t10.5 3.5h764q10 0 10 -12l-8 -39q-4 -12 -15 -12h-706l-113 -647h643q16 0 13 -15l-7 -39q-3 -10 -14 -10h-647l-121 -680q0 -12 -14 -12h-43q-14 0 -11 12z" />
<glyph unicode="G" horiz-adv-x="1245" d="M137 473l94 528q39 220 185 352t364 132q126 0 238 -40t192 -118q6 -6 0 -16l-28 -31q-6 -10 -19 0q-73 67 -174.5 104t-214.5 37q-192 0 -316 -116.5t-159 -309.5l-94 -528q-9 -52 -9 -99q0 -122 61 -208q84 -117 278 -117q235 0 454 166l88 485h-418q-13 0 -10 13l8 36 q3 13 15 13h469q17 0 12 -13l-98 -555q0 -4 -8 -16q-119 -94 -253 -143t-266 -49q-146 0 -244 65.5t-135 176.5q-22 66 -22 143q0 52 10 108z" />
<glyph unicode="H" horiz-adv-x="1320" d="M104 12l254 1440q0 12 15 12h43q13 0 10 -12l-119 -674h797l119 674q0 12 14 12h43q13 0 10 -12l-254 -1440q0 -12 -14 -12h-41q-15 0 -12 12l125 703h-797l-123 -703q-3 -12 -16 -12h-41q-7 0 -10.5 3t-2.5 9z" />
<glyph unicode="I" horiz-adv-x="458" d="M104 12l254 1440q3 12 15 12h43q13 0 10 -12l-252 -1440q-3 -12 -16 -12h-41q-7 0 -10.5 3t-2.5 9z" />
<glyph unicode="J" horiz-adv-x="962" d="M-25 147q-9 9 0 19l25 27q10 13 16 0q67 -75 140.5 -113.5t167.5 -38.5q153 0 241.5 90.5t122.5 280.5l186 1040q0 12 15 12h41q15 0 12 -12l-186 -1046q-73 -426 -439 -426q-204 0 -342 167z" />
<glyph unicode="K" horiz-adv-x="1177" d="M106 12l250 1440q3 12 17 12h41q15 0 12 -12l-141 -799l913 805q9 6 19 6h61q8 0 10 -5t-4 -9l-733 -647l514 -787q5 -6 2 -11t-10 -5h-51q-12 0 -15 8l-489 750l-234 -201l-94 -545q0 -12 -14 -12h-43q-14 0 -11 12z" />
<glyph unicode="L" horiz-adv-x="960" d="M104 12l254 1440q0 12 15 12h43q13 0 10 -12l-244 -1389h666q10 0 10 -14l-4 -37q-3 -12 -16 -12h-721q-7 0 -10.5 3t-2.5 9z" />
<glyph unicode="M" horiz-adv-x="1609" d="M104 12l254 1440q0 12 15 12h55q7 0 14 -10l344 -1008h2l707 1010q5 8 16 8h58q13 0 10 -12l-254 -1440q0 -12 -14 -12h-43q-14 0 -11 12l236 1334q-153 -223 -686 -979q-5 -9 -14 -9h-33q-6 0 -12 11l-340 979l-234 -1336q-3 -12 -16 -12h-41q-7 0 -10.5 3t-2.5 9z" />
<glyph unicode="N" horiz-adv-x="1374" d="M104 12l252 1440q0 12 15 12h51q11 0 14 -10l602 -1350l236 1348q3 12 16 12h41q13 0 10 -12l-249 -1440q-3 -12 -17 -12h-51q-11 0 -14 10l-602 1342h-2l-232 -1340q0 -12 -16 -12h-43q-14 0 -11 12z" />
<glyph unicode="O" horiz-adv-x="1318" d="M135 473l90 522q39 219 202 354.5t398 135.5q233 0 350 -141q88 -106 88 -255q0 -50 -10 -104l-92 -526q-36 -209 -199.5 -344t-396.5 -135q-153 0 -260 65t-150 177q-28 73 -28 157q0 46 8 94zM203 467q-7 -42 -7 -81q0 -130 78 -223q100 -120 297 -120q202 0 347 119 t176 301l92 528q8 47 8 90q0 130 -74 220q-100 120 -303 120q-204 0 -346.5 -120t-175.5 -312z" />
<glyph unicode="P" horiz-adv-x="1202" d="M104 12l254 1440q0 12 17 12h418q230 0 338 -126q79 -92 79 -232q0 -51 -10 -107q-36 -207 -183 -317.5t-401 -110.5h-344l-98 -559q0 -12 -14 -12h-45q-14 0 -11 12zM283 635h340q224 0 351.5 95t158.5 276q8 51 8 95q1 124 -65 199q-90 101 -296 101h-360z" />
<glyph unicode="Q" horiz-adv-x="1323" d="M135 473l90 522q39 218 203 354t397 136q231 0 349 -142q90 -108 90 -259q0 -47 -9 -99l-92 -526q-36 -206 -194 -336l108 -146q8 -8 -4 -16l-29 -27q-11 -7 -18 3l-108 149q-157 -106 -353 -106q-152 0 -259 66t-150 178q-29 73 -29 157q0 45 8 92zM203 467 q-7 -42 -7 -80q0 -130 78 -223q100 -121 297 -121q169 0 306 96l-185 248q-10 9 0 19l31 26q9 9 16 -2l189 -252q136 117 166 285l92 528q8 47 8 90q0 130 -74 220q-100 120 -301 120q-205 0 -348 -120t-176 -312z" />
<glyph unicode="R" horiz-adv-x="1202" d="M104 12l252 1440q0 12 15 12h411q224 0 332 -119q83 -91 82 -230q0 -44 -8 -93q-32 -180 -164.5 -286t-337.5 -113l346 -609q4 -6 1 -10t-11 -4h-47q-11 0 -14 8l-347 613h-335l-107 -609q0 -12 -14 -12h-43q-14 0 -11 12zM291 684h356q198 0 320.5 90t150.5 254 q8 47 8 88q0 118 -66 189q-89 96 -286 96h-358z" />
<glyph unicode="S" horiz-adv-x="1138" d="M45 172q-9 9 0 21l25 26q11 7 20 0q91 -91 188.5 -133.5t217.5 -42.5q182 0 305.5 86t150.5 240q5 26 5 50q-1 31 -9 59q-14 49 -43.5 83t-83.5 64t-106 50t-127 42q-43 14 -79.5 28t-75 32.5t-68 39.5t-58 47.5t-45.5 56.5q-16 30 -30 67q-13 36 -14 76q0 41 7 95 q28 160 162.5 243t327.5 83q131 0 228 -39.5t196 -126.5q12 -9 2 -19l-27 -28q-7 -10 -18 -2q-173 151 -389 151q-104 0 -189.5 -28t-147.5 -91.5t-79 -156.5q-3 -35 -5 -64t6.5 -55.5t16.5 -48.5t25.5 -42.5t33.5 -36t40.5 -31t46 -27t50 -23.5t53.5 -20.5t56 -18.5 q81 -25 141 -49t119 -60.5t93.5 -78.5t50.5 -102q8 -32 8 -68q0 -30 -6 -62q-33 -183 -175.5 -280.5t-357.5 -97.5q-141 0 -241.5 45.5t-200.5 146.5z" />
<glyph unicode="T" horiz-adv-x="1038" d="M178 1415l6 37q0 12 15 12h970q11 0 11 -12l-6 -39q0 -5 -4.5 -8.5t-10.5 -3.5h-454l-244 -1389q-3 -12 -17 -12h-41q-13 0 -10 12l244 1389h-449q-10 0 -10 14z" />
<glyph unicode="U" horiz-adv-x="1323" d="M172 465l174 987q0 12 14 12h46q13 0 10 -12l-176 -995q-8 -45 -8 -87q0 -123 69 -210q92 -117 274 -117q185 0 319.5 118t164.5 296l174 995q3 12 16 12h43q14 0 11 -12l-177 -1001q-34 -203 -189 -337t-368 -134q-139 0 -238.5 65t-140.5 175q-26 71 -26 152q0 45 8 93 z" />
<glyph unicode="V" horiz-adv-x="1138" d="M182 1452q-1 6 2.5 9t10.5 3h41q13 0 16 -12l233 -1368h7q31 58 77.5 146t106.5 203t209.5 401.5t324.5 619.5q2 10 17 10h47q6 0 9 -4t-1 -10l-758 -1440q-5 -10 -16 -10h-59q-15 0 -15 12z" />
<glyph unicode="W" horiz-adv-x="1810" d="M193 1452q0 12 10 12h45q12 0 12 -12l129 -1366h2q16 34 71.5 154.5t197.5 423t364 770.5q3 10 14 10h56q14 0 14 -12l160 -1346h2q151 362 602 1368q3 10 14 10h49q13 0 9 -14l-650 -1440q-3 -10 -14 -10h-53q-15 0 -15 12l-161 1325h-2q-64 -141 -629 -1327 q-7 -10 -17 -10h-53q-12 0 -14 12z" />
<glyph unicode="X" horiz-adv-x="1130" d="M-39 16l602 725l-340 709q-3 6 0.5 10t9.5 4h48q13 0 16 -10l313 -659l547 661q3 8 14 8h56q8 0 10 -4t-4 -10l-588 -713l348 -723q3 -6 -0.5 -10t-9.5 -4h-49q-11 0 -14 10l-320 674l-559 -676q-5 -8 -16 -8h-56q-18 0 -8 16z" />
<glyph unicode="Y" horiz-adv-x="1040" d="M178 1450q-4 14 10 14h45q12 0 15 -10l291 -807h2l569 809q5 8 14 8h54q7 0 9 -5t-1 -9l-619 -870l-102 -568q0 -12 -14 -12h-43q-14 0 -11 12l99 568z" />
<glyph unicode="Z" horiz-adv-x="1077" d="M-27 12l7 29q0 3 3 8.5t3 7.5l1075 1344h-801q-15 0 -12 14l6 39q3 10 16 10h881q15 0 12 -12l-4 -27l-8 -16l-1073 -1346h840q15 0 12 -12l-8 -41q-3 -10 -15 -10h-921q-5 0 -9.5 3.5t-3.5 8.5z" />
<glyph unicode="[" horiz-adv-x="489" d="M49 -227l336 1910q0 13 16 13h222q15 0 12 -13l-6 -41q-3 -10 -15 -10h-172l-319 -1808h170q12 0 12 -14l-6 -37q0 -13 -14 -13h-224q-15 0 -12 13z" />
<glyph unicode="\" horiz-adv-x="794" d="M215 1450q-3 14 12 14h35q7 0 14 -10l375 -1440q3 -14 -12 -14h-35q-11 0 -14 10z" />
<glyph unicode="]" horiz-adv-x="487" d="M-74 -225l6 41q3 10 15 10h172l319 1808h-170q-12 0 -12 15l6 37q0 12 14 12h224q15 0 12 -12l-336 -1911q0 -13 -16 -13h-221q-16 0 -13 13z" />
<glyph unicode="^" horiz-adv-x="1122" d="M254.5 1189q-2.5 5 3.5 11l473 475q5 8 17 8h43q11 0 16 -8l305 -475q10 -16 -8 -16h-53q-12 0 -17 8l-272 430l-422 -430q-8 -8 -18 -8h-56q-9 0 -11.5 5z" />
<glyph unicode="_" horiz-adv-x="1130" d="M-25 -72l7 39q0 5 4 9t10 4h954q6 0 9.5 -4.5t1.5 -10.5l-5 -37q-3 -12 -16 -12h-954q-11 0 -11 12z" />
<glyph unicode="`" horiz-adv-x="256" d="M194.5 1520.5q2.5 5.5 8.5 5.5h43q9 0 16 -10l105 -273q3 -6 -1 -11t-10 -5h-26q-12 0 -17 10l-118 272q-3 6 -0.5 11.5z" />
<glyph unicode="a" horiz-adv-x="1005" d="M43 334q27 145 146.5 221t310.5 76q159 0 311 -39l20 125q8 44 8 82q0 215 -272 215q-177 0 -336 -92q-9 -9 -16 4l-12 30q-4 12 4 17q161 100 373 100q187 1 267 -99q58 -72 58 -179q0 -40 -8 -84l-113 -641q-2 -8 -10 -15q-186 -75 -381 -75q-117 0 -203 43 q-88 43 -128 125q-27 54 -26 117q0 33 7 69zM106 328q-6 -31 -6 -59q0 -91 62 -151q81 -79 235 -79q173 0 326 61l76 430q-169 41 -303 41q-165 0 -266 -62.5t-124 -180.5z" />
<glyph unicode="b" horiz-adv-x="1067" d="M72 74l245 1378q3 12 15 12h39q13 0 10 -12l-84 -475q156 96 334 96q192 -1 286 -117q68 -84 68 -212q0 -49 -10 -105l-45 -244q-40 -209 -168 -313q-126 -103 -322 -102h-8q-197 3 -352 79q-8 3 -8 15zM141 98q146 -56 301 -59q171 0 280 90.5t144 271.5l43 244 q10 53 10 99q-1 108 -55 175q-78 95 -248 95q-169 0 -331 -105z" />
<glyph unicode="c" horiz-adv-x="915" d="M88 360l68 369q27 154 144 249t292 95q176 0 311 -108q9 -9 2 -19l-22 -28q-9 -9 -17 -3q-121 99 -280 99q-148 0 -245.5 -81t-121.5 -210l-65 -369q-6 -36 -7 -68q1 -94 55 -160q72 -88 228 -87q71 0 162.5 32t159.5 85q10 7 16 -4l16 -29q6 -12 -4 -19 q-75 -58 -172 -91t-186 -33q-182 0 -272 108q-69 82 -69 197q0 36 7 75z" />
<glyph unicode="d" horiz-adv-x="1067" d="M92 399l47 265q33 199 159.5 304t319.5 105q162 0 314 -96l82 475q3 12 16 12h39q13 0 10 -12l-243 -1382q0 -8 -11 -15q-76 -35 -177 -55t-199 -20q-205 0 -297 109q-68 81 -68 212q0 46 8 98zM158 391q-10 -54 -9 -99q0 -106 52 -166q75 -86 254 -87q185 0 321 63 l146 811q-64 46 -146.5 73.5t-161.5 27.5q-166 0 -272.5 -90t-138.5 -267z" />
<glyph unicode="e" horiz-adv-x="1017" d="M86 354l64 348q30 171 157 271t301 100q183 -1 277 -103q68 -75 69 -187q0 -42 -10 -89l-35 -192q0 -10 -14 -10h-719l-26 -142q-7 -35 -8 -67q0 -34 9 -65q16 -60 56.5 -98.5t98.5 -59.5t128 -21q195 0 363 145q9 9 18 0l21 -28q6 -11 -5 -19q-179 -157 -403 -157 q-170 0 -272 103q-78 78 -78 195q0 36 8 76zM186 549h668l29 151q8 40 8 75q0 95 -57 155q-78 84 -230 84q-151 0 -257.5 -85t-133.5 -233z" />
<glyph unicode="f" horiz-adv-x="583" d="M63 12l203 1143q29 157 122.5 243.5t232.5 86.5q40 0 106 -8q13 -3 10 -15l-6 -32q-4 -11 -18 -11q-47 6 -95 6q-116 0 -189 -71.5t-97 -202.5l-17 -98h318q15 0 12 -15l-6 -32q0 -13 -14 -13h-322l-174 -981q-3 -12 -16 -12h-39q-14 0 -11 12z" />
<glyph unicode="g" horiz-adv-x="1044" d="M14 -242l23 27q6 11 18 2q60 -65 131 -100t170 -35q160 0 255.5 87t121.5 236l27 142q-154 -74 -311 -74q-202 0 -291 107q-64 76 -64 205q0 52 10 112l37 209q36 203 161 300t323 97q90 0 179.5 -27.5t158.5 -76.5q6 -4 6 -17l-172 -985q-31 -173 -143.5 -274 t-303.5 -101q-202 0 -336 150q-5 8 0 16zM170 461q-11 -59 -11 -108q0 -106 51 -165q74 -86 245 -86q160 0 313 80l131 748q-54 38 -132 61t-151 23q-168 0 -273.5 -85.5t-135.5 -258.5z" />
<glyph unicode="h" horiz-adv-x="1091" d="M66 12l251 1440q0 12 15 12h39q15 0 12 -12l-84 -473q168 94 334 94q195 1 285 -111q62 -77 62 -206q0 -59 -13 -129l-109 -615q0 -12 -14 -12h-41q-13 0 -10 12l108 623q13 66 13 120q0 106 -50 167q-74 92 -241 92q-163 0 -336 -105l-156 -897q0 -12 -16 -12h-39 q-13 0 -10 12z" />
<glyph unicode="i" horiz-adv-x="372" d="M63 12l185 1028q0 5 4 9t10 4h37q15 0 12 -15l-184 -1026q0 -12 -14 -12h-37q-6 0 -10 3t-3 9zM279 1339q3 23 18.5 36.5t38.5 13.5t36.5 -16.5t8.5 -39.5q-3 -23 -18.5 -36t-38.5 -13t-36 16t-9 39z" />
<glyph unicode="j" horiz-adv-x="389" d="M-262 -385l6 35q0 13 12 10q40 -6 72 -6q187 0 238 280l194 1106q4 13 16 13h39q14 0 11 -15l-197 -1108q-31 -175 -110 -256.5t-191 -81.5q-42 0 -80 9q-10 3 -10 14zM293 1339q10 50 57 50q25 0 38.5 -16.5t8.5 -39.5q-9 -49 -57 -49q-24 0 -37 15.5t-10 39.5z" />
<glyph unicode="k" horiz-adv-x="931" d="M66 12l253 1440q0 12 15 12h39q15 0 12 -12l-168 -952l684 547q6 6 14 6h58q9 0 10.5 -5.5t-4.5 -11.5l-541 -434l379 -588q7 -14 -8 -14h-49q-12 0 -15 8l-356 551l-188 -149l-70 -398q0 -12 -14 -12h-41q-13 0 -10 12z" />
<glyph unicode="l" horiz-adv-x="501" d="M113 324l196 1128q0 12 15 12h38q6 0 10 -3t3 -9l-197 -1133q-12 -67 -12 -117q0 -64 20 -99q34 -64 125 -64q47 0 80 8q8 0 12 -3.5t3 -10.5l-7 -35q0 -8 -14 -12q-41 -6 -84 -6q-117 0 -167 84q-32 53 -32 142q0 52 11 118z" />
<glyph unicode="m" horiz-adv-x="1624" d="M61 12l172 973q1 4 13 16q174 72 340 72q167 0 248 -90q161 87 323 90h7q197 0 287 -104q65 -75 65 -196q0 -49 -11 -105l-116 -656q-3 -12 -17 -12h-39q-13 0 -10 12l117 662q10 52 10 96q0 101 -52 162q-70 82 -227 82h-18q-150 -3 -289 -82q28 -55 28 -135 q0 -45 -9 -99l-123 -686q0 -12 -15 -12h-38q-7 0 -10.5 3t-2.5 9l123 693q8 48 8 89q0 220 -245 220q-136 0 -285 -58l-168 -944q-3 -12 -16 -12h-39q-14 0 -11 12z" />
<glyph unicode="n" horiz-adv-x="1091" d="M61 12l172 973q2 6 13 14q184 74 375 74q205 0 296 -108q64 -76 64 -201q0 -54 -12 -117l-113 -635q0 -12 -14 -12h-39q-15 0 -12 12l114 639q11 58 11 107q0 256 -300 256q-156 0 -321 -60l-168 -942q0 -12 -16 -12h-39q-14 0 -11 12z" />
<glyph unicode="o" horiz-adv-x="1042" d="M88 379l55 315q30 167 155 273t316 106q193 0 282 -112q66 -83 66 -196q0 -39 -8 -83l-55 -313q-32 -173 -157 -281t-316 -108q-127 0 -212 54t-116 144q-18 53 -18 114q0 42 8 87zM152 373q-7 -40 -7 -76q-1 -97 51 -165q70 -92 234 -93q165 0 270.5 93t133.5 241 l57 315q7 38 7 73q0 95 -52 162q-72 91 -238 91q-163 0 -268 -91.5t-131 -234.5z" />
<glyph unicode="p" horiz-adv-x="1040" d="M-8 -377l241 1360q0 8 11 12q174 78 360 78q199 0 289 -110q65 -79 65 -205q0 -49 -10 -105l-47 -266q-35 -199 -157 -303t-310 -104q-170 0 -297 94l-80 -451q-3 -12 -16 -12h-39q-13 0 -10 12zM147 133q59 -43 136 -68.5t153 -25.5q163 0 267.5 88.5t134.5 265.5 l47 266q9 53 9 97q0 258 -294 258q-156 0 -307 -62z" />
<glyph unicode="q" horiz-adv-x="1060" d="M96 432l45 244q36 193 167 296q126 101 316 101h11q205 -3 350 -67q9 -3 6 -15l-239 -1368q0 -12 -15 -12h-41q-13 0 -10 12l80 455q-148 -98 -322 -98q-197 0 -294 120q-67 83 -67 211q0 56 13 121zM160 426q-11 -60 -11 -110q0 -112 54 -179q79 -98 254 -98 q167 0 321 104l146 822q-130 49 -297 49q-168 0 -277.5 -87t-142.5 -255z" />
<glyph unicode="r" horiz-adv-x="722" d="M66 12l165 975q1 5 13 17q159 69 336 69q84 0 190 -18q10 -3 10 -15l-6 -34q0 -14 -14 -11q-108 19 -187 19q-148 0 -280 -58l-162 -944q0 -12 -14 -12h-41q-13 0 -10 12z" />
<glyph unicode="s" horiz-adv-x="940" d="M12 131l21 27q7 11 16 2q135 -121 340 -121q144 0 241.5 58.5t117.5 164.5q4 24 4 44q0 30 -8 54q-14 40 -59.5 68.5t-90.5 44t-125 35.5q-54 14 -96.5 29.5t-91.5 42.5t-79 58.5t-46 79.5q-10 29 -10 61q0 20 4 42q20 118 135 185t280 67q183 0 334 -100q11 -8 4 -19 l-22 -28q-8 -8 -19 -2q-55 41 -138.5 65.5t-168.5 24.5q-134 0 -229.5 -54t-112.5 -149q-3 -16 -3 -32q0 -27 8 -49q14 -36 39.5 -60.5t68 -45.5t80 -33.5t88.5 -25.5q64 -16 110.5 -32t93 -42t73.5 -57t39 -77q7 -26 7 -55q0 -23 -4 -48q-23 -127 -137 -200.5t-293 -73.5 q-217 0 -369 133q-8 8 -2 18z" />
<glyph unicode="t" horiz-adv-x="563" d="M109 315l176 990q3 12 14 12h33q12 0 12 -12l-41 -252h297q13 0 10 -15l-4 -32q0 -13 -14 -13h-299l-119 -684q-7 -42 -7 -78q-1 -76 31 -123q46 -69 162 -69q28 0 86 4q8 0 11 -3t2 -9l-4 -33q0 -4 -4 -8t-9 -4q-44 -6 -88 -6q-141 0 -207 88q-46 62 -46 159q0 41 8 88z " />
<glyph unicode="u" horiz-adv-x="1079" d="M123 406l115 634q0 5 4 9t10 4h37q15 0 12 -15l-115 -639q-10 -57 -10 -105q0 -255 291 -255q155 0 317 57l170 944q0 5 4.5 9t10.5 4h41q13 0 10 -15l-174 -972q-3 -10 -10 -13q-179 -73 -373 -73q-198 0 -288 110q-63 77 -63 202q0 53 11 114z" />
<glyph unicode="v" horiz-adv-x="950" d="M131 1038q-3 15 12 15h39q11 0 15 -11l194 -966l539 968q9 9 16 9h43q8 0 11 -4.5t-1 -12.5l-577 -1028q-5 -8 -16 -8h-48q-11 0 -14 10z" />
<glyph unicode="w" horiz-adv-x="1458" d="M135 1040q0 13 10 13h39q17 0 17 -13l123 -956l454 936q5 10 15 10h47q14 0 14 -12l123 -934h2q78 175 459 958q7 11 16 11h41q6 0 9.5 -4.5t0.5 -10.5l-499 -1028q-3 -10 -15 -10h-49q-13 0 -16 12l-121 932l-455 -934q-3 -10 -14 -10h-51q-15 0 -15 12z" />
<glyph unicode="x" horiz-adv-x="927" d="M-49 4q-2 4 4 12l473 525l-274 495q-3 7 0.5 12t9.5 5h45q7 0 16 -9l248 -456l410 456q13 9 16 9h51q8 0 10 -4.5t-4 -12.5l-448 -499l287 -523q4 -6 1 -10t-10 -4h-47q-11 0 -14 8l-262 481l-434 -481q-5 -8 -15 -8h-53q-8 0 -10 4z" />
<glyph unicode="y" horiz-adv-x="1083" d="M25 -240l26 31q6 9 19 0q63 -69 135 -104t174 -35q164 0 262 90t123 231l27 144q-164 -72 -324 -72q-190 0 -281 105q-65 76 -65 200q0 49 10 105l107 585q0 4 4.5 8.5t9.5 4.5h39q15 0 12 -15l-106 -589q-9 -52 -9 -97q0 -248 289 -248q164 0 324 80l151 856q4 13 17 13 h39q15 0 12 -15l-191 -1071q-34 -171 -149 -273t-303 -102q-116 0 -200 38.5t-152 113.5q-5 8 0 16z" />
<glyph unicode="z" horiz-adv-x="872" d="M-29 12l2 27l9 16l809 938h-603q-6 0 -9 4t-1 9l4 34q0 4 5 8.5t10 4.5h680q12 0 12 -15l-4 -18q0 -3 -0.5 -5t-1.5 -3.5t-2 -3.5l-2 -4l-811 -945h649q15 0 12 -12l-8 -37q-3 -10 -14 -10h-723q-7 0 -11.5 3t-1.5 9z" />
<glyph unicode="{" horiz-adv-x="485" d="M111 -8l86 487q18 110 2.5 155.5t-74.5 57.5q-10 2 -10 17l4 45q0 8 14 12q65 12 99.5 60.5t54.5 156.5l86 490q20 117 73.5 171t149.5 54h16q11 0 11 -12l-7 -39q0 -4 -3.5 -8.5t-6.5 -4.5h-14q-66 0 -104.5 -41.5t-53.5 -128.5l-86 -491q-37 -209 -176 -244 q60 -18 83 -81.5t5 -168.5l-88 -491q-15 -91 8.5 -127.5t91.5 -36.5h13q8 0 8 -14l-6 -39q0 -1 -1 -3.5t-4 -5t-8 -2.5h-12q-99 0 -135 56.5t-16 175.5z" />
<glyph unicode="|" horiz-adv-x="425" d="M41 -272l356 2023q0 12 17 12h37q13 0 10 -12l-357 -2023q0 -13 -14 -13h-37q-15 0 -12 13z" />
<glyph unicode="}" horiz-adv-x="483" d="M-66 -225l7 39q0 4 3.5 8t6.5 4h14q66 0 104.5 41.5t53.5 128.5l86 491q37 209 176 244q-60 18 -83 81.5t-5 168.5l88 492q15 91 -8 127t-92 36h-13q-8 0 -8 15l6 39q0 1 1 3.5t4 4.5t8 2h12q99 0 135 -56.5t16 -175.5l-86 -487q-18 -110 -2.5 -155.5t74.5 -57.5 q10 -2 10 -16l-4 -45q0 -9 -14 -13q-65 -12 -99.5 -60.5t-54.5 -156.5l-86 -489q-20 -117 -73.5 -171.5t-149.5 -54.5h-16q-11 0 -11 13z" />
<glyph unicode="~" horiz-adv-x="1122" d="M209 690q-6 12 2 17q95 75 195 75q72 0 194 -44t174 -44q90 0 168 62q10 7 19 -2l18 -25q7 -10 -2 -16q-99 -78 -203 -78q-65 0 -190 44t-181 44q-85 0 -159 -61q-11 -6 -19 2z" />
<glyph unicode="&#xa1;" horiz-adv-x="401" d="M8 -379l70 387l133 750q4 12 16 12h37q12 0 10 -14l-131 -750l-67 -385q-3 -12 -17 -12h-39q-15 0 -12 12zM236 1028q3 24 19 37.5t40 13.5q26 0 39 -16t10 -43q-10 -53 -61 -53q-25 0 -38.5 17.5t-8.5 43.5z" />
<glyph unicode="&#xa2;" horiz-adv-x="983" d="M106 365l66 364q27 148 138 243t278 101l24 148q4 12 17 12h26q14 0 11 -12l-25 -148q158 -12 279 -108q12 -9 2 -19l-19 -26q-9 -9 -18 -2q-121 96 -281 96q-150 0 -246.5 -81t-119.5 -210l-68 -365q-24 -140 48.5 -227.5t227.5 -87.5q73 0 163 31t159 86q11 11 18 -4 l17 -31q4 -11 -4 -16q-73 -59 -168.5 -92t-181.5 -33l-25 -136q0 -14 -14 -14h-27q-13 0 -10 14l22 138q-160 13 -238.5 120t-50.5 259z" />
<glyph unicode="&#xa3;" horiz-adv-x="1017" d="M14 12l4 33q3 12 17 12q66 9 111.5 67.5t62.5 162.5l80 456h-131q-16 0 -13 13l9 37q2 10 14 10h133l57 330q24 147 135.5 249.5t272.5 102.5q88 0 159.5 -34t118.5 -95q3 -9 -2 -19l-24 -22q-8 -12 -19 2q-86 108 -239 108q-134 0 -225 -88t-113 -209l-55 -325h417 q7 0 11.5 -2.5t1.5 -9.5l-6 -37q-3 -11 -15 -11h-420l-82 -462q-28 -165 -122 -220h677q6 0 9 -4t2 -10l-4 -35q0 -12 -15 -12h-796q-11 0 -11 12z" />
<glyph unicode="&#xa4;" horiz-adv-x="1247" d="M121 252q-7 9 2 18l117 107q-88 132 -54 334q38 200 168 327l-78 99q-6 9 3 18l28 27q10 10 17 0l79 -101q149 117 334 117q194 0 297 -119l117 105q8 8 18 -2l21 -25q8 -8 -2 -18l-119 -105q88 -138 55 -332q-38 -199 -170 -331l80 -99q6 -8 -4 -18l-26 -27 q-12 -9 -19 2l-78 101q-152 -117 -334 -117q-191 0 -299 117l-114 -103q-5 -4 -10.5 -3.5t-8.5 5.5zM246 705q-35 -195 57 -314t272 -119q182 0 320 122.5t170 314.5q32 188 -62.5 310t-269.5 122q-181 0 -318 -123t-169 -313z" />
<glyph unicode="&#xa5;" horiz-adv-x="1120" d="M217 1450q-3 14 10 14h45q10 0 13 -10l293 -817l575 819q3 8 14 8h50q7 0 9 -5t-1 -9l-586 -827h227q16 0 13 -15l-7 -33q-2 -10 -14 -10h-256l-31 -176h256q6 0 10 -2.5t3 -9.5l-9 -33q-3 -12 -14 -12h-256l-57 -320q0 -12 -15 -12h-43q-13 0 -10 12l58 320h-258 q-16 0 -13 14l8 33q0 10 15 10h258l31 176h-259q-15 0 -12 13l6 34q4 11 15 11h233z" />
<glyph unicode="&#xa6;" horiz-adv-x="432" d="M45 -272l145 833q4 14 17 14h37q13 0 10 -14l-145 -833q0 -6 -5 -9.5t-10 -3.5h-39q-13 0 -10 13zM254 918l147 833q0 12 15 12h37q16 0 10 -12l-146 -833q0 -6 -4.5 -10.5t-9.5 -4.5h-39q-13 0 -10 15z" />
<glyph unicode="&#xa7;" horiz-adv-x="956" d="M23 -195q-6 9 4 19l24 24q5 4 10.5 3.5t8.5 -5.5q100 -157 270 -157q121 0 208.5 71t106.5 187q23 146 -86 228q-47 35 -170 87q-75 31 -115.5 52.5t-89.5 63t-65.5 101t-3.5 139.5q19 114 105 190t214 91q-196 123 -165 326q17 108 117 184t227 76q153 0 282 -92 q11 -8 2 -17l-24 -30q-11 -7 -17 -3q-102 82 -245 82q-103 0 -185 -61.5t-94 -146.5q-9 -63 5.5 -112.5t58 -91.5t76.5 -64.5t101 -62.5q3 -2 5 -3q28 -16 45 -25.5t43.5 -26t42.5 -29t37.5 -30.5t34.5 -35t28 -38t22 -43.5t12.5 -48.5t5 -55.5t-6.5 -62.5 q-17 -93 -84.5 -161.5t-167.5 -96.5q149 -102 117 -294q-20 -132 -123.5 -222t-261.5 -90q-192 0 -309 180zM186 610q-10 -69 4.5 -116.5t67.5 -87t108.5 -65t168.5 -69.5q90 3 166 71t90 155q10 67 -2.5 117.5t-57 92.5t-83.5 66.5t-118 67.5l-20 10q-77 1 -146.5 -27.5 t-118.5 -85t-59 -129.5z" />
<glyph unicode="&#xa8;" horiz-adv-x="444" d="M143 1339q4 23 20 36.5t38 13.5q24 0 36 -15.5t7 -40.5q-3 -22 -19 -34.5t-37 -12.5q-23 0 -35.5 14t-9.5 39zM487 1339q3 23 19 36.5t37 13.5q24 0 36 -15.5t9 -40.5q-9 -47 -58 -47q-23 0 -34.5 14t-8.5 39z" />
<glyph unicode="&#xa9;" horiz-adv-x="1642" d="M156 409q-31 142 0 314q29 177 108.5 323t191 241t247 146.5t280.5 51.5t264 -53t198.5 -149.5t110 -243.5t0.5 -324q-29 -172 -108.5 -313t-190.5 -232t-245.5 -140.5t-278.5 -49.5q-146 0 -266 50.5t-200 143.5t-111 235zM201 717q-28 -165 0.5 -298t104 -217.5 t185.5 -129.5t246 -45q133 0 258 46t229.5 131.5t180 218.5t104.5 298q28 178 0.5 312.5t-102.5 224.5t-184 135t-244 45q-133 0 -259 -47.5t-231.5 -136.5t-182 -227.5t-105.5 -309.5zM567 578l51 292q19 108 106.5 183.5t203.5 76.5q144 3 217 -104q5 -8 0 -16l-21 -21 q-3 -6 -8 -5.5t-8 5.5q-66 88 -184 86q-96 -1 -165 -63t-85 -148l-51 -293q-14 -84 33 -144t143 -60q44 0 92 17.5t73.5 33.5t67.5 45q12 6 19 -4l10 -27q4 -13 -2 -16q-111 -108 -266 -105q-80 1 -137 38t-79.5 97.5t-9.5 131.5z" />
<glyph unicode="&#xab;" horiz-adv-x="954" d="M96.5 598q0.5 5 3.5 8l357 432q6 9 16 9h47q7 0 9 -5.5t-3 -9.5l-360 -438l205 -434q4 -15 -9 -15h-45q-10 0 -14 11l-205 434q-2 3 -1.5 8zM518.5 598q0.5 5 3.5 8l357 432q6 9 16 9h47q7 0 9 -5.5t-3 -9.5l-360 -438l205 -434q4 -15 -9 -15h-45q-10 0 -14 11l-205 434 q-2 3 -1.5 8z" />
<glyph unicode="&#xac;" horiz-adv-x="1122" d="M188 782l7 37q0 12 14 12h803q13 0 10 -14l-64 -366q0 -5 -4 -9t-10 -4h-37q-15 0 -12 15l55 315h-751q-11 0 -11 14z" />
<glyph unicode="&#xad;" horiz-adv-x="776" d="M147 610l7 37q0 6 4.5 10.5t9.5 4.5h485q11 0 11 -15l-7 -39q0 -12 -14 -12h-483q-13 0 -13 14z" />
<glyph unicode="&#xae;" horiz-adv-x="1038" d="M207 1065q34 192 169.5 306t307.5 114t270 -117t64 -313q-34 -195 -169 -308.5t-310 -113.5q-172 0 -269 117t-63 315zM246 1059q-22 -122 12 -211t108 -132.5t177 -43.5q159 0 281 103.5t155 285.5q32 184 -53 284.5t-242 100.5q-161 0 -284 -102.5t-154 -284.5z M451 877l67 389q3 12 12 12h138q63 0 94.5 -35t21.5 -96q-9 -53 -47 -82.5t-96 -32.5l92 -155q7 -13 -6 -13h-25q-9 0 -12 6l-96 162h-78l-27 -158q0 -10 -12 -10h-16q-13 0 -10 13zM522 1069h109q47 0 77.5 22t36.5 62q12 84 -81 84h-111z" />
<glyph unicode="&#xaf;" horiz-adv-x="495" d="M145 1341l7 33q3 12 14 12h463q15 0 12 -14l-6 -33q-3 -10 -14 -10h-465q-11 0 -11 12z" />
<glyph unicode="&#xb0;" horiz-adv-x="638" d="M225 1260q20 105 91.5 165t168.5 60q95 0 146.5 -64t34.5 -170q-18 -103 -90.5 -164t-167.5 -61q-98 0 -150 64.5t-33 169.5zM279 1253q-16 -87 22 -131.5t113 -44.5t129.5 46t68.5 134q15 85 -22 131t-111 46t-130 -47.5t-70 -133.5z" />
<glyph unicode="&#xb1;" horiz-adv-x="1122" d="M84 154l4 36q3 13 16 13h803q11 0 11 -13l-7 -36q0 -5 -4 -9t-10 -4h-803q-6 0 -9 4t-1 9zM188 766l9 39q3 10 14 10h367l69 387q3 12 15 12h36q7 0 10.5 -2.5t2.5 -9.5l-68 -387h369q14 0 12 -12l-8 -39q-3 -10 -15 -10h-368l-70 -392q-4 -12 -14 -12h-39q-15 0 -12 12 l69 392h-366q-7 0 -10.5 3t-2.5 9z" />
<glyph unicode="&#xb2;" horiz-adv-x="610" d="M119 852l4 18q2 9 8 15l199 186q171 158 237.5 234t77.5 145q11 70 -28.5 109.5t-124.5 39.5q-103 0 -213 -106q-13 -9 -19 4l-10 16q-4 14 4 19q121 113 244 113q110 0 157.5 -59.5t34.5 -139.5t-87.5 -170t-235.5 -234q-42 -39 -168 -159h399q15 0 12 -13l-4 -22 q-3 -10 -14 -10h-461q-15 0 -12 14z" />
<glyph unicode="&#xb3;" horiz-adv-x="624" d="M133 944q-2 9 4 19l13 12q12 8 18 -2q68 -99 205 -99q88 0 152.5 63t78.5 150q13 79 -30 132t-136 53q-38 0 -78 -4q-16 0 -16 10v16l6 13l223 209q14 13 41.5 36.5t40.5 36.5h-376q-14 0 -11 13l4 20q3 12 15 12h436q5 0 8 -3t2 -7l-4 -14q-3 -13 -8 -15l-311 -288 q18 2 49 2q100 -2 154.5 -66.5t35.5 -161.5q-18 -108 -95.5 -180t-186.5 -72q-165 0 -234 115z" />
<glyph unicode="&#xb4;" horiz-adv-x="296" d="M142.5 1232q-2.5 5 2.5 11l211 275q8 8 17 8h45q7 0 10 -5.5t-2 -11.5l-225 -274q-8 -8 -17 -8h-32q-7 0 -9.5 5z" />
<glyph unicode="&#xb6;" horiz-adv-x="1181" d="M162 1090q28 165 149.5 269.5t300.5 104.5h525q15 0 12 -12l-301 -1724q0 -13 -14 -13h-39q-14 0 -11 13l293 1671h-434l-293 -1671q0 -13 -14 -13h-37q-15 0 -12 13l172 981q-166 0 -246.5 110t-50.5 271z" />
<glyph unicode="&#xb7;" horiz-adv-x="395" d="M158 625q3 24 19 38.5t40 14.5q26 0 40 -18t9 -44q-9 -51 -61 -51q-25 0 -38 17t-9 43z" />
<glyph unicode="&#xb8;" horiz-adv-x="329" d="M-158 -381l2 23q0 14 15 10q62 -19 108 -19q66 0 110 29.5t54 85.5q8 48 -24.5 70.5t-120.5 23.5q-12 0 -17 8q-2 1 -1.5 6t3.5 9l70 131q3 10 14 10h27q17 0 10 -14l-63 -113q83 0 126 -37.5t31 -105.5q-12 -70 -70 -111t-149 -41q-53 0 -114 21q-11 3 -11 14z" />
<glyph unicode="&#xb9;" horiz-adv-x="376" d="M210.5 1506.5q1.5 4.5 6.5 6.5l180 117q12 4 17 4h26q7 0 10.5 -3t2.5 -9l-136 -770q-3 -12 -16 -12h-20q-14 0 -11 12l127 727l-159 -102q-10 -5 -19 4l-6 16q-4 5 -2.5 9.5z" />
<glyph unicode="&#xbb;" horiz-adv-x="952" d="M28 150.5q-2 5.5 3 9.5l360 438l-205 434q-4 15 9 15h45q10 0 14 -11l205 -434q2 -3 1.5 -8t-3.5 -8l-357 -432q-6 -9 -16 -9h-47q-7 0 -9 5.5zM450 150.5q-2 5.5 3 9.5l360 438l-205 434q-4 15 8 15h46q10 0 14 -11l205 -434q2 -3 1.5 -8t-3.5 -8l-357 -432 q-6 -9 -16 -9h-47q-7 0 -9 5.5z" />
<glyph unicode="&#xbc;" horiz-adv-x="1597" d="M74 5q-2 5 2 11l1235 1440q5 8 16 8h25q7 0 10 -5t-2 -9l-1235 -1442q-5 -8 -16 -8h-25q-8 0 -10 5zM204.5 1336.5q1.5 4.5 6.5 6.5l180 117q12 4 17 4h26q15 0 12 -12l-135 -770q-3 -12 -16 -12h-21q-13 0 -10 12l127 727l-160 -102q-9 -5 -18 4l-6 16q-4 5 -2.5 9.5z M985 215l2 14l6 17l381 540q3 9 17 9h26q7 0 9 -5.5t-3 -9.5l-370 -532h311l35 194q0 5 4 9t10 4h21q13 0 10 -15l-31 -192h64q6 0 9 -3.5t1 -8.5l-4 -21q-2 -12 -15 -12h-65l-35 -191q0 -12 -14 -12h-21q-13 0 -10 12l33 191h-359q-12 0 -12 12z" />
<glyph unicode="&#xbd;" horiz-adv-x="1628" d="M84 5q-2 5 2 11l1235 1440q5 8 16 8h25q7 0 10 -5t-2 -9l-1235 -1442q-5 -8 -16 -8h-25q-8 0 -10 5zM200.5 1336.5q1.5 4.5 6.5 6.5l180 117q12 4 16 4h27q15 0 12 -12l-135 -770q-3 -12 -16 -12h-21q-13 0 -10 12l127 727l-160 -102q-9 -5 -18 4l-6 16q-4 5 -2.5 9.5z M975 14l4 19q1 7 8 14l199 184q171 158 237.5 234t77.5 145q11 70 -28.5 110t-124.5 40q-102 0 -213 -107q-13 -9 -19 4l-10 17q-3 13 4 18q121 113 244 113q110 0 157.5 -59.5t34.5 -139.5t-87 -169t-236 -234l-168 -158h399q14 0 12 -12l-4 -23q-3 -10 -14 -10h-463 q-13 0 -10 14z" />
<glyph unicode="&#xbe;" horiz-adv-x="1771" d="M127 774q-2 9 4 19l14 12q3 5 8.5 4.5t8.5 -6.5q69 -96 205 -96q88 0 152.5 62t78.5 149q13 79 -29.5 131.5t-136.5 52.5q-38 0 -78 -4q-14 0 -16 10v16q2 8 8 13l221 209q17 16 84 73h-379q-13 0 -10 13l4 20q2 12 15 12h436q5 0 8 -3t2 -7l-2 -14l-3 -6t-3.5 -6 t-3.5 -3l-312 -286h52q99 -2 153 -67t35 -161q-18 -107 -95.5 -179.5t-187.5 -72.5q-161 0 -233 115zM272.5 5q-2.5 5 1.5 11l1235 1440q5 8 17 8h24q7 0 10.5 -5t-1.5 -9l-1235 -1442q-5 -8 -17 -8h-24q-8 0 -10.5 5zM1161 215l2 14l6 17l381 540q3 9 17 9h26q7 0 9 -5.5 t-3 -9.5l-370 -532h311l35 194q0 5 4 9t10 4h21q13 0 10 -15l-31 -192h64q6 0 9 -3.5t1 -8.5l-4 -21q-2 -12 -14 -12h-66l-35 -191q0 -12 -14 -12h-21q-13 0 -10 12l33 191h-358q-13 0 -13 12z" />
<glyph unicode="&#xbf;" horiz-adv-x="892" d="M-14 -31q14 78 46 141t72 105t85.5 78.5t90.5 69.5t83.5 68t67.5 83.5t40 108.5l23 129q0 4 5 8t11 4h37q15 0 12 -14l-27 -140q-13 -66 -43.5 -120t-70 -91t-84.5 -71t-90.5 -68.5t-84.5 -73.5t-69.5 -96t-42.5 -127q-5 -46 -4 -91.5t19.5 -87t48.5 -73t81.5 -50.5 t118.5 -19q192 0 361 155q9 9 18 -4l15 -26q6 -10 -3 -19q-177 -166 -397 -166q-120 0 -200 54t-109 141t-10 192zM514 1020q9 51 61 51q25 0 38.5 -16.5t9.5 -42.5q-5 -25 -21 -39.5t-41 -14.5t-38.5 18t-8.5 44z" />
<glyph unicode="&#xc0;" horiz-adv-x="1138" d="M-68 4q-3 4 0 10l756 1440q5 10 17 10h53q14 0 14 -12l256 -1440q1 -6 -3 -9t-9 -3h-43q-14 0 -17 12l-75 449h-641l-236 -451q-2 -10 -14 -10h-47q-8 0 -11 4zM272 522h598l-147 860h-2zM602 1898q-8 15 8 15h47q14 0 17 -10l147 -273q7 -14 -10 -14h-31q-11 0 -14 8z " />
<glyph unicode="&#xc1;" horiz-adv-x="1138" d="M-68 4q-3 4 0 10l756 1440q5 10 17 10h53q14 0 14 -12l256 -1440q1 -6 -3 -9t-9 -3h-43q-14 0 -17 12l-75 449h-641l-236 -451q-2 -10 -14 -10h-47q-8 0 -11 4zM272 522h598l-147 860h-2zM698.5 1621q-2.5 5 3.5 9l267 277q9 6 18 6h53q8 0 11.5 -5.5t-2.5 -9.5 l-287 -276q-6 -6 -19 -6h-34q-8 0 -10.5 5z" />
<glyph unicode="&#xc2;" horiz-adv-x="1138" d="M-68 4q-3 4 0 10l756 1440q5 10 17 10h53q14 0 14 -12l256 -1440q1 -6 -3 -9t-9 -3h-43q-14 0 -17 12l-75 449h-641l-236 -451q-2 -10 -14 -10h-47q-8 0 -11 4zM272 522h598l-147 860h-2zM466.5 1621q-1.5 5 4.5 9l293 277q4 6 16 6h41q12 0 15 -8l202 -275q5 -4 2 -9 t-10 -5h-41q-11 0 -16 8l-176 240l-256 -242q-6 -6 -19 -6h-45q-9 0 -10.5 5z" />
<glyph unicode="&#xc3;" horiz-adv-x="1138" d="M-66 4q-3 4 0 10l756 1440q5 10 17 10h53q14 0 14 -12l256 -1440q1 -6 -3 -9t-9 -3h-43q-14 0 -17 12l-75 449h-641l-236 -451q-2 -10 -14 -10h-47q-8 0 -11 4zM274 522h598l-147 860h-2zM510 1702q23 44 63.5 73t88.5 29q58 0 135 -47q5 -3 19 -11t22 -12t21 -9.5t26 -8 t28 -2.5q65 0 101 74q6 10 18 2l23 -14q3 -2 5 -7t-1 -8q-22 -44 -61.5 -73t-88.5 -29q-47 0 -129 45q-5 3 -21 11.5t-24.5 12.5t-22.5 10t-27 8.5t-26 2.5q-67 0 -104 -76q-8 -8 -18 -2l-23 15q-11 5 -4 16z" />
<glyph unicode="&#xc4;" horiz-adv-x="1138" d="M-68 4q-3 4 0 10l756 1440q5 10 17 10h53q14 0 14 -12l256 -1440q1 -6 -3 -9t-9 -3h-43q-14 0 -17 12l-75 449h-641l-236 -451q-2 -10 -14 -10h-47q-8 0 -11 4zM272 522h598l-147 860h-2zM551 1765q3 23 18.5 36.5t38.5 13.5q24 0 35 -15t8 -39q-9 -49 -55 -49 q-25 0 -37.5 15t-7.5 38zM926 1765q10 50 55 50q24 0 36 -15t9 -39q-9 -49 -57 -49q-24 0 -35 14.5t-8 38.5z" />
<glyph unicode="&#xc5;" horiz-adv-x="1138" d="M-68 4q-3 4 0 10l756 1440q5 10 17 10h53q14 0 14 -12l256 -1440q1 -6 -3 -9t-9 -3h-43q-14 0 -17 12l-75 449h-641l-236 -451q-2 -10 -14 -10h-47q-8 0 -11 4zM272 522h598l-147 860h-2zM590 1763q12 87 74.5 138t154.5 51q80 0 126.5 -55.5t31.5 -137.5 q-15 -86 -76 -135t-149 -49q-82 0 -128.5 54.5t-33.5 133.5zM639 1759q-9 -60 24 -97.5t97 -37.5q63 0 109 39.5t57 99.5q12 63 -20 101.5t-97 38.5q-64 0 -111.5 -40.5t-58.5 -103.5z" />
<glyph unicode="&#xc6;" horiz-adv-x="1679" d="M-78 5q-2 5 2 11l1024 1440q3 8 15 8h751q10 0 10 -12l-6 -37q0 -12 -14 -12h-651l-109 -627h617q10 0 10 -12l-6 -37q0 -14 -15 -14h-618l-113 -650h660q13 0 10 -14l-4 -37q-3 -12 -17 -12h-716q-17 0 -11 12l76 443h-504l-313 -447q-3 -8 -14 -8h-54q-8 0 -10 5z M356 516h473l156 883h-4z" />
<glyph unicode="&#xc7;" d="M137 471l96 543q39 218 183.5 344.5t365.5 126.5q234 0 389 -152q10 -6 0 -16l-28 -33q-8 -11 -17 -2q-142 139 -354 139q-193 0 -315.5 -112.5t-155.5 -302.5l-94 -539q-35 -191 49.5 -307.5t282.5 -116.5q227 0 428 160q3 4 8.5 3.5t7.5 -5.5l18 -35q5 -10 -4 -19 q-196 -156 -438 -165l-55 -105q84 0 127 -37.5t33 -109.5q-12 -68 -70 -108t-152 -40q-64 0 -116 21q-11 3 -11 14l2 25q0 6 5 9t10 1q62 -19 106 -19q72 0 116 28.5t52 78.5q9 52 -24 75.5t-123 24.5q-11 0 -15 8q-4 4 0 15l62 117q-212 6 -310 140.5t-59 350.5z" />
<glyph unicode="&#xc8;" horiz-adv-x="1095" d="M104 12l252 1440q0 12 17 12h755q11 0 11 -12l-6 -39q0 -5 -4.5 -8.5t-10.5 -3.5h-702l-109 -621h668q13 0 10 -14l-4 -37q0 -12 -16 -12h-668l-115 -654h721q10 0 10 -12l-6 -39q0 -12 -14 -12h-776q-7 0 -10.5 3t-2.5 9zM594 1898q-8 15 8 15h47q14 0 17 -10l147 -273 q7 -14 -10 -14h-31q-11 0 -14 8z" />
<glyph unicode="&#xc9;" horiz-adv-x="1095" d="M104 12l252 1440q0 12 17 12h755q11 0 11 -12l-6 -39q0 -5 -4.5 -8.5t-10.5 -3.5h-702l-109 -621h668q13 0 10 -14l-4 -37q0 -12 -16 -12h-668l-115 -654h721q10 0 10 -12l-6 -39q0 -12 -14 -12h-776q-7 0 -10.5 3t-2.5 9zM670 1621q-2 5 4 9l266 277q9 6 18 6h54 q8 0 11 -5.5t-3 -9.5l-287 -276q-6 -6 -18 -6h-35q-8 0 -10 5z" />
<glyph unicode="&#xca;" horiz-adv-x="1095" d="M104 12l252 1440q0 12 17 12h755q11 0 11 -12l-6 -39q0 -5 -4.5 -8.5t-10.5 -3.5h-702l-109 -621h668q13 0 10 -14l-4 -37q0 -12 -16 -12h-668l-115 -654h721q10 0 10 -12l-6 -39q0 -12 -14 -12h-776q-7 0 -10.5 3t-2.5 9zM470.5 1621q-1.5 5 4.5 9l293 277q4 6 16 6h41 q12 0 15 -8l202 -275q5 -4 2 -9t-10 -5h-41q-11 0 -16 8l-176 240l-256 -242q-6 -6 -19 -6h-45q-9 0 -10.5 5z" />
<glyph unicode="&#xcb;" horiz-adv-x="1095" d="M104 12l252 1440q0 12 17 12h755q11 0 11 -12l-6 -39q0 -5 -4.5 -8.5t-10.5 -3.5h-702l-109 -621h668q13 0 10 -14l-4 -37q0 -12 -16 -12h-668l-115 -654h721q10 0 10 -12l-6 -39q0 -12 -14 -12h-776q-7 0 -10.5 3t-2.5 9zM555 1765q3 23 18.5 36.5t38.5 13.5 q24 0 35 -15t8 -39q-9 -49 -55 -49q-25 0 -37.5 15t-7.5 38zM930 1765q10 50 55 50q24 0 36 -15t9 -39q-9 -49 -57 -49q-24 0 -35 14.5t-8 38.5z" />
<glyph unicode="&#xcc;" horiz-adv-x="458" d="M104 12l254 1440q3 12 15 12h43q13 0 10 -12l-252 -1440q-3 -12 -16 -12h-41q-7 0 -10.5 3t-2.5 9zM262 1898q-8 15 8 15h47q14 0 17 -10l147 -273q7 -14 -10 -14h-31q-11 0 -14 8z" />
<glyph unicode="&#xcd;" horiz-adv-x="458" d="M104 12l254 1440q3 12 15 12h43q13 0 10 -12l-252 -1440q-3 -12 -16 -12h-41q-7 0 -10.5 3t-2.5 9zM358.5 1621q-2.5 5 3.5 9l267 277q9 6 18 6h53q8 0 11.5 -5.5t-2.5 -9.5l-287 -276q-6 -6 -19 -6h-34q-8 0 -10.5 5z" />
<glyph unicode="&#xce;" horiz-adv-x="458" d="M104 12l254 1440q3 12 15 12h43q13 0 10 -12l-252 -1440q-3 -12 -16 -12h-41q-7 0 -10.5 3t-2.5 9zM125 1621q-3 5 2 9l309 301q9 6 19 6h43q11 0 14 -8l205 -299q3 -4 1 -9t-9 -5h-47q-12 0 -15 8l-178 262l-272 -264q-4 -6 -17 -6h-45q-7 0 -10 5z" />
<glyph unicode="&#xcf;" horiz-adv-x="456" d="M104 12l252 1440q0 12 17 12h41q13 0 10 -12l-252 -1440q0 -12 -16 -12h-41q-14 0 -11 12zM240 1765q3 23 18.5 36.5t38.5 13.5q24 0 35 -15t8 -39q-9 -49 -55 -49q-24 0 -36 14.5t-9 38.5zM557 1765q3 23 18 36.5t37 13.5q23 0 35.5 -15.5t7.5 -38.5q-6 -49 -55 -49 q-26 0 -37 14.5t-6 38.5z" />
<glyph unicode="&#xd0;" horiz-adv-x="1300" d="M74 754l4 30q0 13 14 13h158l115 655q0 12 14 12h455q223 0 330.5 -138.5t66.5 -375.5l-80 -454q-40 -236 -189.5 -366t-379.5 -130h-457q-16 0 -10 12l127 729h-158q-13 0 -10 13zM190 63h400q196 0 326 115t167 324l80 454q37 214 -51.5 329.5t-284.5 115.5h-403 l-105 -604h400q10 0 10 -15l-4 -28q0 -13 -14 -13h-402z" />
<glyph unicode="&#xd1;" horiz-adv-x="1374" d="M104 12l252 1440q0 12 15 12h51q11 0 14 -10l602 -1350l236 1348q3 12 16 12h41q13 0 10 -12l-249 -1440q-3 -12 -17 -12h-51q-11 0 -14 10l-602 1342h-2l-232 -1340q0 -12 -16 -12h-43q-14 0 -11 12zM610 1702q23 44 63.5 73t88.5 29q58 0 135 -47q5 -3 19.5 -11t22 -12 t21 -9.5t26.5 -8t28 -2.5q64 0 100 74q7 10 19 2l22 -14q3 -2 5 -7t-1 -8q-22 -44 -61 -73t-88 -29q-47 0 -129 45q-5 3 -21 11.5t-24.5 12.5t-22.5 10t-27 8.5t-26 2.5q-68 0 -105 -76q-8 -8 -18 -2l-23 15q-11 5 -4 16z" />
<glyph unicode="&#xd2;" horiz-adv-x="1318" d="M135 473l90 522q39 219 202 354.5t398 135.5q233 0 350 -141t78 -359l-92 -526q-36 -209 -199.5 -344t-396.5 -135q-153 0 -260 65t-150 177t-20 251zM203 467q-30 -184 70.5 -304t297.5 -120q202 0 347 119t176 301l92 528q33 190 -66.5 310t-302.5 120 q-204 0 -346.5 -120t-175.5 -312zM711 1898q-7 15 8 15h47q13 0 16 -10l148 -273q7 -14 -10 -14h-31q-12 0 -15 8z" />
<glyph unicode="&#xd3;" horiz-adv-x="1318" d="M135 473l90 522q39 219 202 354.5t398 135.5q233 0 350 -141t78 -359l-92 -526q-36 -209 -199.5 -344t-396.5 -135q-153 0 -260 65t-150 177t-20 251zM203 467q-30 -184 70.5 -304t297.5 -120q202 0 347 119t176 301l92 528q33 190 -66.5 310t-302.5 120 q-204 0 -346.5 -120t-175.5 -312zM766 1621q-2 5 4 9l266 277q9 6 19 6h53q8 0 11 -5.5t-3 -9.5l-287 -276q-6 -6 -18 -6h-35q-8 0 -10 5z" />
<glyph unicode="&#xd4;" horiz-adv-x="1318" d="M135 473l90 522q39 219 202 354.5t398 135.5q233 0 350 -141t78 -359l-92 -526q-36 -209 -199.5 -344t-396.5 -135q-153 0 -260 65t-150 177t-20 251zM203 467q-30 -184 70.5 -304t297.5 -120q202 0 347 119t176 301l92 528q33 190 -66.5 310t-302.5 120 q-204 0 -346.5 -120t-175.5 -312zM558.5 1621q-1.5 5 4.5 9l293 277q4 6 16 6h41q12 0 15 -8l202 -275q5 -4 2 -9t-10 -5h-41q-11 0 -16 8l-176 240l-256 -242q-6 -6 -19 -6h-45q-9 0 -10.5 5z" />
<glyph unicode="&#xd5;" horiz-adv-x="1318" d="M135 473l90 522q39 219 202 354.5t398 135.5q233 0 350 -141t78 -359l-92 -526q-36 -209 -199.5 -344t-396.5 -135q-153 0 -260 65t-150 177t-20 251zM203 467q-30 -184 70.5 -304t297.5 -120q202 0 347 119t176 301l92 528q33 190 -66.5 310t-302.5 120 q-204 0 -346.5 -120t-175.5 -312zM604 1702q23 44 63.5 73t88.5 29q58 0 135 -47q5 -3 19.5 -11t22 -12t21 -9.5t26.5 -8t28 -2.5q64 0 100 74q6 10 18 2l23 -14q3 -2 5 -7t-1 -8q-22 -44 -61 -73t-88 -29q-48 0 -130 45q-6 3 -21 11.5t-24 12.5l-22.5 10t-26.5 8.5t-26 2.5 q-68 0 -105 -76q-8 -8 -18 -2l-23 15q-11 5 -4 16z" />
<glyph unicode="&#xd6;" horiz-adv-x="1318" d="M135 473l90 522q39 219 202 354.5t398 135.5q233 0 350 -141t78 -359l-92 -526q-36 -209 -199.5 -344t-396.5 -135q-153 0 -260 65t-150 177t-20 251zM203 467q-30 -184 70.5 -304t297.5 -120q202 0 347 119t176 301l92 528q33 190 -66.5 310t-302.5 120 q-204 0 -346.5 -120t-175.5 -312zM643 1765q3 23 18.5 36.5t38.5 13.5q24 0 35 -15t8 -39q-9 -49 -55 -49q-25 0 -37.5 15t-7.5 38zM1018 1765q10 50 55 50q24 0 36 -15t9 -39q-9 -49 -57 -49q-24 0 -35 14.5t-8 38.5z" />
<glyph unicode="&#xd7;" horiz-adv-x="1122" d="M139 307q-11 11 0 19l406 362l-277 352q-7 13 2 19l31 26q10 10 16 0l277 -354l401 356q3 5 8.5 5t8.5 -5l26 -28q9 -9 -2 -17l-403 -360l276 -356q7 -10 0 -17l-30 -26q-3 -5 -8.5 -5t-8.5 5l-278 356l-404 -358q-3 -5 -8 -4.5t-8 6.5z" />
<glyph unicode="&#xd8;" horiz-adv-x="1318" d="M100.5 -98q-2.5 4 1.5 10l129 192q-65 66 -89.5 161.5t-4.5 207.5l90 522q39 219 201.5 354.5t396.5 135.5q165 0 283 -80l109 160q5 8 16 8h41q7 0 10 -5.5t-2 -11.5l-127 -190q68 -68 94 -166.5t6 -214.5l-92 -526q-36 -209 -199.5 -344t-396.5 -135q-175 0 -291 86 l-108 -162q-6 -6 -16 -6h-41q-8 0 -10.5 4zM205 467q-30 -184 67 -301l797 1182q-99 73 -250 73q-204 0 -347 -120t-177 -312zM315 123q99 -80 258 -80q202 0 347 119t176 301l92 528q35 197 -74 318z" />
<glyph unicode="&#xd9;" horiz-adv-x="1323" d="M172 465l174 987q0 12 14 12h46q13 0 10 -12l-176 -995q-31 -180 61 -297t274 -117q185 0 319.5 118t164.5 296l174 995q3 12 16 12h43q14 0 11 -12l-177 -1001q-34 -203 -189 -337t-368 -134q-139 0 -238.5 65t-140.5 175.5t-18 244.5zM711 1898q-7 15 8 15h47 q13 0 16 -10l148 -273q7 -14 -10 -14h-31q-12 0 -15 8z" />
<glyph unicode="&#xda;" horiz-adv-x="1323" d="M172 465l174 987q0 12 14 12h46q13 0 10 -12l-176 -995q-31 -180 61 -297t274 -117q185 0 319.5 118t164.5 296l174 995q3 12 16 12h43q14 0 11 -12l-177 -1001q-34 -203 -189 -337t-368 -134q-139 0 -238.5 65t-140.5 175.5t-18 244.5zM768 1621q-2 5 4 9l266 277 q9 6 19 6h53q8 0 11 -5.5t-3 -9.5l-287 -276q-6 -6 -18 -6h-35q-8 0 -10 5z" />
<glyph unicode="&#xdb;" horiz-adv-x="1323" d="M172 465l174 987q0 12 14 12h46q13 0 10 -12l-176 -995q-31 -180 61 -297t274 -117q185 0 319.5 118t164.5 296l174 995q3 12 16 12h43q14 0 11 -12l-177 -1001q-34 -203 -189 -337t-368 -134q-139 0 -238.5 65t-140.5 175.5t-18 244.5zM562.5 1621q-1.5 5 4.5 9l293 277 q4 6 17 6h41q11 0 14 -8l203 -275q5 -4 1.5 -9t-10.5 -5h-41q-11 0 -16 8l-176 240l-256 -242q-6 -6 -19 -6h-45q-9 0 -10.5 5z" />
<glyph unicode="&#xdc;" horiz-adv-x="1323" d="M172 465l174 987q0 12 14 12h46q13 0 10 -12l-176 -995q-31 -180 61 -297t274 -117q185 0 319.5 118t164.5 296l174 995q3 12 16 12h43q14 0 11 -12l-177 -1001q-34 -203 -189 -337t-368 -134q-139 0 -238.5 65t-140.5 175.5t-18 244.5zM635 1765q3 23 18.5 36.5 t38.5 13.5q24 0 35 -15t8 -39q-9 -49 -55 -49q-25 0 -37.5 15t-7.5 38zM1010 1765q10 50 55 50q24 0 36 -15t9 -39q-9 -49 -57 -49q-24 0 -35 14.5t-8 38.5z" />
<glyph unicode="&#xdd;" horiz-adv-x="1040" d="M178 1450q-4 14 10 14h45q12 0 15 -10l291 -807h2l569 809q5 8 14 8h54q7 0 9 -5t-1 -9l-619 -870l-102 -568q0 -12 -14 -12h-43q-14 0 -11 12l99 568zM627 1621q-2 5 4 9l266 277q9 6 18 6h54q8 0 11 -5.5t-3 -9.5l-287 -276q-6 -6 -18 -6h-35q-8 0 -10 5z" />
<glyph unicode="&#xde;" horiz-adv-x="1181" d="M104 12l252 1440q0 12 17 12h39q15 0 12 -12l-43 -246h324q232 0 337.5 -126t67.5 -337q-36 -208 -182.5 -319t-399.5 -111h-303l-53 -301q0 -12 -14 -12h-43q-14 0 -11 12zM236 377h296q225 0 352.5 96.5t157.5 276.5q33 191 -55 292t-295 101h-321z" />
<glyph unicode="&#xdf;" horiz-adv-x="1075" d="M66 12l184 1053q38 207 152 313.5t294 106.5q184 0 268 -108t50 -302q-42 -236 -260 -307q85 -22 136 -78t63 -132.5t-3 -170.5q-36 -196 -164 -298.5t-329 -102.5q-111 0 -213 45q-8 2 -8 14l6 35q0 14 14 10q102 -45 201 -45q179 0 289 89t141 259q7 53 8.5 102.5 t-16.5 93t-48.5 76t-87 51.5t-133.5 19h-217q-13 0 -10 15l4 32q0 13 14 13h211q66 0 121 18t91.5 46t63.5 67t42 77t22 80q29 167 -37.5 254.5t-222.5 87.5q-154 0 -250 -92.5t-127 -273.5l-186 -1047q0 -12 -14 -12h-39q-13 0 -10 12z" />
<glyph unicode="&#xe0;" horiz-adv-x="1005" d="M43 334q27 145 146.5 221t310.5 76q159 0 311 -39l20 125q56 297 -264 297q-177 0 -336 -92q-9 -9 -16 4l-12 30q-4 12 4 17q161 100 373 100q187 0 267 -99.5t50 -262.5l-113 -641q-2 -8 -10 -15q-186 -75 -381 -75q-117 0 -203.5 43t-127 124.5t-19.5 186.5zM106 328 q-25 -131 56 -210t235 -79q173 0 326 61l76 430q-169 41 -303 41q-165 0 -266 -62.5t-124 -180.5zM470.5 1520.5q2.5 5.5 8.5 5.5h43q10 0 17 -10l104 -273q3 -6 -0.5 -11t-9.5 -5h-27q-11 0 -16 10l-119 272q-3 6 -0.5 11.5z" />
<glyph unicode="&#xe1;" horiz-adv-x="1005" d="M43 334q27 145 146.5 221t310.5 76q159 0 311 -39l20 125q56 297 -264 297q-177 0 -336 -92q-9 -9 -16 4l-12 30q-4 12 4 17q161 100 373 100q187 0 267 -99.5t50 -262.5l-113 -641q-2 -8 -10 -15q-186 -75 -381 -75q-117 0 -203.5 43t-127 124.5t-19.5 186.5zM106 328 q-25 -131 56 -210t235 -79q173 0 326 61l76 430q-169 41 -303 41q-165 0 -266 -62.5t-124 -180.5zM534 1232q-2 5 3 11l211 275q8 8 16 8h45q7 0 10 -5.5t-2 -11.5l-225 -274q-8 -8 -17 -8h-32q-7 0 -9 5z" />
<glyph unicode="&#xe2;" horiz-adv-x="1005" d="M43 334q27 145 146.5 221t310.5 76q159 0 311 -39l20 125q56 297 -264 297q-177 0 -336 -92q-9 -9 -16 4l-12 30q-4 12 4 17q161 100 373 100q187 0 267 -99.5t50 -262.5l-113 -641q-2 -8 -10 -15q-186 -75 -381 -75q-117 0 -203.5 43t-127 124.5t-19.5 186.5zM106 328 q-25 -131 56 -210t235 -79q173 0 326 61l76 430q-169 41 -303 41q-165 0 -266 -62.5t-124 -180.5zM342 1232q-2 5 4 11l281 275q8 8 16 8h43q8 0 16 -8l179 -275q6 -16 -9 -16h-38q-11 0 -15 8l-157 246l-248 -246q-8 -8 -19 -8h-43q-8 0 -10 5z" />
<glyph unicode="&#xe3;" horiz-adv-x="1005" d="M43 334q27 145 146.5 221t310.5 76q159 0 311 -39l20 125q56 297 -264 297q-177 0 -336 -92q-9 -9 -16 4l-12 30q-4 12 4 17q161 100 373 100q187 0 267 -99.5t50 -262.5l-113 -641q-2 -8 -10 -15q-186 -75 -381 -75q-117 0 -203.5 43t-127 124.5t-19.5 186.5zM106 328 q-25 -131 56 -210t235 -79q173 0 326 61l76 430q-169 41 -303 41q-165 0 -266 -62.5t-124 -180.5zM360 1327q24 44 64.5 73.5t89.5 29.5q56 0 135 -46q2 -1 18.5 -11.5t22.5 -13.5t20 -9.5t26.5 -8.5t27.5 -2q35 0 57 19t43 55q7 10 19 2l22 -14q3 -2 5 -7t-1 -8 q-25 -43 -63.5 -72.5t-87.5 -29.5q-48 0 -127 47q-1 1 -12.5 7t-14 7.5t-13.5 7t-15.5 7t-14.5 5.5t-16.5 5t-15.5 2.5t-17 1.5q-66 0 -106 -76q-7 -10 -19 -2l-22 15q-12 6 -5 16z" />
<glyph unicode="&#xe4;" horiz-adv-x="1005" d="M43 334q27 145 146.5 221t310.5 76q159 0 311 -39l20 125q56 297 -264 297q-177 0 -336 -92q-9 -9 -16 4l-12 30q-4 12 4 17q161 100 373 100q187 0 267 -99.5t50 -262.5l-113 -641q-2 -8 -10 -15q-186 -75 -381 -75q-117 0 -203.5 43t-127 124.5t-19.5 186.5zM106 328 q-25 -131 56 -210t235 -79q173 0 326 61l76 430q-169 41 -303 41q-165 0 -266 -62.5t-124 -180.5zM408 1339q10 50 57 50q24 0 36 -15.5t7 -40.5q-3 -22 -18.5 -34.5t-36.5 -12.5q-23 0 -35.5 14t-9.5 39zM752 1339q3 23 18.5 36.5t36.5 13.5q24 0 36 -15.5t9 -40.5 q-9 -47 -57 -47q-23 0 -34.5 14t-8.5 39z" />
<glyph unicode="&#xe5;" horiz-adv-x="1005" d="M43 334q27 145 146.5 221t310.5 76q159 0 311 -39l20 125q56 297 -264 297q-177 0 -336 -92q-9 -9 -16 4l-12 30q-4 12 4 17q161 100 373 100q187 0 267 -99.5t50 -262.5l-113 -641q-2 -8 -10 -15q-186 -75 -381 -75q-117 0 -203.5 43t-127 124.5t-19.5 186.5zM106 328 q-25 -131 56 -210t235 -79q173 0 326 61l76 430q-169 41 -303 41q-165 0 -266 -62.5t-124 -180.5zM440 1391q15 89 77 138.5t153 49.5q77 0 124.5 -55.5t32.5 -132.5q-15 -89 -76 -139t-149 -50q-78 0 -126.5 55.5t-35.5 133.5zM492 1391q-9 -62 24 -102t96 -40q62 0 108 40 t58 102q11 63 -21 102t-95 39q-65 0 -112.5 -38.5t-57.5 -102.5z" />
<glyph unicode="&#xe6;" horiz-adv-x="1679" d="M45 344q26 130 150.5 201t322.5 71q144 0 281 -38l22 139q51 297 -254 297q-94 0 -185.5 -26t-156.5 -66q-3 -3 -6.5 -3.5t-6 1.5t-3.5 6l-16 30q-4 12 6 19q175 98 372 98q146 0 224.5 -61.5t83.5 -171.5q55 108 160.5 170.5t228.5 62.5q183 0 280 -112t60 -297 l-27 -140q-3 -12 -14 -12h-717l-23 -129q-27 -161 47.5 -252.5t217.5 -91.5q192 0 368 147q3 4 8.5 3.5t8.5 -5.5l18 -26q4 -11 -2 -19q-81 -72 -189 -115.5t-217 -43.5q-102 0 -178.5 46.5t-113.5 129.5q-39 -38 -73 -64.5t-82.5 -54.5t-108 -42.5t-128.5 -14.5 q-194 0 -291.5 99t-66.5 265zM111 334q-26 -140 52.5 -217.5t239.5 -77.5q118 0 201.5 45.5t163.5 130.5q-19 79 -4 168l24 137q-156 39 -276 39q-167 0 -274 -57t-127 -168zM862 571h664l18 95q32 164 -45 256t-237 92q-145 0 -250.5 -94t-132.5 -240z" />
<glyph unicode="&#xe7;" horiz-adv-x="915" d="M88 360l68 369q27 154 144 249t292 95q176 0 311 -108q9 -9 2 -19l-22 -28q-9 -9 -17 -3q-121 99 -280 99q-148 0 -245.5 -81t-121.5 -210l-65 -369q-25 -140 47.5 -227.5t228.5 -87.5q71 0 162.5 32t159.5 85q10 7 16 -4l16 -29q6 -12 -4 -19q-69 -55 -161 -87t-179 -37 l-55 -101q83 0 126.5 -37.5t31.5 -105.5q-12 -70 -70 -111t-149 -41q-54 0 -115 21q-10 3 -10 14l2 23q0 14 14 10q62 -19 109 -19q66 0 109.5 29.5t53.5 85.5q8 48 -24.5 70.5t-120.5 23.5q-11 0 -16 8q-2 1 -1.5 6t3.5 9l61 117q-166 10 -247 115.5t-54 262.5z" />
<glyph unicode="&#xe8;" horiz-adv-x="1017" d="M86 354l64 348q30 171 157 271t301 100q183 0 277 -102.5t59 -276.5l-35 -192q0 -10 -14 -10h-719l-26 -142q-15 -72 1 -132t56.5 -98.5t98.5 -59.5t128 -21q195 0 363 145q9 9 18 0l21 -28q6 -11 -5 -19q-179 -157 -403 -157q-169 0 -271.5 103t-70.5 271zM186 549h668 l29 151q29 147 -49 230.5t-230 83.5q-151 0 -257.5 -85t-133.5 -233zM511.5 1520.5q2.5 5.5 8.5 5.5h43q10 0 17 -10l104 -273q3 -6 -0.5 -11t-9.5 -5h-27q-11 0 -16 10l-119 272q-3 6 -0.5 11.5z" />
<glyph unicode="&#xe9;" horiz-adv-x="1017" d="M86 354l64 348q30 171 157 271t301 100q183 0 277 -102.5t59 -276.5l-35 -192q0 -10 -14 -10h-719l-26 -142q-15 -72 1 -132t56.5 -98.5t98.5 -59.5t128 -21q195 0 363 145q9 9 18 0l21 -28q6 -11 -5 -19q-179 -157 -403 -157q-169 0 -271.5 103t-70.5 271zM186 549h668 l29 151q29 147 -49 230.5t-230 83.5q-151 0 -257.5 -85t-133.5 -233zM566 1232q-2 5 3 11l211 275q8 8 17 8h45q7 0 10 -5.5t-2 -11.5l-225 -274q-8 -8 -17 -8h-33q-7 0 -9 5z" />
<glyph unicode="&#xea;" horiz-adv-x="1017" d="M86 354l64 348q30 171 157 271t301 100q183 0 277 -102.5t59 -276.5l-35 -192q0 -10 -14 -10h-719l-26 -142q-15 -72 1 -132t56.5 -98.5t98.5 -59.5t128 -21q195 0 363 145q9 9 18 0l21 -28q6 -11 -5 -19q-179 -157 -403 -157q-169 0 -271.5 103t-70.5 271zM186 549h668 l29 151q29 147 -49 230.5t-230 83.5q-151 0 -257.5 -85t-133.5 -233zM375 1232q-2 5 4 11l280 275q8 8 17 8h43q8 0 16 -8l178 -275q6 -16 -8 -16h-39q-10 0 -14 8l-158 246l-248 -246q-8 -8 -18 -8h-43q-8 0 -10 5z" />
<glyph unicode="&#xeb;" horiz-adv-x="1017" d="M86 354l64 348q30 171 157 271t301 100q183 0 277 -102.5t59 -276.5l-35 -192q0 -10 -14 -10h-719l-26 -142q-15 -72 1 -132t56.5 -98.5t98.5 -59.5t128 -21q195 0 363 145q9 9 18 0l21 -28q6 -11 -5 -19q-179 -157 -403 -157q-169 0 -271.5 103t-70.5 271zM186 549h668 l29 151q29 147 -49 230.5t-230 83.5q-151 0 -257.5 -85t-133.5 -233zM446 1339q4 23 20 36.5t38 13.5q24 0 36 -15.5t7 -40.5q-3 -22 -18.5 -34.5t-36.5 -12.5q-24 0 -36.5 14.5t-9.5 38.5zM791 1339q3 23 18.5 36.5t36.5 13.5q24 0 36 -15.5t9 -40.5q-9 -47 -57 -47 q-23 0 -34.5 14t-8.5 39z" />
<glyph unicode="&#xec;" horiz-adv-x="372" d="M63 12l183 1028q0 5 4 9t10 4h39q13 0 10 -15l-182 -1026q0 -12 -14 -12h-39q-14 0 -11 12zM171.5 1520.5q2.5 5.5 8.5 5.5h43q10 0 17 -10l104 -273q3 -6 -0.5 -11t-9.5 -5h-27q-11 0 -16 10l-119 272q-3 6 -0.5 11.5z" />
<glyph unicode="&#xed;" horiz-adv-x="372" d="M63 12l183 1028q0 5 4 9t10 4h39q13 0 10 -15l-182 -1026q0 -12 -14 -12h-39q-14 0 -11 12zM257 1232q-2 5 3 11l211 275q8 8 16 8h45q8 0 10.5 -5.5t-1.5 -11.5l-226 -274q-8 -8 -16 -8h-33q-7 0 -9 5z" />
<glyph unicode="&#xee;" horiz-adv-x="372" d="M59.5 1232q-2.5 5 1.5 11l261 275q12 8 18 8h39q10 0 14 -8l160 -275q10 -16 -8 -16h-39q-10 0 -14 8l-138 244l-227 -244q-8 -8 -16 -8h-41q-8 0 -10.5 5zM61 12l183 1028q0 5 4 9t10 4h39q13 0 10 -15l-182 -1026q0 -12 -14 -12h-39q-14 0 -11 12z" />
<glyph unicode="&#xef;" horiz-adv-x="372" d="M63 12l183 1028q0 5 4 9t10 4h39q13 0 10 -15l-182 -1026q0 -12 -14 -12h-39q-14 0 -11 12zM139 1339q4 23 20 36.5t38 13.5q23 0 34.5 -15.5t8.5 -40.5q-3 -22 -19 -34.5t-37 -12.5q-23 0 -35.5 14t-9.5 39zM426 1339q3 23 17.5 36.5t35.5 13.5q25 0 37.5 -15.5 t7.5 -40.5q-9 -47 -55 -47q-49 0 -43 53z" />
<glyph unicode="&#xf0;" horiz-adv-x="1062" d="M86 367l51 274q33 171 152.5 276t300.5 105q126 0 208.5 -54t114.5 -147q35 303 -108 455l-254 -174q-11 -4 -14 4l-13 20q-6 11 2 19l242 166q-97 80 -270 127q-18 5 -13 18l9 31q4 11 16 8q209 -59 309 -147l203 139q11 4 16 -6l11 -21q4 -13 0 -16l-193 -133 q85 -91 111 -230t-9 -368l-63 -353q-29 -168 -154 -274t-321 -106q-125 0 -208.5 52t-114 138.5t-11.5 196.5zM150 360q-24 -144 45.5 -232.5t228.5 -88.5q168 0 273.5 91.5t133.5 236.5l48 260q16 92 -8.5 167t-96 122t-180.5 47q-162 0 -262.5 -90.5t-128.5 -235.5z" />
<glyph unicode="&#xf1;" horiz-adv-x="1091" d="M61 12l172 973q2 6 13 14q184 74 375 74q205 0 296 -108t52 -318l-113 -635q0 -12 -14 -12h-39q-15 0 -12 12l114 639q68 363 -289 363q-156 0 -321 -60l-168 -942q0 -12 -16 -12h-39q-14 0 -11 12zM406 1327q24 44 64 73.5t89 29.5q56 0 135 -46q2 -1 18.5 -11.5 t22.5 -13.5t20 -9.5t26.5 -8.5t27.5 -2q35 0 57 19t43 55q7 10 19 2l22 -14q3 -2 5 -7t-1 -8q-25 -43 -63.5 -72.5t-87.5 -29.5q-48 0 -127 47q-1 1 -12.5 7t-14 7.5t-13.5 7t-15.5 7t-14.5 5.5t-16.5 5t-15.5 2.5t-17 1.5q-66 0 -106 -76q-7 -10 -19 -2l-22 15q-11 5 -4 16 z" />
<glyph unicode="&#xf2;" horiz-adv-x="1042" d="M88 379l55 315q30 167 155 273t316 106q193 0 282 -112t58 -279l-55 -313q-32 -173 -157 -281t-316 -108q-127 0 -212 54t-116 143.5t-10 201.5zM152 373q-26 -149 44.5 -241.5t233.5 -92.5q165 0 270.5 93t133.5 241l57 315q26 144 -45.5 235t-237.5 91 q-163 0 -268 -91.5t-131 -234.5zM517.5 1520.5q2.5 5.5 8.5 5.5h43q10 0 17 -10l104 -273q3 -6 -0.5 -11t-9.5 -5h-27q-11 0 -16 10l-119 272q-3 6 -0.5 11.5z" />
<glyph unicode="&#xf3;" horiz-adv-x="1042" d="M88 379l55 315q30 167 155 273t316 106q193 0 282 -112t58 -279l-55 -313q-32 -173 -157 -281t-316 -108q-127 0 -212 54t-116 143.5t-10 201.5zM152 373q-26 -149 44.5 -241.5t233.5 -92.5q165 0 270.5 93t133.5 241l57 315q26 144 -45.5 235t-237.5 91 q-163 0 -268 -91.5t-131 -234.5zM562 1232q-2 5 3 11l211 275q8 8 17 8h45q7 0 10 -5.5t-2 -11.5l-225 -274q-8 -8 -17 -8h-33q-7 0 -9 5z" />
<glyph unicode="&#xf4;" horiz-adv-x="1042" d="M88 379l55 315q30 167 155 273t316 106q193 0 282 -112t58 -279l-55 -313q-32 -173 -157 -281t-316 -108q-127 0 -212 54t-116 143.5t-10 201.5zM152 373q-26 -149 44.5 -241.5t233.5 -92.5q165 0 270.5 93t133.5 241l57 315q26 144 -45.5 235t-237.5 91 q-163 0 -268 -91.5t-131 -234.5zM377 1232q-2 5 4 11l281 275q8 8 16 8h43q8 0 16 -8l178 -275q6 -16 -8 -16h-39q-10 0 -14 8l-158 246l-247 -246q-8 -8 -19 -8h-43q-8 0 -10 5z" />
<glyph unicode="&#xf5;" horiz-adv-x="1042" d="M88 379l55 315q30 167 155 273t316 106q193 0 282 -112t58 -279l-55 -313q-32 -173 -157 -281t-316 -108q-127 0 -212 54t-116 143.5t-10 201.5zM152 373q-26 -149 44.5 -241.5t233.5 -92.5q165 0 270.5 93t133.5 241l57 315q26 144 -45.5 235t-237.5 91 q-163 0 -268 -91.5t-131 -234.5zM395 1327q24 44 64.5 73.5t89.5 29.5q56 0 135 -46q2 -1 18.5 -11.5t22.5 -13.5t20 -9.5t26.5 -8.5t27.5 -2q35 0 57 19t43 55q7 10 19 2l22 -14q3 -2 5 -7t-1 -8q-25 -43 -63.5 -72.5t-87.5 -29.5q-48 0 -127 47q-1 1 -12.5 7t-14 7.5 t-13.5 7t-15.5 7t-14.5 5.5t-16.5 5t-15.5 2.5t-17 1.5q-67 0 -107 -76q-6 -10 -18 -2l-23 15q-11 5 -4 16z" />
<glyph unicode="&#xf6;" horiz-adv-x="1042" d="M88 379l55 315q30 167 155 273t316 106q193 0 282 -112t58 -279l-55 -313q-32 -173 -157 -281t-316 -108q-127 0 -212 54t-116 143.5t-10 201.5zM152 373q-26 -149 44.5 -241.5t233.5 -92.5q165 0 270.5 93t133.5 241l57 315q26 144 -45.5 235t-237.5 91 q-163 0 -268 -91.5t-131 -234.5zM442 1339q4 23 20 36.5t38 13.5q24 0 36 -15.5t7 -40.5q-3 -22 -19 -34.5t-37 -12.5q-23 0 -35.5 14t-9.5 39zM786 1339q3 23 19 36.5t37 13.5q24 0 36 -15.5t9 -40.5q-9 -47 -58 -47q-23 0 -34.5 14t-8.5 39z" />
<glyph unicode="&#xf7;" horiz-adv-x="1122" d="M170 664l6 38q4 11 17 11h800q16 0 13 -13l-9 -38q-3 -11 -14 -11h-801q-15 0 -12 13zM471 334q10 51 61 51q25 0 38.5 -16.5t9.5 -42.5q-3 -24 -19.5 -38t-40.5 -14q-26 0 -40 17t-9 43zM590 1020q10 53 61 53q25 0 38.5 -17t8.5 -42q-10 -53 -59 -53q-26 0 -40 17 t-9 42z" />
<glyph unicode="&#xf8;" horiz-adv-x="1042" d="M17.5 -103.5q-2.5 5.5 0.5 9.5l136 180q-97 111 -66 293l57 315q30 167 155 273t316 106q143 0 228 -63l125 168q8 8 16 8h35q7 0 10 -5.5t-2 -11.5l-145 -192q105 -111 73 -295l-57 -313q-30 -173 -154.5 -281t-316.5 -108q-151 0 -238 69l-112 -149q-3 -9 -15 -9h-36 q-7 0 -9.5 5.5zM154 373q-28 -148 39 -236l614 824q-75 53 -197 53q-164 0 -268.5 -91.5t-132.5 -234.5zM227 100q74 -61 205 -61q165 0 270.5 93t133.5 241l55 315q25 149 -47 236z" />
<glyph unicode="&#xf9;" horiz-adv-x="1079" d="M123 406l115 634q0 5 4 9t10 4h37q15 0 12 -15l-115 -639q-65 -360 281 -360q155 0 317 57l170 944q0 5 4.5 9t10.5 4h41q13 0 10 -15l-174 -972q-3 -10 -10 -13q-179 -73 -373 -73q-198 0 -288 109.5t-52 316.5zM528 1509q-3 6 0 11.5t9 5.5h43q9 0 16 -10l104 -273 q3 -6 -0.5 -11t-9.5 -5h-26q-12 0 -17 10z" />
<glyph unicode="&#xfa;" horiz-adv-x="1079" d="M123 406l115 634q0 5 4 9t10 4h37q15 0 12 -15l-115 -639q-65 -360 281 -360q155 0 317 57l170 944q0 5 4.5 9t10.5 4h41q13 0 10 -15l-174 -972q-3 -10 -10 -13q-179 -73 -373 -73q-198 0 -288 109.5t-52 316.5zM572.5 1232q-2.5 5 2.5 11l211 275q8 8 17 8h45 q7 0 10 -5.5t-2 -11.5l-225 -274q-8 -8 -17 -8h-32q-7 0 -9.5 5z" />
<glyph unicode="&#xfb;" horiz-adv-x="1079" d="M123 406l115 634q0 5 4 9t10 4h37q15 0 12 -15l-115 -639q-65 -360 281 -360q155 0 317 57l170 944q0 5 4.5 9t10.5 4h41q13 0 10 -15l-174 -972q-3 -10 -10 -13q-179 -73 -373 -73q-198 0 -288 109.5t-52 316.5zM385 1232q-2 5 4 11l281 275q8 8 16 8h43q8 0 16 -8 l179 -275q6 -16 -9 -16h-38q-11 0 -15 8l-157 246l-248 -246q-8 -8 -19 -8h-43q-8 0 -10 5z" />
<glyph unicode="&#xfc;" horiz-adv-x="1079" d="M123 406l115 634q0 5 4 9t10 4h37q15 0 12 -15l-115 -639q-65 -360 281 -360q155 0 317 57l170 944q0 5 4.5 9t10.5 4h41q13 0 10 -15l-174 -972q-3 -10 -10 -13q-179 -73 -373 -73q-198 0 -288 109.5t-52 316.5zM451 1339q10 50 57 50q24 0 36 -15.5t7 -40.5 q-3 -22 -18.5 -34.5t-36.5 -12.5q-23 0 -35.5 14t-9.5 39zM795 1339q3 23 18.5 36.5t36.5 13.5q24 0 36 -15.5t9 -40.5q-9 -47 -57 -47q-23 0 -34.5 14t-8.5 39z" />
<glyph unicode="&#xfd;" horiz-adv-x="1083" d="M25 -240l26 31q6 9 19 0q63 -69 135 -104t174 -35q164 0 262 90t123 231l27 144q-164 -72 -324 -72q-190 0 -281 105.5t-55 304.5l107 585q0 4 4.5 8.5t9.5 4.5h39q15 0 12 -15l-106 -589q-61 -345 280 -345q164 0 324 80l151 856q4 13 17 13h39q15 0 12 -15l-191 -1071 q-34 -171 -149 -273t-303 -102q-116 0 -200 38.5t-152 113.5q-5 8 0 16zM583 1232q-2 5 3 11l211 275q8 8 16 8h45q7 0 10 -5.5t-2 -11.5l-225 -274q-8 -8 -16 -8h-33q-7 0 -9 5z" />
<glyph unicode="&#xfe;" horiz-adv-x="1069" d="M-4 -377l323 1829q0 12 15 12h39q15 0 12 -12l-82 -469q160 90 315 90q207 0 301.5 -110.5t57.5 -309.5l-47 -266q-35 -200 -160.5 -303.5t-323.5 -103.5q-170 0 -305 94l-80 -451q0 -12 -14 -12h-41q-13 0 -10 12zM152 137q61 -45 139.5 -71.5t154.5 -26.5 q172 0 281.5 89t138.5 265l47 266q63 355 -305 355q-158 0 -319 -99z" />
<glyph unicode="&#xff;" horiz-adv-x="1083" d="M25 -240l26 31q6 9 19 0q63 -69 135 -104t174 -35q164 0 262 90t123 231l27 144q-164 -72 -324 -72q-190 0 -281 105.5t-55 304.5l107 585q0 4 4.5 8.5t9.5 4.5h39q15 0 12 -15l-106 -589q-61 -345 280 -345q164 0 324 80l151 856q4 13 17 13h39q15 0 12 -15l-191 -1071 q-34 -171 -149 -273t-303 -102q-116 0 -200 38.5t-152 113.5q-5 8 0 16zM457 1339q10 50 57 50q24 0 36 -15.5t7 -40.5q-3 -22 -18.5 -34.5t-36.5 -12.5q-23 0 -35.5 14t-9.5 39zM801 1339q3 23 18.5 36.5t36.5 13.5q24 0 36 -15.5t9 -40.5q-9 -47 -57 -47q-23 0 -34.5 14 t-8.5 39z" />
<glyph unicode="&#x152;" horiz-adv-x="1929" d="M137 465l96 553q37 205 192 336t363 131q147 0 246 -71t135 -193l39 231q0 12 15 12h737q12 0 12 -12l-6 -39q0 -4 -4.5 -8t-9.5 -4h-684l-109 -623h651q6 0 9.5 -3.5t1.5 -8.5l-4 -39q0 -12 -15 -12h-653l-113 -652h697q14 0 12 -12l-6 -41q-3 -10 -17 -10h-751 q-7 0 -10.5 3t-2.5 9l39 215q-72 -113 -196.5 -180t-272.5 -67q-139 0 -237.5 65t-138 175.5t-15.5 244.5zM205 459q-32 -181 56.5 -298.5t273.5 -117.5q123 0 230.5 52.5t178.5 145t90 205.5l94 553q33 187 -62 304.5t-286 117.5q-180 0 -314 -115.5t-165 -293.5z" />
<glyph unicode="&#x153;" horiz-adv-x="1710" d="M88 379l55 315q30 166 151 272.5t300 106.5q140 0 222.5 -63.5t103.5 -173.5q57 112 161.5 174.5t235.5 62.5q169 0 259 -103.5t58 -275.5l-37 -192q0 -10 -14 -10h-688l-27 -144q-27 -141 54.5 -225t220.5 -84q179 0 344 145q11 8 18 -2l19 -26q5 -11 0 -19 q-175 -157 -389 -157q-123 0 -211 63.5t-111 175.5q-59 -112 -162 -175.5t-243 -63.5q-120 0 -200.5 54t-110.5 144t-9 201zM154 373q-27 -148 39 -241t219 -93q160 0 264.5 93t130.5 239l55 317q17 93 -5.5 165.5t-90.5 116.5t-176 44q-155 0 -255 -91.5t-126 -234.5z M903 549h639l29 151q27 147 -45.5 230.5t-214.5 83.5q-147 0 -251 -85.5t-130 -232.5z" />
<glyph unicode="&#x178;" horiz-adv-x="1040" d="M178 1450q-4 14 10 14h45q12 0 15 -10l291 -807h2l569 809q5 8 14 8h54q7 0 9 -5t-1 -9l-619 -870l-102 -568q0 -12 -14 -12h-43q-14 0 -11 12l99 568zM498 1765q3 23 18.5 36.5t38.5 13.5q24 0 35 -15t8 -39q-9 -49 -55 -49q-25 0 -37.5 15t-7.5 38zM872 1765 q10 50 56 50q24 0 36 -15t9 -39q-9 -49 -58 -49q-24 0 -35 14.5t-8 38.5z" />
<glyph unicode="&#x2c6;" horiz-adv-x="544" d="M127 1232q-2 5 4 11l281 275q8 8 16 8h43q8 0 16 -8l179 -275q6 -16 -9 -16h-39q-10 0 -14 8l-158 246l-247 -246q-8 -8 -19 -8h-43q-8 0 -10 5z" />
<glyph unicode="&#x2dc;" horiz-adv-x="552" d="M150 1327q24 44 64 73.5t89 29.5q56 0 135 -46q2 -1 18.5 -11.5t22.5 -13.5t20 -9.5t26.5 -8.5t27.5 -2q35 0 57 19t43 55q7 10 19 2l22 -14q3 -2 5 -7t-1 -8q-25 -43 -63.5 -72.5t-87.5 -29.5q-48 0 -127 47q-1 1 -12.5 7t-14 7.5t-13.5 7t-15.5 7t-14.5 5.5t-16.5 5 t-15.5 2.5t-17 1.5q-66 0 -106 -76q-7 -10 -19 -2l-22 15q-11 5 -4 16z" />
<glyph unicode="&#x2000;" horiz-adv-x="976" />
<glyph unicode="&#x2001;" horiz-adv-x="1952" />
<glyph unicode="&#x2002;" horiz-adv-x="976" />
<glyph unicode="&#x2003;" horiz-adv-x="1952" />
<glyph unicode="&#x2004;" horiz-adv-x="650" />
<glyph unicode="&#x2005;" horiz-adv-x="488" />
<glyph unicode="&#x2006;" horiz-adv-x="325" />
<glyph unicode="&#x2007;" horiz-adv-x="325" />
<glyph unicode="&#x2008;" horiz-adv-x="244" />
<glyph unicode="&#x2009;" horiz-adv-x="390" />
<glyph unicode="&#x200a;" horiz-adv-x="108" />
<glyph unicode="&#x2010;" horiz-adv-x="776" d="M147 610l7 37q0 6 4.5 10.5t9.5 4.5h485q11 0 11 -15l-7 -39q0 -12 -14 -12h-483q-13 0 -13 14z" />
<glyph unicode="&#x2011;" horiz-adv-x="776" d="M147 610l7 37q0 6 4.5 10.5t9.5 4.5h485q11 0 11 -15l-7 -39q0 -12 -14 -12h-483q-13 0 -13 14z" />
<glyph unicode="&#x2012;" horiz-adv-x="776" d="M147 610l7 37q0 6 4.5 10.5t9.5 4.5h485q11 0 11 -15l-7 -39q0 -12 -14 -12h-483q-13 0 -13 14z" />
<glyph unicode="&#x2013;" horiz-adv-x="1120" d="M147 610l7 37q0 15 14 15h829q11 0 11 -15l-7 -39q0 -12 -14 -12h-829q-11 0 -11 14z" />
<glyph unicode="&#x2014;" horiz-adv-x="1798" d="M147 610l7 37q0 6 4.5 10.5t9.5 4.5h1507q16 0 13 -15l-9 -39q-3 -12 -14 -12h-1507q-11 0 -11 14z" />
<glyph unicode="&#x2018;" horiz-adv-x="358" d="M207 1110l164 344q3 10 16 10h31q5 0 8 -4t2 -10l-147 -344q-7 -10 -17 -10h-47q-6 0 -9 4.5t-1 9.5z" />
<glyph unicode="&#x2019;" horiz-adv-x="354" d="M209 1110l147 344q7 10 17 10h47q14 0 10 -14l-164 -344q-7 -10 -16 -10h-31q-6 0 -9 4.5t-1 9.5z" />
<glyph unicode="&#x201a;" horiz-adv-x="352" d="M-59 -203l147 344q4 9 14 9h48q7 0 10 -4.5t0 -10.5l-164 -344q-5 -10 -14 -10h-31q-6 0 -9 5t-1 11z" />
<glyph unicode="&#x201c;" horiz-adv-x="559" d="M205 1101q-3 5 0 9l164 344q3 10 14 10h31q15 0 8 -14l-148 -344q-3 -10 -14 -10h-45q-7 0 -10 5zM409 1101q-3 5 1 9l163 344q3 10 15 10h28q14 0 11 -14l-148 -344q-3 -10 -14 -10h-47q-6 0 -9 5z" />
<glyph unicode="&#x201d;" horiz-adv-x="555" d="M207 1110l145 344q7 10 17 10h45q6 0 9.5 -4t0.5 -10l-164 -344q-3 -10 -14 -10h-29q-6 0 -9.5 5t-0.5 9zM411.5 1101q-2.5 5 0.5 9l145 344q7 10 16 10h45q14 0 11 -14l-164 -344q-3 -10 -16 -10h-29q-6 0 -8.5 5z" />
<glyph unicode="&#x201e;" horiz-adv-x="550" d="M-63 -203l147 342q4 11 14 11h45q6 0 10 -4.5t1 -10.5l-164 -344q-3 -10 -15 -10h-28q-6 0 -9.5 5t-0.5 11zM141 -203l146 342q7 11 16 11h45q14 0 10 -15l-163 -344q-3 -10 -17 -10h-28q-6 0 -9 5t0 11z" />
<glyph unicode="&#x2022;" horiz-adv-x="579" d="M217 643q4 40 34.5 67t70.5 27t63 -29.5t16 -72.5q-6 -39 -35.5 -65.5t-70.5 -26.5q-39 0 -61.5 29t-16.5 71z" />
<glyph unicode="&#x2026;" horiz-adv-x="1021" d="M35 55q3 25 18.5 39.5t40.5 14.5q26 0 39 -17.5t10 -44.5q-9 -51 -61 -51q-26 0 -39 16.5t-8 42.5zM381 55q10 54 61 54q25 0 38.5 -18t8.5 -44q-9 -51 -61 -51q-25 0 -38 16.5t-9 42.5zM729 55q3 25 18.5 39.5t40.5 14.5q26 0 40.5 -18t9.5 -44q-9 -51 -62 -51 q-26 0 -39 16.5t-8 42.5z" />
<glyph unicode="&#x202f;" horiz-adv-x="390" />
<glyph unicode="&#x2039;" horiz-adv-x="532" d="M96.5 598q0.5 5 3.5 8l357 432q6 9 16 9h47q7 0 9 -5.5t-3 -9.5l-360 -438l205 -434q4 -15 -9 -15h-45q-10 0 -14 11l-205 434q-2 3 -1.5 8z" />
<glyph unicode="&#x203a;" horiz-adv-x="530" d="M28 150.5q-2 5.5 3 9.5l360 438l-205 434q-4 15 9 15h45q10 0 14 -11l205 -434q2 -3 1.5 -8t-3.5 -8l-357 -432q-6 -9 -16 -9h-47q-7 0 -9 5.5z" />
<glyph unicode="&#x2044;" horiz-adv-x="339" d="M-438 5q-2 5 2 11l1235 1440q5 8 16 8h25q7 0 10 -5t-2 -9l-1235 -1442q-5 -8 -16 -8h-25q-8 0 -10 5z" />
<glyph unicode="&#x205f;" horiz-adv-x="488" />
<glyph unicode="&#x2070;" horiz-adv-x="684" d="M188 1069l62 340q19 107 98.5 171.5t190.5 64.5q110 0 169 -69t37 -175l-59 -344q-19 -101 -99 -164.5t-190 -63.5q-109 0 -169 68.5t-40 171.5zM236 1061q-15 -84 31 -135.5t136 -51.5q89 0 155.5 53.5t80.5 133.5l61 346q15 87 -29.5 139.5t-138.5 52.5 q-91 0 -155.5 -53.5t-81.5 -142.5z" />
<glyph unicode="&#x2074;" horiz-adv-x="595" d="M143 1055l2 14q0 5 7 16l378 541q5 8 17 8h26q8 0 10.5 -5t-1.5 -11l-373 -531h313l33 195q0 12 14 12h21q15 0 12 -14l-33 -193h64q6 0 9.5 -3.5t2.5 -8.5l-6 -20q-3 -13 -14 -13h-64l-35 -190q0 -12 -16 -12h-21q-13 0 -10 12l33 190h-358q-11 0 -11 13z" />
<glyph unicode="&#x2075;" horiz-adv-x="645" d="M154 944q-6 8 2 12l20 19q7 5 14 -6q35 -47 77 -69.5t112 -22.5q96 0 163 62.5t87 172.5q20 105 -24 158t-136 53q-94 0 -197 -96q-7 -11 -18 -4l-25 8q-11 4 -8 16l82 377q3 10 14 10h406q15 0 12 -12l-4 -23q-3 -10 -14 -10h-377l-66 -313q95 92 207 92 q103 0 160 -69.5t35 -190.5q-25 -132 -104.5 -205.5t-198.5 -73.5q-82 0 -132.5 28.5t-86.5 86.5z" />
<glyph unicode="&#x2076;" horiz-adv-x="651" d="M195 1104l55 307q20 111 95.5 173.5t176.5 60.5q125 0 201 -86q8 -10 -2 -17l-14 -14q-11 -11 -19 0q-63 69 -170 69q-89 0 -147.5 -51.5t-75.5 -142.5l-31 -168q30 54 89 84.5t128 30.5q111 0 167.5 -66t33.5 -184q-23 -126 -100 -198.5t-187 -72.5q-111 0 -167 75.5 t-33 199.5zM242 1098q-18 -107 23.5 -164t131.5 -57q91 0 155 61t83 166q18 98 -24 149.5t-136 51.5q-92 0 -155 -55.5t-78 -151.5z" />
<glyph unicode="&#x2077;" horiz-adv-x="563" d="M178 844q-2 4 2 10l469 735h-407q-5 0 -9.5 3.5t-3.5 9.5l7 22q3 10 14 10h452q13 0 13 -12l-2 -16q0 -7 -8 -15l-474 -743q-5 -8 -16 -8h-27q-8 0 -10 4z" />
<glyph unicode="&#x2078;" horiz-adv-x="665" d="M174 1065q13 69 61 121.5t127 73.5q-62 22 -86.5 72t-13.5 116q15 87 88.5 142t175.5 55q103 0 159 -58.5t42 -144.5q-27 -141 -168 -185q69 -21 100 -75t19 -123q-20 -104 -101 -167t-190 -63q-108 0 -170 68.5t-43 167.5zM221 1061q-14 -79 32.5 -133t139.5 -54 q92 0 159 56.5t79 136.5q12 74 -34.5 121t-139.5 47q-92 0 -158 -49.5t-78 -124.5zM309 1444q-13 -72 26 -119t128 -47q91 0 148.5 48.5t68.5 121.5q13 71 -32.5 111t-125.5 40q-77 0 -139 -42t-74 -113z" />
<glyph unicode="&#x2079;" horiz-adv-x="653" d="M168 936q-5 5 2 16l16 17q9 9 17 -2q74 -90 192 -90q86 0 143 52t72 142l31 168q-30 -52 -86.5 -82.5t-120.5 -30.5q-114 0 -171 72.5t-34 198.5q23 122 99.5 185t191.5 63q106 0 160 -74t31 -199l-54 -307q-20 -109 -92 -172.5t-170 -63.5q-141 0 -227 107zM276 1395 q-20 -110 23 -167t139 -57q87 0 149 56.5t79 150.5q18 105 -23.5 162t-126.5 57q-94 0 -158 -51t-82 -151z" />
<glyph unicode="&#x2080;" horiz-adv-x="684" d="M4 25l62 340q20 107 99.5 171t188.5 64q110 0 169.5 -69t39.5 -175l-61 -344q-19 -101 -99 -164t-190 -63q-109 0 -169 68.5t-40 171.5zM51 16q-15 -83 31 -134.5t137 -51.5q89 0 155.5 53t80.5 133l61 346q15 87 -29.5 140t-138.5 53q-92 0 -156 -54.5t-79 -142.5z" />
<glyph unicode="&#x2081;" horiz-adv-x="376" d="M28.5 462.5q1.5 4.5 6.5 6.5l180 117q8 4 16 4h27q13 0 10 -12l-135 -771q-3 -12 -14 -12h-21q-13 0 -10 12l127 728l-160 -103q-11 -6 -18 4l-6 17q-4 5 -2.5 9.5z" />
<glyph unicode="&#x2082;" horiz-adv-x="610" d="M-63 -195l4 21q3 11 8 14l196 187q173 158 239.5 234t76.5 145q11 70 -28 109.5t-124 39.5q-103 0 -213 -106q-12 -8 -18 4l-10 16q-3 13 2 18q121 113 245 113q110 0 158 -59.5t35 -139.5t-87.5 -169t-236.5 -234l-170 -160h402q14 0 12 -12l-4 -23q-3 -10 -16 -10h-461 q-13 0 -10 12z" />
<glyph unicode="&#x2083;" horiz-adv-x="624" d="M-51 -100q-2 9 4 18l12 12q10 7 19 -2q64 -98 202 -98q87 0 151.5 63t80.5 150q14 79 -28.5 131.5t-135.5 52.5q-40 0 -80 -4q-14 0 -14 10v17q0 6 6 12l223 209q50 46 82 74h-377q-16 0 -10 12l4 21q3 12 14 12h435q6 0 9.5 -3t2.5 -7l-4 -15q-3 -11 -8 -14l-312 -289 q18 2 49 2q100 -2 154 -66t37 -161q-19 -108 -96.5 -180t-186.5 -72q-164 0 -233 115z" />
<glyph unicode="&#x2084;" horiz-adv-x="595" d="M-41 10l2 15q0 7 6 16l379 541q5 8 16 8h27q7 0 9 -5t-1 -10l-372 -532h313l33 195q0 12 14 12h21q15 0 12 -14l-33 -193h64q6 0 9.5 -4t0.5 -8l-4 -21q-2 -12 -15 -12h-63l-35 -191q-3 -12 -16 -12h-21q-13 0 -10 12l33 191h-359q-10 0 -10 12z" />
<glyph unicode="&#x2085;" horiz-adv-x="645" d="M-31 -100q-5 8 2 12l19 18q10 3 16 -6q32 -48 75 -70t114 -22q95 0 162 63t87 173q20 105 -24 158t-135 53q-104 0 -197 -97q-7 -11 -18 -4l-25 8q-11 4 -8 17l82 377q3 10 14 10h406q15 0 12 -12l-4 -23q-3 -10 -15 -10h-376l-66 -314q96 93 207 93q103 0 160 -70 t35 -191q-25 -131 -105.5 -204.5t-198.5 -73.5q-82 0 -133.5 29t-85.5 86z" />
<glyph unicode="&#x2086;" horiz-adv-x="651" d="M8 59l55 308q20 111 96 173t177 60q125 0 201 -86q7 -10 -2 -16l-15 -15q-3 -5 -8 -5.5t-8 5.5q-67 70 -172 70q-87 0 -145.5 -52t-75.5 -143l-33 -168q74 115 219 115q109 0 165.5 -66t33.5 -184q-23 -126 -100 -198t-187 -72t-166.5 75.5t-34.5 198.5zM55 53 q-18 -107 24 -164t132 -57q92 0 155.5 60.5t82.5 166.5q18 98 -24 149.5t-136 51.5q-90 0 -154.5 -55.5t-79.5 -151.5z" />
<glyph unicode="&#x2087;" horiz-adv-x="563" d="M-4 -188l467 733h-406q-15 0 -12 12l4 23q3 10 17 10h452q13 0 10 -12v-17q-3 -9 -8 -14l-473 -744q-5 -8 -16 -8h-27q-18 0 -8 17z" />
<glyph unicode="&#x2088;" horiz-adv-x="665" d="M-10 20q12 69 60.5 121.5t125.5 73.5q-61 23 -85.5 73t-12.5 115q15 87 88.5 142t175.5 55t159 -59t40 -144q-11 -65 -53 -113t-113 -71q68 -21 98.5 -75.5t18.5 -123.5q-19 -103 -99 -166t-190 -63q-109 0 -170.5 67.5t-42.5 167.5zM35 16q-14 -79 33 -132.5t139 -53.5 q91 0 158 56.5t81 136.5q12 74 -34.5 120.5t-139.5 46.5q-92 0 -157.5 -49.5t-79.5 -124.5zM123 399q-11 -73 26.5 -119.5t126.5 -46.5q91 0 150 48.5t70 121.5q12 71 -33.5 111.5t-124.5 40.5q-77 0 -139.5 -42.5t-75.5 -113.5z" />
<glyph unicode="&#x2089;" horiz-adv-x="653" d="M-16 -109q-8 7 2 17l14 16q10 7 16 -2q74 -90 195 -90q84 0 140 52t75 143l29 168q-29 -52 -85.5 -82.5t-121.5 -30.5q-112 0 -169 72.5t-34 197.5q23 122 99.5 185t191.5 63q106 0 159.5 -73.5t30.5 -198.5l-55 -308q-18 -108 -91.5 -171.5t-170.5 -63.5 q-140 0 -225 106zM92 350q-21 -110 22.5 -166.5t139.5 -56.5q86 0 148 56.5t77 150.5q18 105 -22 162t-125 57q-94 0 -158 -51.5t-82 -151.5z" />
<glyph unicode="&#x20ac;" horiz-adv-x="1222" d="M100 578l6 34q3 11 15 11h108l37 213h-108q-11 0 -11 14l5 31q0 6 4.5 10t9.5 4h110l21 119q39 218 183.5 344.5t365.5 126.5q110 0 210.5 -38.5t176.5 -113.5q10 -6 0 -16l-27 -33q-10 -6 -18 0q-142 139 -352 139q-193 0 -315.5 -113.5t-155.5 -303.5l-21 -111h598 q15 0 12 -14l-6 -33q-3 -12 -14 -12h-600l-37 -213h600q10 0 10 -13l-6 -32q0 -13 -14 -13h-600l-19 -100q-33 -190 51.5 -307t280.5 -117q226 0 428 160q11 11 19 -4l18 -31q3 -12 -4 -19q-211 -167 -473 -167q-220 0 -322.5 134.5t-64.5 352.5l16 98h-104q-16 0 -13 13z " />
<glyph unicode="&#x2122;" horiz-adv-x="1234" d="M221 1434l4 20q0 10 13 10h393q13 0 10 -10l-4 -20q0 -11 -12 -11h-176l-99 -561q-3 -12 -14 -12h-21q-10 0 -8 12l99 561h-175q-13 0 -10 11zM629 862l104 592q3 10 15 10h28q6 0 10 -8l125 -409l269 411q3 6 14 6h29q12 0 10 -12l-105 -590q-3 -12 -14 -12h-18 q-13 0 -11 12l95 522l-6 -10l-250 -377q-3 -6 -13 -6h-14q-6 0 -10 8l-123 392l-2 -2l-90 -527q-3 -12 -15 -12h-18q-12 0 -10 12z" />
<glyph unicode="&#x2153;" horiz-adv-x="1648" d="M76 5q-2 5 2 11l1235 1440q5 8 16 8h25q7 0 10 -5t-2 -9l-1235 -1442q-5 -8 -16 -8h-25q-8 0 -10 5zM204.5 1336.5q1.5 4.5 6.5 6.5l180 117q12 4 17 4h26q15 0 12 -12l-135 -770q-3 -12 -16 -12h-21q-13 0 -10 12l127 727l-160 -102q-9 -5 -18 4l-6 16q-4 5 -2.5 9.5z M981 104q-2 9 4 19l14 12q9 9 17 -2q67 -98 205 -98q88 0 152.5 63t78.5 150q13 79 -29.5 131.5t-136.5 52.5q-38 0 -78 -4q-13 -3 -16 10v17q4 8 8 12l221 209l82 74h-377q-13 0 -10 12l4 20q3 13 15 13h436q5 0 8 -3.5t2 -7.5l-2 -14q-6 -12 -10 -14l-312 -289q18 2 52 2 q99 -2 153 -66.5t35 -160.5q-18 -107 -95.5 -179.5t-187.5 -72.5q-162 0 -233 114z" />
<glyph unicode="&#x2154;" horiz-adv-x="1826" d="M123 682l4 20q3 13 8 15l199 184q172 161 238 236.5t77 144.5t-28.5 109.5t-124.5 40.5q-102 0 -213 -107q-12 -12 -19 2l-10 19q-3 11 4 18q121 113 244 113q110 0 157.5 -59.5t34.5 -139.5t-87.5 -170t-235.5 -234q-42 -39 -168 -159h399q15 0 12 -13l-4 -22 q-3 -10 -14 -10h-463q-13 0 -10 12zM254 5q-2 5 2 11l1235 1440q5 8 16 8h25q7 0 10 -5t-2 -9l-1235 -1442q-5 -8 -16 -8h-25q-8 0 -10 5zM1161 104q-2 9 4 19l15 12q9 9 16 -2q67 -98 205 -98q88 0 152.5 63t78.5 150q13 79 -29.5 131.5t-136.5 52.5q-37 0 -77 -4 q-14 -4 -17 10v17q4 8 8 12l222 209l81 74h-376q-14 0 -11 12l4 20q3 13 15 13h436q5 0 8 -3.5t2 -7.5l-2 -14q-6 -12 -10 -14l-311 -289q18 2 51 2q99 -2 153 -66.5t35 -160.5q-18 -108 -95.5 -180t-186.5 -72q-163 0 -234 114z" />
<glyph unicode="&#x215b;" horiz-adv-x="1628" d="M86 5q-2 5 2 11l1235 1440q5 8 16 8h25q7 0 10 -5t-2 -9l-1235 -1442q-5 -8 -16 -8h-25q-8 0 -10 5zM200.5 1336.5q1.5 4.5 6.5 6.5l180 117q12 4 16 4h27q15 0 12 -12l-135 -770q-3 -12 -16 -12h-21q-13 0 -10 12l127 727l-160 -102q-9 -5 -18 4l-6 16q-4 5 -2.5 9.5z M981 225q13 69 61 121.5t127 73.5q-62 22 -86.5 72t-13.5 116q17 87 89.5 142t174.5 55q103 0 159 -58.5t42 -144.5q-27 -140 -168 -184q69 -21 100 -75.5t19 -123.5q-19 -103 -100 -166t-191 -63q-107 0 -168.5 67.5t-44.5 167.5zM1028 221q-14 -79 32.5 -132.5 t139.5 -53.5q92 0 159 56t79 136q14 73 -33 120.5t-141 47.5q-92 0 -157 -49.5t-79 -124.5zM1116 604q-13 -72 26 -119t128 -47q91 0 148.5 48.5t70.5 121.5q12 71 -34 111.5t-126 40.5q-77 0 -139 -42.5t-74 -113.5z" />
<glyph unicode="&#x215c;" horiz-adv-x="1888" d="M125 774q-2 9 4 19l14 12q3 5 8.5 4.5t8.5 -6.5q69 -96 205 -96q88 0 152.5 62t78.5 149q13 79 -29.5 131.5t-136.5 52.5q-38 0 -78 -4q-14 0 -16 10v16q2 8 8 13l221 209q17 16 84 73h-379q-13 0 -10 13l4 20q2 12 15 12h436q5 0 8 -3t2 -7l-2 -14l-3 -6t-3.5 -6 t-3.5 -3l-312 -286h52q99 -2 153 -67t35 -161q-18 -107 -95.5 -179.5t-187.5 -72.5q-161 0 -233 115zM328 5q-2 5 2 11l1235 1440q5 8 16 8h25q7 0 10 -5t-2 -9l-1235 -1442q-5 -8 -17 -8h-24q-8 0 -10 5zM1243 225q13 69 61.5 121.5t127.5 73.5q-62 22 -87 72t-14 116 q17 87 89.5 142t174.5 55q103 0 159 -58.5t42 -144.5q-27 -140 -168 -184q69 -21 100 -75.5t19 -123.5q-19 -103 -100 -166t-191 -63q-107 0 -168.5 67.5t-44.5 167.5zM1290 221q-14 -79 32.5 -132.5t139.5 -53.5q92 0 159 56t79 136q14 73 -33 120.5t-141 47.5 q-92 0 -157 -49.5t-79 -124.5zM1378 604q-13 -72 26 -119t128 -47q91 0 148.5 48.5t70.5 121.5q12 71 -34 111.5t-126 40.5q-77 0 -139 -42.5t-74 -113.5z" />
<glyph unicode="&#x215d;" horiz-adv-x="1816" d="M147 774q-4 7 3 14l20 17q7 5 14 -6q35 -47 77 -69.5t112 -22.5q96 0 163 62.5t87 172.5q20 105 -24 158t-136 53q-94 0 -197 -96q-7 -11 -18 -4l-25 8q-11 4 -8 16l82 377q3 10 14 10h406q15 0 12 -12l-4 -22q-3 -11 -14 -11h-377l-66 -313q95 92 207 92 q103 0 160 -69.5t35 -190.5q-25 -132 -104.5 -205.5t-198.5 -73.5q-82 0 -133 28.5t-87 86.5zM279 5q-3 5 2 11l1235 1440q5 8 16 8h24q7 0 10.5 -5t-1.5 -9l-1235 -1442q-5 -8 -17 -8h-24q-7 0 -10 5zM1171 225q13 69 61.5 121.5t127.5 73.5q-62 22 -86.5 72t-13.5 116 q17 87 89.5 142t174.5 55q103 0 158.5 -58.5t41.5 -144.5q-27 -140 -168 -184q69 -21 100 -75.5t19 -123.5q-19 -103 -100 -166t-191 -63q-107 0 -168.5 67.5t-44.5 167.5zM1219 221q-14 -79 32.5 -132.5t139.5 -53.5q92 0 158.5 56t78.5 136q14 73 -33 120.5t-141 47.5 q-92 0 -156.5 -49.5t-78.5 -124.5zM1307 604q-13 -72 25.5 -119t127.5 -47q91 0 148.5 48.5t70.5 121.5q12 71 -33.5 111.5t-125.5 40.5q-77 0 -139 -42.5t-74 -113.5z" />
<glyph unicode="&#x215e;" horiz-adv-x="1681" d="M121 5q-3 5 2 11l1235 1440q5 8 16 8h25q7 0 10 -5t-2 -9l-1235 -1442q-5 -8 -16 -8h-25q-7 0 -10 5zM168 686l469 733h-406q-15 0 -12 13l4 22q3 10 15 10h452q12 0 12 -12l-2 -16q0 -3 -6 -15l-475 -743q-3 -8 -14 -8h-29q-14 0 -8 16zM1034 225q13 69 61.5 121.5 t127.5 73.5q-62 22 -87 72t-14 116q17 87 89.5 142t174.5 55q103 0 159 -58.5t42 -144.5q-27 -140 -168 -184q69 -21 100 -75.5t19 -123.5q-19 -103 -100 -166t-191 -63q-107 0 -168.5 67.5t-44.5 167.5zM1081 221q-14 -79 32.5 -132.5t139.5 -53.5q92 0 159 56t79 136 q14 73 -33 120.5t-141 47.5q-92 0 -157 -49.5t-79 -124.5zM1169 604q-13 -72 26 -119t128 -47q91 0 148.5 48.5t70.5 121.5q12 71 -34 111.5t-126 40.5q-77 0 -139 -42.5t-74 -113.5z" />
<glyph unicode="&#x2190;" horiz-adv-x="1271" d="M131 692l4 31q4 12 8 16l369 330q9 9 16 -2l19 -23q5 -3 5 -8t-5 -8l-324 -289h946q11 0 11 -12l-4 -37q0 -12 -17 -12h-948l223 -285q9 -9 -2 -16l-26 -25q-8 -8 -19 0l-252 324q-4 4 -4 16z" />
<glyph unicode="&#x2191;" horiz-adv-x="813" d="M135 915q-5 8 2 19l369 328q6 6 16 6h29q11 0 14 -8l254 -326q5 -11 0 -19l-28 -24q-9 -9 -17 2l-225 287l-174 -1002q0 -5 -4.5 -8.5t-10.5 -3.5h-34q-14 0 -11 14l174 996l-319 -283q-7 -7 -18 0z" />
<glyph unicode="&#x2192;" horiz-adv-x="1271" d="M154 692l6 39q3 12 16 12h948l-223 283q-7 7 2 16l27 27q8 5 18 -2l252 -324q4 -4 4 -16l-4 -31q0 -8 -8 -16l-369 -330q-10 -6 -18 2l-19 23q-7 10 2 16l324 289h-946q-15 0 -12 12z" />
<glyph unicode="&#x2193;" horiz-adv-x="813" d="M63 489q-8 11 0 19l25 24q10 8 18 0l224 -286l174 1001q0 5 5 9t11 4h33q13 0 10 -15l-174 -995l322 285q8 6 18 0l16 -23q5 -8 -2 -18l-368 -330q-6 -6 -17 -6h-28q-11 0 -15 8z" />
<glyph unicode="&#x2196;" horiz-adv-x="980" d="M133 602l80 465q0 4 10 14l25 25l18 6h436q16 0 13 -14l-6 -35q-3 -10 -15 -10h-385l545 -705q9 -12 0 -18l-29 -29q-9 -9 -16 2l-549 705l-72 -406q0 -12 -14 -12h-31q-12 0 -10 12z" />
<glyph unicode="&#x2197;" horiz-adv-x="991" d="M66 328q-7 9 2 18l794 707h-381q-15 0 -12 12l6 35q3 12 14 12h439q10 0 14 -8l14 -21q5 -7 5 -16l-80 -465q0 -12 -13 -12h-30q-5 0 -9.5 4t-3.5 10l72 404l-795 -707q-8 -5 -18 2z" />
<glyph unicode="&#x2198;" horiz-adv-x="966" d="M172 1061q-8 10 0 18l31 29q9 7 18 -2l545 -707l72 406q0 12 16 12h29q13 0 10 -14l-78 -461q0 -7 -10 -14l-25 -25q-8 -4 -16 -4h-440q-11 0 -11 12l4 33q0 12 15 12h387z" />
<glyph unicode="&#x2199;" horiz-adv-x="978" d="M94 344l80 461q0 12 14 12h31q12 0 10 -12l-69 -402l792 705q12 8 19 -2l20 -25q7 -9 -2 -18l-794 -707h383q13 0 10 -12l-4 -33q0 -12 -15 -12h-440q-11 0 -14 6l-17 21q-4 6 -4 18z" />
<glyph unicode="&#x25fc;" horiz-adv-x="1054" d="M0 0v1055h1055v-1055h-1055z" />
<glyph horiz-adv-x="372" d="M63 12l183 1028q0 5 4 9t10 4h39q13 0 10 -15l-182 -1026q0 -12 -14 -12h-39q-14 0 -11 12zM272 1341q4 25 21.5 39.5t40.5 14.5q26 0 40 -17.5t9 -42.5q-3 -25 -19.5 -39t-41.5 -14t-39 17t-11 42z" />
<glyph horiz-adv-x="1038" d="M90 387l55 305q32 173 160 277t307 104q161 0 346 -82q9 -3 9 -14l-170 -965q0 -12 -15 -12h-34q-11 0 -11 12l17 113q-166 -145 -348 -145q-177 0 -264.5 109t-51.5 298zM154 379q-30 -166 41 -253t227 -87q171 0 344 164l131 747q-153 64 -289 64q-153 0 -262 -90.5 t-135 -237.5z" />
<glyph horiz-adv-x="1038" d="M90 387l55 305q32 173 160 277t307 104q161 0 346 -82q9 -3 9 -14l-170 -965q0 -12 -15 -12h-34q-11 0 -11 12l17 113q-166 -145 -348 -145q-177 0 -264.5 109t-51.5 298zM154 379q-30 -166 41 -253t227 -87q171 0 344 164l131 747q-153 64 -289 64q-153 0 -262 -90.5 t-135 -237.5zM564 1232q-2 5 3 11l211 275q8 8 17 8h45q7 0 10 -5.5t-2 -11.5l-225 -274q-8 -8 -17 -8h-33q-7 0 -9 5z" />
<glyph horiz-adv-x="1038" d="M90 387l55 305q32 173 160 277t307 104q161 0 346 -82q9 -3 9 -14l-170 -965q0 -12 -15 -12h-34q-11 0 -11 12l17 113q-166 -145 -348 -145q-177 0 -264.5 109t-51.5 298zM154 379q-30 -166 41 -253t227 -87q171 0 344 164l131 747q-153 64 -289 64q-153 0 -262 -90.5 t-135 -237.5zM373 1232q-2 5 4 11l280 275q8 8 17 8h43q8 0 16 -8l178 -275q6 -16 -8 -16h-39q-10 0 -14 8l-158 246l-248 -246q-8 -8 -18 -8h-43q-8 0 -10 5z" />
<glyph horiz-adv-x="1038" d="M90 387l55 305q32 173 160 277t307 104q161 0 346 -82q9 -3 9 -14l-170 -965q0 -12 -15 -12h-34q-11 0 -11 12l17 113q-166 -145 -348 -145q-177 0 -264.5 109t-51.5 298zM154 379q-30 -166 41 -253t227 -87q171 0 344 164l131 747q-153 64 -289 64q-153 0 -262 -90.5 t-135 -237.5zM438 1339q4 23 20 36.5t38 13.5q24 0 36 -15.5t7 -40.5q-3 -22 -19 -34.5t-37 -12.5q-23 0 -35.5 14t-9.5 39zM782 1339q3 23 19 36.5t37 13.5q24 0 36 -15.5t9 -40.5q-9 -47 -58 -47q-23 0 -34.5 14t-8.5 39z" />
<glyph horiz-adv-x="1038" d="M90 387l55 305q32 173 160 277t307 104q161 0 346 -82q9 -3 9 -14l-170 -965q0 -12 -15 -12h-34q-11 0 -11 12l17 113q-166 -145 -348 -145q-177 0 -264.5 109t-51.5 298zM154 379q-30 -166 41 -253t227 -87q171 0 344 164l131 747q-153 64 -289 64q-153 0 -262 -90.5 t-135 -237.5zM501.5 1520.5q2.5 5.5 8.5 5.5h43q9 0 16 -10l105 -273q3 -6 -0.5 -11t-9.5 -5h-27q-11 0 -16 10l-119 272q-3 6 -0.5 11.5z" />
<glyph horiz-adv-x="1038" d="M90 387l55 305q32 173 160 277t307 104q161 0 346 -82q9 -3 9 -14l-170 -965q0 -12 -15 -12h-34q-11 0 -11 12l17 113q-166 -145 -348 -145q-177 0 -264.5 109t-51.5 298zM154 379q-30 -166 41 -253t227 -87q171 0 344 164l131 747q-153 64 -289 64q-153 0 -262 -90.5 t-135 -237.5zM475 1391q15 89 77 138.5t153 49.5q77 0 124.5 -55.5t32.5 -132.5q-15 -89 -76 -139t-149 -50q-78 0 -126.5 55.5t-35.5 133.5zM526 1391q-9 -62 24.5 -102t96.5 -40q62 0 108 40t58 102q11 63 -21.5 102t-95.5 39q-65 0 -112.5 -38.5t-57.5 -102.5z" />
<glyph horiz-adv-x="1038" d="M90 387l55 305q32 173 160 277t307 104q161 0 346 -82q9 -3 9 -14l-170 -965q0 -12 -15 -12h-34q-11 0 -11 12l17 113q-166 -145 -348 -145q-177 0 -264.5 109t-51.5 298zM154 379q-30 -166 41 -253t227 -87q171 0 344 164l131 747q-153 64 -289 64q-153 0 -262 -90.5 t-135 -237.5zM391 1327q24 44 64.5 73.5t89.5 29.5q56 0 135 -46q2 -1 18.5 -11.5t22.5 -13.5t20 -9.5t26.5 -8.5t27.5 -2q35 0 57 19t43 55q6 10 18 2l23 -14q3 -2 5 -7t-1 -8q-25 -43 -64 -72.5t-88 -29.5q-47 0 -126 47q-1 1 -12.5 7t-14 7.5t-13.5 7t-15.5 7t-14.5 5.5 t-16.5 5t-15.5 2.5t-17 1.5q-67 0 -107 -76q-6 -10 -18 -2l-23 15q-11 5 -4 16z" />
<glyph horiz-adv-x="1722" d="M88 387l57 305q32 171 161.5 276t305.5 105q85 0 161 -32t161 -99q79 62 167.5 96.5t211.5 34.5q181 0 275 -102.5t61 -276.5l-35 -192q-2 -10 -15 -10h-718l-50 -279q38 -86 105.5 -130t202.5 -44q108 0 201 40t161 105q9 12 17 0l20 -28q7 -10 -2 -19 q-68 -68 -174 -112.5t-232 -44.5q-230 0 -317 145l-20 -113q-3 -12 -17 -12h-31q-10 0 -10 12l19 113q-173 -145 -351 -145q-177 0 -264 109t-51 298zM154 379q-32 -166 39 -253t227 -87q174 0 344 164l127 694q-140 117 -285 117q-153 0 -261 -90.5t-136 -237.5zM891 549 h665l29 151q29 147 -48.5 230.5t-229.5 83.5q-64 0 -118 -10t-98.5 -32t-72.5 -39.5t-68 -47.5z" />
<glyph d="M102 446l101 574q39 219 182 342t346 123q204 0 305.5 -125.5t63.5 -345.5l-105 -576q-38 -215 -178.5 -336.5t-343.5 -121.5q-205 0 -307 125t-64 341zM168 438q-33 -187 50.5 -290t258.5 -103q176 0 299 105.5t156 291.5l102 576q33 192 -49 296.5t-258 104.5 q-181 0 -303.5 -106t-155.5 -299z" />
<glyph d="M156 12l8 39q3 12 14 12h297l234 1315l-322 -194q-13 -6 -18 6l-15 33q-6 6 6 14l367 223q12 4 16 4h33q13 0 10 -12l-243 -1389h317q10 0 10 -14l-6 -37q0 -12 -14 -12h-682q-15 0 -12 12z" />
<glyph d="M33 12l4 29q2 8 10 16l373 353q105 98 159 149.5t130.5 127t115.5 123t81.5 106.5t64 109t30.5 101q5 43 3.5 85t-20.5 80t-50 67t-84 46t-121 17q-212 0 -412 -207q-9 -9 -16 5l-22 30q-4 11 2 19q210 217 452 217q127 0 210 -53t112 -134.5t12 -179.5 q-8 -42 -21.5 -81.5t-41 -85.5t-49.5 -80t-71 -89.5t-79 -88.5t-100 -102t-107.5 -105t-126.5 -121l-328 -302h768q11 0 11 -12l-7 -39q0 -12 -14 -12h-858q-10 0 -10 12z" />
<glyph d="M55 217q-3 9 4 16l29 25q3 4 8 3t8 -7q67 -107 145.5 -159t213.5 -52q173 0 292 106.5t150 284.5q31 174 -55.5 274.5t-274.5 100.5q-46 0 -108 -8q-13 0 -16 10l-7 20q-3 9 5 17l577 553h-711q-13 0 -10 14l4 37q3 12 17 12h796q11 0 11 -12l-5 -27q-2 -10 -8 -16 l-571 -547h29q223 1 325 -117.5t66 -318.5q-34 -203 -173 -324.5t-339 -121.5q-100 0 -176.5 30t-127 79t-98.5 128z" />
<glyph d="M82 414l4 26q0 9 6 15l742 1001q3 8 14 8h49q7 0 9 -5t-1 -9l-729 -985h610l64 356q0 13 14 13h37q6 0 10.5 -3.5t3.5 -9.5l-63 -356h152q10 0 10 -14l-6 -39q0 -5 -4.5 -9t-10.5 -4h-153l-68 -387q0 -12 -14 -12h-41q-13 0 -10 12l69 387h-684q-10 0 -10 15z" />
<glyph d="M96 213q-5 11 2 18l31 25q3 3 6.5 3.5t6 -1.5t3.5 -6q57 -104 134.5 -154.5t199.5 -50.5q175 0 297.5 116.5t157.5 317.5q35 203 -43 300.5t-242 97.5q-113 0 -203.5 -39.5t-179.5 -114.5q-8 -8 -16 -4l-39 14q-12 4 -8 17l151 702q3 10 15 10h725q5 0 9 -3t3 -9l-8 -41 q-2 -10 -15 -10h-675l-129 -598q91 72 182 106.5t196 34.5q188 0 284 -120t56 -349q-38 -224 -179.5 -357.5t-342.5 -133.5q-139 0 -228 58t-151 171z" />
<glyph d="M133 446l103 590q37 206 182.5 327.5t326.5 121.5q222 0 355 -154q7 -10 2 -18l-29 -29q-7 -7 -18 0q-111 137 -314 137q-159 0 -284.5 -107t-155.5 -282l-61 -344q47 80 120.5 132.5t145 72.5t145.5 20q202 0 297.5 -123t57.5 -346q-38 -215 -178 -339.5t-339 -124.5 q-196 0 -294.5 127.5t-61.5 338.5zM197 440q-31 -187 49.5 -292t249.5 -105q172 0 291 110t153 300q35 193 -42.5 294t-254.5 101q-69 0 -138 -22.5t-132 -66t-109 -117.5t-61 -167z" />
<glyph d="M195 16l874 1385h-786q-11 0 -11 12l7 39q0 12 14 12h860q10 0 10 -12l-4 -25q0 -8 -6 -14l-887 -1405q-3 -8 -14 -8h-49q-18 0 -8 16z" />
<glyph d="M84 414q22 130 117 227.5t239 130.5q-119 40 -167 132.5t-25 215.5q28 162 158 263.5t323 101.5q194 0 291.5 -107.5t69.5 -269.5q-21 -122 -101.5 -212t-216.5 -128q129 -33 191 -135.5t38 -231.5q-33 -188 -175.5 -304.5t-354.5 -116.5q-142 0 -238 57t-133.5 154.5 t-15.5 222.5zM147 406q-27 -159 57 -261t271 -102q189 0 312 104.5t151 264.5q25 143 -65.5 234t-270.5 91q-177 0 -302.5 -93.5t-152.5 -237.5zM311 1112q-16 -89 9 -158t98.5 -111t189.5 -42q177 0 285 88t131 225q24 145 -56.5 226t-242.5 81t-275 -82.5t-139 -226.5z " />
<glyph d="M94 209q-5 11 2 18l29 27q12 4 18 -2q121 -209 320 -209q159 0 282.5 107t153.5 282l62 344q-71 -117 -182 -171t-228 -54q-200 0 -296.5 124.5t-57.5 344.5q38 214 178 339.5t336 125.5q197 0 295 -127.5t61 -341.5l-102 -588q-36 -206 -179 -327t-327 -121 q-231 0 -365 229zM262 1014q-33 -195 43.5 -296.5t251.5 -101.5q53 0 108.5 14t110 44t99 72.5t77.5 104.5t45 136l7 35q30 190 -49 294.5t-248 104.5q-172 0 -291.5 -108.5t-153.5 -298.5z" />
<glyph horiz-adv-x="684" d="M41 229l61 340q19 107 98.5 171.5t190.5 64.5t170 -69.5t37 -174.5l-61 -344q-17 -101 -97 -164t-190 -63q-109 0 -169 68.5t-40 170.5zM88 221q-15 -83 31 -134.5t137 -51.5q89 0 155.5 53t80.5 133l61 346q15 87 -29.5 140t-138.5 53q-91 0 -156 -54t-82 -143z" />
<glyph horiz-adv-x="376" d="M63.5 667q1.5 5 6.5 7l180 117q12 4 16 4h27q15 0 12 -13l-135 -770q-3 -12 -16 -12h-21q-13 0 -10 12l127 727l-160 -102q-9 -5 -18 4l-6 16q-4 5 -2.5 10z" />
<glyph horiz-adv-x="610" d="M-29 14l4 19q1 6 9 14l198 184q173 160 239 235t77 144q11 70 -29 110t-125 40q-102 0 -213 -107q-12 -8 -18 4l-11 17q-3 13 4 18q121 113 244 113q110 0 158 -59.5t35 -139.5t-87.5 -169t-236.5 -234l-168 -158h400q14 0 12 -12l-4 -23q-3 -10 -15 -10h-462 q-14 0 -11 14z" />
<glyph horiz-adv-x="624" d="M-14 104q-2 9 4 19l14 12q9 9 16 -2q67 -98 205 -98q88 0 153 63t79 150q13 79 -29.5 131.5t-136.5 52.5q-38 0 -78 -4q-13 -3 -16 10v17q4 8 8 12l221 209l82 74h-377q-13 0 -10 12l4 20q3 13 14 13h436q5 0 8.5 -3.5t2.5 -7.5l-2 -14q-6 -11 -11 -14l-311 -289 q18 2 51 2q99 -2 153.5 -66.5t35.5 -160.5q-18 -107 -95.5 -179.5t-187.5 -72.5q-162 0 -233 114z" />
<glyph horiz-adv-x="595" d="M-4 215l2 14l6 17l381 540q3 9 16 9h27q7 0 9 -5.5t-3 -9.5l-371 -532h312l35 194q0 5 4 9t10 4h20q14 0 11 -15l-31 -192h63q6 0 9.5 -3.5t1.5 -8.5l-4 -21q-2 -12 -15 -12h-65l-35 -191q0 -12 -14 -12h-21q-13 0 -10 12l33 191h-359q-12 0 -12 12z" />
<glyph horiz-adv-x="645" d="M6 104q-5 8 2 15l21 16q8 3 16 -6q30 -47 73 -69.5t113 -22.5q96 0 163 62.5t87 172.5q20 105 -23 158t-136 53q-101 0 -197 -96q-8 -12 -16 -4l-27 8q-12 4 -6 17l80 376q3 11 16 11h406q5 0 9 -3.5t1 -9.5l-4 -22q-2 -10 -15 -10h-374l-68 -314q95 92 207 92 q104 0 161 -69.5t33 -190.5q-25 -132 -104.5 -205t-196.5 -73q-84 0 -134.5 28t-86.5 86z" />
<glyph horiz-adv-x="651" d="M45 264l55 307q20 111 96 173.5t177 60.5q124 0 200 -86q8 -10 -2 -17l-14 -14q-3 -5 -8 -5.5t-8 5.5q-67 70 -172 70q-87 0 -146 -52t-76 -143l-32 -168q30 54 89.5 84.5t129.5 30.5q109 0 165 -66t33 -184q-23 -126 -99.5 -198t-186.5 -72t-166.5 75.5t-34.5 198.5z M92 258q-18 -107 24 -164t132 -57q92 0 155 60.5t82 166.5q18 98 -23.5 149.5t-135.5 51.5q-90 0 -154.5 -55.5t-79.5 -151.5z" />
<glyph horiz-adv-x="563" d="M31 16l469 734h-408q-5 0 -9 3.5t-1 8.5l4 22q4 11 14 11h453q12 0 12 -13l-2 -16q0 -2 -6 -14l-475 -744q-5 -8 -16 -8h-27q-18 0 -8 16z" />
<glyph horiz-adv-x="665" d="M27 225q13 69 61 121.5t127 73.5q-62 22 -86.5 72t-13.5 116q17 87 89.5 142t174.5 55q103 0 159 -58.5t42 -144.5q-27 -140 -168 -184q69 -21 99.5 -75.5t18.5 -123.5q-19 -103 -99.5 -166t-190.5 -63q-107 0 -168.5 67.5t-44.5 167.5zM74 221q-14 -79 32.5 -132.5 t139.5 -53.5q92 0 158.5 56t78.5 136q14 73 -33 120.5t-141 47.5q-92 0 -156.5 -49.5t-78.5 -124.5zM162 604q-13 -72 25.5 -119t127.5 -47q91 0 149 48.5t71 121.5q12 71 -34 111.5t-126 40.5q-77 0 -139 -42.5t-74 -113.5z" />
<glyph horiz-adv-x="653" d="M20 96q-5 5 3 17l16 16q7 7 16 -2q74 -90 193 -90q86 0 143 52t72 142l31 168q-30 -52 -86.5 -82t-120.5 -30q-114 0 -171 72t-34 198q23 122 99.5 185t191.5 63q106 0 159.5 -74t30.5 -199l-53 -307q-20 -109 -92 -172t-170 -63q-145 0 -228 106zM129 555 q-20 -110 23 -166.5t139 -56.5q87 0 148.5 56.5t78.5 150.5q18 105 -23 162t-126 57q-94 0 -158 -51.5t-82 -151.5z" />
<glyph horiz-adv-x="684" d="M158 899l61 340q19 107 98.5 171.5t190.5 64.5t170 -69.5t37 -174.5l-60 -344q-19 -101 -98.5 -164.5t-189.5 -63.5q-109 0 -169 68.5t-40 171.5zM205 891q-15 -83 31 -134.5t137 -51.5q89 0 155 53t80 133l62 346q15 87 -29.5 140t-138.5 53q-91 0 -156 -54t-82 -143z " />
<glyph horiz-adv-x="376" d="M179.5 1336.5q1.5 4.5 6.5 6.5l181 117q12 4 16 4h27q15 0 12 -12l-135 -770q-3 -12 -17 -12h-20q-13 0 -10 12l127 727l-160 -102q-10 -5 -19 4l-6 16q-4 5 -2.5 9.5z" />
<glyph horiz-adv-x="610" d="M90 682l4 20q3 13 8 15l199 184q172 161 238 236.5t77 144.5t-28.5 109.5t-124.5 40.5q-102 0 -213 -107q-12 -12 -19 2l-10 19q-3 11 4 18q121 113 244 113q110 0 158 -59.5t35 -139.5t-87.5 -169.5t-236.5 -234.5q-42 -39 -168 -159h399q16 0 13 -13l-4 -22 q-3 -10 -15 -10h-463q-13 0 -10 12z" />
<glyph horiz-adv-x="624" d="M104 774q-2 8 5 19l14 12q3 5 8 4.5t8 -6.5q69 -96 205 -96q88 0 152.5 62t78.5 149q13 80 -29 132t-136 52q-38 0 -78 -4q-15 0 -17 10v16q2 6 9 13l221 209q17 16 84 73h-379q-13 0 -10 13l4 20q2 12 14 12h436q5 0 8.5 -3t2.5 -7l-3 -14l-3 -6t-3.5 -6t-3.5 -3 l-311 -286h51q99 -2 153.5 -67t35.5 -161q-18 -107 -95.5 -179.5t-187.5 -72.5q-162 0 -234 115z" />
<glyph horiz-adv-x="595" d="M115 885l2 14q0 7 6 16l379 541q5 8 16 8h27q7 0 10 -5t-2 -9l-373 -532h314l32 194q0 5 4.5 8.5t10.5 3.5h20q15 0 12 -14l-32 -192h63q6 0 10 -4t2 -9l-6 -20q-3 -13 -14 -13h-64l-34 -190q0 -12 -17 -12h-20q-13 0 -10 12l32 190h-358q-10 0 -10 13z" />
<glyph horiz-adv-x="645" d="M125 774q-5 7 2 14l20 17q8 5 15 -6q35 -48 76.5 -70t111.5 -22q96 0 163 62.5t87 172.5q20 105 -24 158t-136 53q-55 0 -100.5 -25t-95.5 -71q-8 -12 -19 -4l-24 8q-11 4 -8 16l81 377q2 10 15 10h405q6 0 10 -3t3 -9l-5 -22q-3 -11 -14 -11h-377l-65 -313q95 92 207 92 q103 0 159.5 -69.5t34.5 -190.5q-25 -132 -104.5 -205.5t-198.5 -73.5q-82 0 -132.5 28.5t-86.5 86.5z" />
<glyph horiz-adv-x="651" d="M164 934l55 305q20 112 96 175t177 61q124 0 200 -86q8 -10 -2 -17l-14 -14q-11 -11 -19 0q-63 69 -170 69q-89 0 -147.5 -51.5t-75.5 -142.5l-31 -168q30 54 89.5 84.5t128.5 30.5q111 0 167 -66t33 -184q-23 -126 -99.5 -198.5t-186.5 -72.5q-111 0 -167.5 76 t-33.5 199zM211 928q-18 -107 24 -164t132 -57q91 0 154.5 61t82.5 166q18 98 -24 149.5t-136 51.5q-92 0 -155 -55.5t-78 -151.5z" />
<glyph horiz-adv-x="563" d="M150 686l468 733h-405q-15 0 -12 13l4 22q3 10 14 10h453q12 0 12 -12l-2 -16q0 -3 -6 -15l-475 -743q-3 -8 -15 -8h-28q-14 0 -8 16z" />
<glyph horiz-adv-x="665" d="M143 895q13 69 61.5 121.5t127.5 73.5q-62 22 -87 72t-14 116q15 87 89 142t176 55q103 0 158.5 -58.5t41.5 -144.5q-27 -141 -168 -185q69 -21 100 -75t19 -123q-20 -104 -101 -167t-190 -63q-108 0 -170 68.5t-43 167.5zM190 891q-14 -79 32.5 -132.5t139.5 -53.5 q92 0 159 56t79 136q12 74 -34.5 121t-139.5 47q-92 0 -158 -49.5t-78 -124.5zM279 1274q-13 -72 25.5 -119t127.5 -47q91 0 148.5 48.5t68.5 121.5q13 71 -32 111.5t-125 40.5q-77 0 -139 -42.5t-74 -113.5z" />
<glyph horiz-adv-x="653" d="M137 766q-5 5 2 16l17 17q9 9 16 -2q74 -90 193 -90q85 0 141.5 52t73.5 142l30 168q-30 -52 -86.5 -82.5t-120.5 -30.5q-114 0 -170.5 72.5t-33.5 198.5q23 122 99 185t191 63q106 0 160 -74t31 -199l-53 -307q-20 -109 -92 -172.5t-170 -63.5q-142 0 -228 107z M246 1225q-20 -110 23 -167t139 -57q87 0 148.5 56.5t78.5 150.5q18 105 -23.5 162t-126.5 57q-94 0 -157.5 -51t-81.5 -151z" />
<glyph d="M180 365l68 364q27 148 138.5 243t277.5 101l24 146q0 12 14 12h27q13 0 10 -14l-24 -144q155 -12 280 -108q9 -9 2 -19l-22 -28q-9 -9 -17 -3q-121 99 -280 99q-147 0 -245 -81.5t-122 -209.5l-65 -365q-25 -141 46.5 -229t223.5 -88q76 0 167.5 31.5t160.5 87.5 q3 4 8 3t8 -7l19 -31q3 -10 -5 -16q-73 -58 -169.5 -91.5t-182.5 -33.5l-22 -136q0 -4 -5 -8t-10 -4h-28q-14 0 -11 14l25 136q-163 13 -240.5 119.5t-50.5 259.5z" />
<glyph d="M61 252q-7 9 2 18l117 107q-88 131 -53 334q38 200 168 327l-78 99q-7 9 2 18l29 27q10 10 16 0l80 -101q149 117 334 117q194 0 297 -119l117 105q8 8 18 -2l20 -25q8 -8 -2 -18l-118 -105q88 -138 55 -332q-38 -199 -170 -331l80 -99q6 -8 -4 -18l-27 -27q-11 -8 -18 2 l-78 101q-152 -117 -334 -117q-191 0 -299 117l-115 -103q-10 -10 -18 2zM186 705q-35 -195 57.5 -314t272.5 -119q182 0 320 122.5t170 314.5q32 188 -62.5 310t-269.5 122q-181 0 -318.5 -123t-169.5 -313z" />
<glyph d="M39 176q-7 10 0 21l24 26q9 13 19 0q89 -94 185.5 -137t215.5 -43q182 0 306.5 86t150.5 240q11 61 -3.5 110.5t-44 83.5t-84 64.5t-106 49.5t-127.5 42q-49 14 -90 30.5t-83 38.5t-73 47.5t-59 59t-41 71.5t-19.5 85.5t5.5 101.5q28 158 154.5 242.5t308.5 89.5l24 153 q0 4 5 8.5t10 4.5h35q16 0 10 -15l-27 -151q116 -4 207 -45.5t182 -122.5q10 -8 2 -19l-28 -30q-6 -10 -19 0q-166 153 -385 153q-105 0 -189 -27t-145.5 -92t-78.5 -163q-11 -64 1.5 -116t40 -88t75 -66t94.5 -49t112 -38q80 -24 141 -49t118.5 -62t91.5 -80t49.5 -102.5 t3.5 -130.5q-32 -181 -174.5 -279.5t-360.5 -98.5l-31 -166q0 -13 -14 -13h-33q-15 0 -12 15l31 168q-199 16 -375 192z" />
<glyph d="M55 578l6 34q3 11 15 11h108l35 213h-106q-11 0 -11 14l4 31q0 6 5 10t10 4h110l21 119q37 218 180.5 344.5t364.5 126.5q110 0 210.5 -38.5t176.5 -113.5q6 -6 0 -16l-27 -33q-10 -6 -18 0q-142 139 -353 139q-191 0 -313.5 -113.5t-155.5 -303.5l-20 -111h596 q15 0 12 -14l-6 -33q-3 -12 -14 -12h-598l-37 -213h598q10 0 10 -13l-4 -32q0 -13 -16 -13h-596l-21 -100q-32 -190 52 -307t280 -117q224 0 426 160q11 11 18 -4l17 -31q6 -11 -2 -19q-211 -167 -473 -167q-219 0 -320 134.5t-63 352.5l16 98h-104q-16 0 -13 13z" />
<glyph d="M68 12l6 33q0 12 14 12q66 9 111.5 67.5t62.5 162.5l80 456h-131q-15 0 -12 13l8 37q3 10 14 10h133l58 330q24 147 135 249.5t272 102.5q88 0 160.5 -34t118.5 -95q3 -9 -2 -19l-25 -22q-8 -12 -18 2q-86 108 -240 108q-134 0 -225 -88t-113 -209l-55 -325h418 q17 0 12 -12l-6 -37q-3 -11 -15 -11h-419l-82 -462q-28 -164 -123 -220h678q13 0 10 -14l-4 -35q0 -12 -15 -12h-794q-12 0 -12 12z" />
<glyph d="M238 1450q-4 14 10 14h43q9 0 12 -10l281 -817l555 819q3 8 14 8h47q6 0 8 -5t-2 -9l-563 -827h219q15 0 12 -15l-6 -35q-2 -10 -14 -10h-246l-28 -172h241q15 0 15 -12l-9 -35q-3 -12 -14 -12h-244l-55 -320q-3 -12 -16 -12h-39q-13 0 -10 12l55 320h-250q-15 0 -12 14 l6 35q2 10 14 10h250l31 172h-250q-15 0 -12 12l6 37q4 11 16 11h223z" />
</font>
</defs>
</svg>
