<?xml version="1.0" standalone="no"?>
<!DOCTYPE svg PUBLIC "-//W3C//DTD SVG 1.1//EN" "http://www.w3.org/Graphics/SVG/1.1/DTD/svg11.dtd" >
<svg xmlns="http://www.w3.org/2000/svg" xmlns:xlink="http://www.w3.org/1999/xlink" version="1.1">
<metadata></metadata>
<defs>
<font id="uni_neuebold_italic" horiz-adv-x="1228" >
<font-face units-per-em="2048" ascent="1536" descent="-512" />
<missing-glyph horiz-adv-x="425" />
<glyph horiz-adv-x="0" />
<glyph horiz-adv-x="682" />
<glyph unicode=" "  horiz-adv-x="425" />
<glyph unicode="&#x09;" horiz-adv-x="425" />
<glyph unicode="&#xa0;" horiz-adv-x="425" />
<glyph unicode="!" horiz-adv-x="530" d="M47 143q9 62 52 100t104 38q71 0 108.5 -48.5t24.5 -121.5q-11 -60 -55 -98t-105 -38q-70 0 -105.5 47.5t-23.5 120.5zM139 436l99 641l65 361q3 26 31 26h186q15 0 21.5 -8t3.5 -22l-62 -359l-131 -643q-6 -26 -33 -26h-153q-14 0 -21 8.5t-6 21.5z" />
<glyph unicode="&#x22;" horiz-adv-x="729" d="M186 979l82 461q6 24 33 24h164q15 0 21.5 -8.5t2.5 -23.5l-120 -461q-9 -25 -33 -25h-125q-14 0 -21.5 9.5t-3.5 23.5zM489 979l84 461q6 24 31 24h164q14 0 21.5 -9t3.5 -23l-121 -461q-6 -25 -31 -25h-125q-15 0 -22.5 9t-4.5 24z" />
<glyph unicode="#" horiz-adv-x="1515" d="M41 430l55 129q10 23 33 23h260l123 290h-248q-35 0 -22 33l55 129q10 23 33 23h258l166 385q9 22 32 22h148q35 0 22 -32l-159 -375h268l166 385q9 22 33 22h147q36 0 23 -32l-160 -375h246q15 0 21.5 -9t0.5 -24l-53 -129q-10 -23 -33 -23h-258l-125 -290h246 q35 0 22 -33l-55 -129q-10 -23 -33 -23h-256l-161 -374q-10 -23 -35 -23h-146q-17 0 -23.5 9t-0.5 24l160 364h-271l-162 -374q-10 -23 -34 -23h-148q-15 0 -21.5 9t-0.5 24l159 364h-250q-15 0 -21.5 9t-0.5 24zM596 582h270l123 290h-268z" />
<glyph unicode="$" horiz-adv-x="1177" d="M25 213l110 127q17 21 39 2q186 -143 363 -143q72 0 136 22.5t109.5 69t55.5 108.5q7 42 -7 77.5t-38 59t-68.5 45t-78 33.5t-85.5 27q-32 10 -61.5 21.5t-64 27.5t-63 34.5t-59 42.5t-52.5 51.5t-42.5 61.5t-29 71.5t-12.5 83t7 95.5q16 88 59.5 155t108 108.5 t140.5 64.5t167 29l29 145q3 27 31 27h139q14 0 21 -9t4 -22l-27 -149q170 -26 326 -150q10 -7 10.5 -18.5t-8.5 -20.5l-115 -133q-17 -17 -41 -2q-152 111 -332 111q-69 0 -124 -15t-97 -53.5t-53 -99.5q-8 -41 2 -74.5t30 -56.5t57 -43t71.5 -32.5t85.5 -27.5 q474 -138 409 -502q-17 -99 -64 -173t-115.5 -117t-142.5 -65.5t-161 -29.5l-29 -157q-3 -27 -30 -27h-140q-29 0 -26 31l28 158q-103 18 -190 64t-180 124q-22 19 -2 43z" />
<glyph unicode="%" horiz-adv-x="1628" d="M145.5 10q-4.5 10 6.5 25l1191 1399q13 16 37 16h133q19 0 24 -10t-7 -25l-1190 -1399q-11 -16 -35 -16h-137q-18 0 -22.5 10zM152 1001l36 197q17 92 69 156.5t115.5 92.5t131.5 28q112 0 180 -82t45 -207l-37 -199q-25 -138 -112 -208t-199 -70q-118 0 -185.5 81 t-43.5 211zM313 983q-11 -63 13.5 -91t66.5 -28q47 0 84.5 33.5t50.5 99.5l39 203q11 59 -12.5 89t-67.5 30q-46 0 -85 -33.5t-52 -97.5zM965 274l34 199q16 90 68 154.5t116 92.5t132 28q112 0 180 -82t45 -207l-35 -199q-25 -138 -112.5 -208t-200.5 -70 q-117 0 -183.5 81.5t-43.5 210.5zM1126 256q-12 -62 13 -90.5t67 -28.5q46 0 83 34t50 99l39 203q11 59 -12.5 89t-67.5 30q-47 0 -85.5 -33t-49.5 -98z" />
<glyph unicode="&#x26;" horiz-adv-x="1212" d="M55 410q13 72 44 134.5t78.5 112t96.5 87t113 75.5q-104 175 -76 332q27 153 144 245.5t276 92.5q101 0 176 -53t106.5 -137.5t14.5 -178.5q-10 -55 -34.5 -104.5t-54.5 -86t-77 -74.5t-84.5 -62.5t-93.5 -57.5l143 -246l119 173q15 25 39 10l129 -72q26 -16 10 -39 q-61 -97 -184 -258l158 -268q9 -15 3.5 -25t-22.5 -10h-205q-23 0 -34 20l-58 105q-164 -150 -376 -150q-81 0 -152.5 34t-121.5 91t-71.5 138.5t-5.5 171.5zM276 391q-15 -84 33.5 -139t134.5 -55q116 0 232 116l-178 318q-96 -56 -153 -112.5t-69 -127.5zM528 1130 q-10 -49 5 -96.5t49 -109.5q104 52 162.5 99t68.5 103q9 68 -20.5 115t-92.5 47q-66 0 -113 -42.5t-59 -115.5z" />
<glyph unicode="'" horiz-adv-x="423" d="M186 979l84 461q3 24 31 24h162q30 0 24 -32l-118 -461q-6 -25 -33 -25h-123q-15 0 -22.5 9t-4.5 24z" />
<glyph unicode="(" horiz-adv-x="604" d="M121 745q84 482 424 932q11 19 35 19h176q18 0 23.5 -11t-5.5 -24q-164 -223 -278 -467.5t-154 -476.5q-41 -230 -16 -471t110 -451q6 -15 0.5 -24t-20.5 -9h-166q-24 0 -33 23q-179 483 -96 960z" />
<glyph unicode=")" horiz-adv-x="604" d="M-107.5 -227q-5.5 11 5.5 24q164 223 278 467.5t154 476.5q41 230 16 471t-110 451q-6 15 -0.5 24t20.5 9h166q24 0 33 -23q179 -483 96 -960q-84 -482 -424 -932q-11 -19 -35 -19h-176q-18 0 -23.5 11z" />
<glyph unicode="*" horiz-adv-x="905" d="M178 1130l66 140q4 12 15.5 16.5t23.5 -0.5l186 -67l41 219q6 26 33 26h147q14 0 21 -8.5t4 -21.5l-39 -211l205 61q13 4 21.5 -2t10.5 -20l23 -138q3 -25 -23 -34l-219 -70l99 -166q12 -24 -11 -41l-127 -92q-25 -16 -41 10l-92 176l-153 -180q-19 -19 -41 -4l-111 88 q-22 17 -4 41l149 176l-167 64q-27 12 -17 38z" />
<glyph unicode="+" horiz-adv-x="1236" d="M176 610l29 154q3 27 31 27h317l61 342q3 26 31 26h164q14 0 21 -9t4 -22l-60 -337h313q14 0 21 -9t4 -22l-29 -156q-3 -26 -30 -26h-316l-61 -342q-3 -27 -31 -27h-162q-15 0 -21 9.5t-3 23.5l59 336h-317q-14 0 -21 9.5t-4 22.5z" />
<glyph unicode="," horiz-adv-x="473" d="M-104.5 -250q-6.5 10 0.5 25l194 463q10 20 33 20h180q34 0 21 -33l-228 -465q-13 -20 -35 -20h-145q-14 0 -20.5 10z" />
<glyph unicode="-" horiz-adv-x="798" d="M121 530l29 166q2 12 10 19.5t20 7.5h500q15 0 21.5 -8.5t3.5 -22.5l-29 -166q-3 -26 -31 -26h-500q-31 0 -24 30z" />
<glyph unicode="." horiz-adv-x="468" d="M23 158q9 62 52.5 99.5t106.5 37.5q72 0 110.5 -48t24.5 -122q-11 -61 -54 -98t-107 -37q-72 0 -109.5 48t-23.5 120z" />
<glyph unicode="/" horiz-adv-x="907" d="M-29.5 11q-6.5 11 2.5 24l797 1409q9 20 35 20h178q17 0 23.5 -10t-2.5 -24l-795 -1410q-9 -20 -33 -20h-182q-17 0 -23.5 11z" />
<glyph unicode="0" horiz-adv-x="1210" d="M111 494l88 505q23 128 80 225.5t136 153.5t166.5 83.5t182.5 27.5t176.5 -30.5t143 -90.5t87 -160t3.5 -227l-93 -508q-18 -105 -59.5 -190.5t-96 -142t-123 -94.5t-139 -54.5t-145.5 -16.5q-95 0 -176.5 31.5t-143 92.5t-86.5 163t-1 232zM340.5 364q8.5 -45 25 -74 t46.5 -46t60.5 -24t66.5 -7q49 0 95 13.5t90 42.5t75.5 82.5t44.5 125.5l92 514q13 62 4.5 107t-25.5 74.5t-47.5 47t-61.5 24.5t-67 7q-49 0 -94 -13.5t-89 -42.5t-75.5 -83.5t-44.5 -128.5l-90 -512q-14 -62 -5.5 -107z" />
<glyph unicode="1" horiz-adv-x="749" d="M135 1171q-9 26 10 39l385 244q18 10 37 10h156q30 0 27 -30l-248 -1407q-1 -12 -10 -19.5t-21 -7.5h-182q-13 0 -20.5 9.5t-4.5 21.5l203 1138l-231 -147q-28 -17 -41 12z" />
<glyph unicode="2" horiz-adv-x="1107" d="M-14 31l22 133q2 16 19 33l473 434q165 147 250 248.5t104 201.5q13 76 -25 126t-137 50q-169 0 -344 -167q-12 -11 -23.5 -9t-17.5 15l-80 143q-13 22 6 41q222 209 476 209q97 0 175 -28.5t130.5 -82t73 -135.5t2.5 -182q-15 -90 -64.5 -179.5t-115 -166t-179.5 -191.5 q-221 -199 -344 -299h549q15 0 21.5 -8t3.5 -22l-31 -168q-3 -27 -31 -27h-887q-29 0 -26 31z" />
<glyph unicode="3" horiz-adv-x="1110" d="M6 184q-14 23 4 41l113 119q21 21 41 -2q65 -67 129.5 -99t169.5 -32q116 0 201 71t108 199q20 107 -42 168.5t-175 61.5q-57 0 -133 -17q-28 -6 -35 21l-31 100q-8 20 9 37l229 225q31 32 92 84.5t96 79.5h-510q-29 0 -26 31l28 166q6 26 33 26h805q30 0 27 -30 l-23 -125q-3 -22 -16 -35l-424 -395h4q75 2 142 -28t115 -84t69 -136t4 -178q-39 -220 -195 -348t-369 -128q-107 0 -193 29.5t-139.5 71.5t-107.5 106z" />
<glyph unicode="4" horiz-adv-x="1138" d="M16 328l25 139q2 15 12 35l652 944q12 18 34 18h207q17 0 22.5 -10t-3.5 -24l-623 -908h358l58 287q7 25 33 25h170q29 0 26 -31l-49 -281h119q14 0 20.5 -8.5t3.5 -21.5l-30 -168q-3 -27 -31 -27h-123l-47 -270q-3 -27 -31 -27h-180q-14 0 -21 9t-4 22l48 266h-619 q-13 0 -21 9.5t-6 21.5z" />
<glyph unicode="5" horiz-adv-x="1144" d="M51 180q-16 21 4 41l111 121q18 21 41 -2q121 -127 299 -127q124 0 204.5 77t104.5 210q22 123 -26 181t-171 58q-159 0 -274 -94q-18 -13 -41 -6l-129 51q-26 10 -20 35l151 713q7 26 31 26h780q30 0 27 -30l-31 -174q-1 -12 -10 -19.5t-21 -7.5h-585l-72 -328 q107 58 246 58q211 0 315 -131.5t66 -358.5q-40 -229 -192 -362.5t-380 -133.5q-267 0 -428 203z" />
<glyph unicode="6" horiz-adv-x="1177" d="M102 469l97 530q21 119 74.5 213.5t129 154t166 91t189.5 31.5q118 0 224 -39t185 -109q20 -20 2 -41l-114 -135q-15 -21 -41 -2q-54 46 -127 71.5t-148 25.5q-111 0 -196.5 -70t-106.5 -195l-22 -139q122 86 280 86q212 0 319.5 -130.5t69.5 -346.5 q-38 -220 -196.5 -355t-374.5 -135q-140 0 -242.5 66.5t-146.5 179.5t-21 248zM340 455q-20 -114 34 -179t165 -65q120 0 202 73.5t105 202.5q21 117 -26.5 175.5t-172.5 58.5q-111 0 -196 -63.5t-107 -184.5z" />
<glyph unicode="7" horiz-adv-x="1050" d="M70 11q-5 11 4 24l755 1202h-630q-13 0 -21 8.5t-6 22.5l31 170q3 26 30 26h904q15 0 22 -8t4 -22l-22 -121q-3 -19 -11 -33l-790 -1260q-11 -20 -35 -20h-213q-17 0 -22 11z" />
<glyph unicode="8" horiz-adv-x="1218" d="M82 449q20 104 86.5 192.5t169.5 134.5q-146 117 -107 322q28 166 179 278.5t358 112.5q135 0 237.5 -58.5t149 -155t27.5 -208.5q-36 -202 -217 -303q81 -49 119 -145t18 -199q-37 -214 -193 -329.5t-387 -115.5q-111 0 -201.5 33t-150 93t-83.5 150t-5 198zM317 422 q-17 -100 43.5 -158.5t180.5 -58.5q128 0 217 66t108 173q17 94 -45 148.5t-188 54.5t-211.5 -61t-104.5 -164zM461 1061q-17 -93 35 -145t161 -52q118 0 195.5 57.5t91.5 149.5q15 92 -37.5 142.5t-169.5 50.5q-109 0 -184 -55t-92 -148z" />
<glyph unicode="9" horiz-adv-x="1179" d="M76 164q-20 20 0 41l112 129q19 22 39 -2q120 -123 275 -123q113 0 199 68.5t108 191.5l22 139q-122 -86 -280 -86q-209 0 -318 138t-69 352q38 215 195 346t370 131q150 0 252.5 -67t142.5 -181t15 -258l-92 -526q-42 -236 -194 -359t-376 -123q-113 0 -219 50t-182 139 zM401 995q-39 -250 187 -250q118 0 204.5 63.5t108.5 184.5l2 13q23 125 -31.5 189.5t-171.5 64.5t-197 -71.5t-102 -193.5z" />
<glyph unicode=":" horiz-adv-x="538" d="M53 158q9 61 53 99t103 38q72 0 110.5 -48t24.5 -122q-11 -62 -55 -99.5t-105 -37.5q-70 0 -106.5 48.5t-24.5 121.5zM195 950q11 62 53.5 99.5t103.5 37.5q70 0 107.5 -47.5t25.5 -121.5q-10 -61 -54 -99.5t-103 -38.5q-71 0 -109 48.5t-24 121.5z" />
<glyph unicode=";" horiz-adv-x="546" d="M-78 -225l199 479q9 22 33 22h180q35 0 22 -32l-233 -480q-13 -22 -35 -22h-143q-15 0 -22 9t-1 24zM203 950q12 62 55 99.5t104 37.5q69 0 107.5 -48t26.5 -121q-12 -61 -56.5 -99.5t-105.5 -38.5q-69 0 -106 49t-25 121z" />
<glyph unicode="&#x3c;" horiz-adv-x="1236" d="M152 629l18 114q2 20 25 31l917 430q15 6 24.5 -0.5t6.5 -23.5l-35 -201q-3 -18 -25 -31l-630 -262l530 -264q21 -11 18 -37l-32 -199q-3 -17 -14 -22t-23 4l-762 424q-21 12 -18 37z" />
<glyph unicode="=" horiz-adv-x="1236" d="M141 416l29 157q3 27 31 27h850q14 0 20.5 -9t3.5 -22l-26 -157q-1 -12 -10 -19.5t-21 -7.5h-852q-15 0 -21.5 8.5t-3.5 22.5zM213 801l29 157q2 12 10 19.5t20 7.5h850q14 0 21 -9t4 -22l-27 -157q-2 -12 -10 -19.5t-20 -7.5h-852q-15 0 -21.5 8.5t-3.5 22.5z" />
<glyph unicode="&#x3e;" horiz-adv-x="1236" d="M147 193l35 200q3 22 25 31l631 266l-531 260q-21 11 -18 37l33 199q3 17 14 21.5t24 -3.5l762 -426q20 -10 17 -35l-19 -114q-3 -20 -24 -31l-918 -430q-15 -6 -24.5 1t-6.5 24z" />
<glyph unicode="?" horiz-adv-x="1005" d="M190 1298q-10 26 9 41q203 150 442 150q90 0 167.5 -29t133.5 -82.5t79.5 -139.5t4.5 -191q-13 -71 -42.5 -127.5t-67.5 -93.5t-81 -67.5t-85.5 -57.5t-79 -56t-64 -70t-37.5 -92l-10 -57q-3 -25 -31 -25h-174q-13 0 -20 9.5t-4 23.5l18 109q11 59 40 107.5t67.5 81.5 t82.5 62t87.5 56.5t81 57.5t65 72t37.5 93q10 41 2 78.5t-28 66.5t-64 46.5t-107 17.5q-159 0 -319 -121q-10 -9 -21.5 -6t-17.5 16zM252 158q12 62 55.5 99.5t104.5 37.5q69 0 106 -48t25 -122q-11 -62 -55 -99.5t-105 -37.5q-69 0 -106 49t-25 121z" />
<glyph unicode="@" horiz-adv-x="1755" d="M89.5 332.5q-7.5 94.5 12.5 193.5l50 287q20 111 64.5 209.5t118.5 185t172.5 148t233 97.5t293.5 36q503 0 719 -365q9 -18 6 -37l-90 -542q-33 -188 -132 -284.5t-245 -96.5q-133 0 -196 80q-114 -84 -262 -84q-166 0 -250 115t-54 276l27 151q32 169 141.5 267 t282.5 98q92 0 178 -24.5t137 -59.5q18 -10 15 -37l-80 -491q-4 -30 -3 -55.5t23.5 -41.5t65.5 -14q133 8 162 176l100 549q-69 120 -214.5 189t-344.5 69q-126 0 -231 -27.5t-180 -75t-131.5 -115.5t-90 -145.5t-49.5 -168.5l-49 -283q-44 -254 80 -408.5t362 -154.5 q194 0 373 78q28 12 35 -19l26 -102q6 -24 -14 -33q-87 -42 -208.5 -70t-231.5 -28q-115 0 -213.5 28t-169.5 78.5t-125 120t-80 153t-33.5 178zM725 545q-18 -103 14.5 -151t114.5 -48q99 0 174 60l76 448q-17 12 -55.5 20.5t-73.5 8.5q-90 0 -150 -53.5t-75 -143.5z" />
<glyph unicode="A" horiz-adv-x="1249" d="M-77.5 10q-5.5 10 1.5 23l707 1411q11 20 35 20h231q27 0 33 -26l219 -1407q2 -14 -6 -22.5t-23 -8.5h-190q-28 0 -31 27l-41 303h-518l-147 -307q-13 -23 -37 -23h-211q-17 0 -22.5 10zM444 553h383l-79 641h-9z" />
<glyph unicode="B" horiz-adv-x="1269" d="M72 31l250 1407q6 26 32 26h500q206 0 300 -118q71 -88 71 -210q0 -41 -8 -87q-15 -91 -67 -162.5t-128 -108.5q151 -77 151 -257q0 -42 -8 -89q-35 -214 -182 -323t-387 -109h-498q-14 0 -21.5 9t-4.5 22zM352 221h279q109 0 189.5 60.5t99.5 177.5q3 22 3 41 q0 66 -37 108q-48 54 -165 54h-291zM467 874h268q92 0 157.5 52.5t80.5 142.5q4 23 4 43q0 133 -174 133h-268z" />
<glyph unicode="C" horiz-adv-x="1159" d="M117 532l80 459q21 125 79 222t140 156.5t179 89.5t204 30q237 0 413 -139q21 -18 5 -41l-119 -138q-17 -20 -39 -4q-130 95 -283 95q-133 0 -221 -81t-113 -223l-75 -444q-7 -39 -7 -73q0 -91 46 -153q62 -86 194 -85q79 0 172.5 32t167.5 87q26 19 39 -11l80 -151 q11 -25 -6 -37q-230 -148 -502 -148q-109 0 -197.5 36.5t-149.5 105.5t-85 176q-13 56 -13 118q0 58 11 121z" />
<glyph unicode="D" horiz-adv-x="1323" d="M72 31l250 1407q3 26 30 26h488q234 0 357 -150q90 -109 89 -272q0 -61 -12 -131l-70 -397q-46 -262 -196 -388t-412 -126h-498q-29 0 -26 31zM352 223h266q283 0 338 312l70 401q9 53 9 97q0 87 -35 135q-53 74 -189 73h-279z" />
<glyph unicode="E" horiz-adv-x="1148" d="M72 31l250 1407q3 26 30 26h813q30 0 27 -30l-31 -166q-3 -27 -31 -27h-598l-67 -385h543q13 0 20.5 -8.5t5.5 -22.5l-30 -163q-3 -27 -31 -27h-547l-72 -410h619q29 0 26 -32l-28 -166q-3 -27 -31 -27h-842q-13 0 -20.5 8.5t-5.5 22.5z" />
<glyph unicode="F" horiz-adv-x="1118" d="M72 31l250 1407q3 26 30 26h834q29 0 26 -30l-28 -166q-7 -27 -31 -27h-616l-78 -434h530q13 0 21 -8.5t6 -22.5l-31 -166q-3 -26 -31 -26h-534l-98 -557q-7 -27 -33 -27h-191q-29 0 -26 31z" />
<glyph unicode="G" horiz-adv-x="1282" d="M111 516l79 463q22 124 80.5 222.5t142 160.5t184 94.5t210.5 32.5q270 0 450 -156q20 -17 0 -41l-116 -133q-17 -21 -41 -4q-142 109 -328 109q-125 0 -217 -80t-119 -228l-80 -460q-6 -32 -6 -61q0 -85 48 -147q64 -85 194 -85q159 3 293 80l59 329h-272 q-15 0 -21.5 8.5t-3.5 22.5l27 158q6 26 33 26h489q14 0 21 -8.5t4 -21.5l-105 -592q-2 -17 -16 -31q-99 -91 -242.5 -145t-298.5 -54q-112 0 -205 41.5t-153 113.5t-85 172q-14 56 -14 116q0 48 9 98z" />
<glyph unicode="H" horiz-adv-x="1349" d="M72 31l247 1407q7 26 33 26h187q15 0 22 -8t4 -22l-100 -578h534l103 582q3 26 31 26h188q14 0 21 -8.5t6 -21.5l-250 -1407q-3 -27 -31 -27h-188q-14 0 -21 9t-4 22l107 600h-537l-107 -604q-2 -12 -10 -19.5t-20 -7.5h-189q-29 0 -26 31z" />
<glyph unicode="I" horiz-adv-x="569" d="M72 31l247 1407q3 26 31 26h189q29 0 26 -30l-248 -1407q-2 -12 -10 -19.5t-20 -7.5h-189q-29 0 -26 31z" />
<glyph unicode="J" horiz-adv-x="1026" d="M-45 170l102 133q18 21 43 2q117 -104 271 -104q93 0 154.5 58.5t80.5 166.5l180 1012q3 26 31 26h189q29 0 26 -30l-178 -1020q-35 -203 -172.5 -321t-337.5 -118q-231 0 -387 156q-17 17 -2 39z" />
<glyph unicode="K" horiz-adv-x="1226" d="M72 31l247 1407q3 26 31 26h189q29 0 26 -30l-102 -578l573 592q16 16 37 16h248q19 0 24 -10t-8 -24l-624 -629l422 -766q9 -15 2.5 -25t-23.5 -10h-217q-24 0 -33 20l-332 613l-129 -115l-86 -491q-3 -27 -30 -27h-189q-29 0 -26 31z" />
<glyph unicode="L" horiz-adv-x="1024" d="M72 31l250 1407q3 26 30 26h189q15 0 22 -8t4 -22l-213 -1211h566q29 0 26 -30l-31 -166q-3 -27 -30 -27h-787q-29 0 -26 31z" />
<glyph unicode="M" horiz-adv-x="1675" d="M72 31l247 1407q3 26 31 26h219q28 0 33 -24l139 -459q55 -196 101 -381h6q130 222 235 389l303 457q10 18 35 18h224q29 0 26 -30l-248 -1407q-3 -27 -30 -27h-187q-29 0 -26 31l69 405q33 206 117 625h-10q-63 -122 -219 -369l-226 -358q-13 -19 -32 -19h-148 q-27 0 -33 25l-110 373q-31 109 -90 346h-9q-45 -311 -102 -633l-68 -399q-2 -12 -10 -19.5t-20 -7.5h-191q-29 0 -26 31z" />
<glyph unicode="N" horiz-adv-x="1392" d="M72 31l250 1407q3 26 30 26h213q27 0 33 -22l242 -684q24 -72 69 -208.5t58 -176.5h8q51 399 84 579l86 486q3 26 31 26h188q14 0 21 -8.5t6 -21.5l-250 -1407q-3 -27 -31 -27h-211q-24 0 -33 23l-243 626q-61 159 -131 422h-9q-33 -307 -88 -594l-78 -450 q-2 -12 -10 -19.5t-20 -7.5h-189q-29 0 -26 31z" />
<glyph unicode="O" horiz-adv-x="1337" d="M119 575l67 383q43 250 212 390.5t429 140.5q176 0 292 -77.5t158 -208.5q25 -77 25 -168q0 -63 -12 -132l-67 -389q-43 -257 -214.5 -398t-437.5 -141q-173 0 -286 77q-113 78 -155 212q-24 78 -24 170q0 67 13 141zM367 549q-9 -46 -9 -87q0 -94 45 -162 q64 -98 197 -97q152 0 249 85.5t124 237.5l69 400q8 44 8 83q0 94 -45 160q-63 93 -206 93q-151 0 -244 -84.5t-121 -241.5z" />
<glyph unicode="P" horiz-adv-x="1234" d="M72 31l247 1407q3 26 31 26h451q233 0 359 -149q96 -113 95 -270q0 -51 -10 -107q-39 -221 -187 -341t-399 -120h-262l-80 -450q-3 -27 -30 -27h-189q-15 0 -22 8.5t-4 22.5zM436 698h244q271 0 319 260q5 36 5 67q0 91 -45 145q-61 73 -189 73h-238z" />
<glyph unicode="Q" horiz-adv-x="1351" d="M119 575l65 383q44 251 214.5 391t432.5 140q106 0 192.5 -30t144 -83t95 -126.5t44.5 -161.5q2 -29 2 -59q0 -61 -9 -126l-65 -389q-38 -214 -166 -348l82 -107q15 -20 -6 -41l-117 -100q-23 -20 -41 4l-92 121q-142 -68 -320 -68q-171 0 -285.5 80t-157.5 215 q-25 80 -25 171q0 64 12 134zM371 549q-8 -45 -8 -85q0 -94 45 -163q63 -98 196 -98q69 0 150 30l-119 160q-17 21 4 39l117 103q23 20 41 -5l121 -159q43 66 61 159l68 396q8 45 8 84q0 93 -44 158q-63 94 -206 94q-153 0 -246 -84t-121 -242z" />
<glyph unicode="R" horiz-adv-x="1239" d="M72 31l250 1407q3 26 30 26h455q155 0 259 -69t144 -183q25 -72 26 -155q0 -48 -9 -101q-28 -163 -127.5 -266t-263.5 -137l266 -520q8 -15 2 -24t-23 -9h-213q-25 0 -34 20l-246 512h-178l-91 -505q-3 -27 -30 -27h-191q-13 0 -20.5 8.5t-5.5 22.5zM449 756h231 q260 0 297 225q7 39 7 72q0 188 -214 188h-238z" />
<glyph unicode="S" horiz-adv-x="1202" d="M39 213l111 129q15 21 40 6q185 -143 367 -143q112 0 198.5 51.5t100.5 142.5q4 18 4 34.5t-4 31.5q-7 30 -28.5 53.5t-45 41t-62 33.5t-67 25.5t-71.5 22.5q-37 11 -70.5 24t-73 32.5t-71 42t-64.5 52.5t-53.5 64t-37.5 76q-18 44 -19 92v12q0 43 6 94q18 97 68 168 t124.5 112t161.5 60t190 19q135 0 245 -37.5t218 -122.5q11 -8 12 -19t-8 -20l-114 -135q-18 -21 -41 -6q-154 111 -338 111q-69 0 -123.5 -14t-97 -51.5t-54.5 -96.5q-4 -18 -3 -35q0 -21 5 -39q10 -34 30 -56.5t57.5 -43t71.5 -33t85 -27.5q424 -122 424 -419 q0 -40 -8 -83q-17 -88 -58 -157t-95.5 -111.5t-124.5 -70t-139.5 -38t-145.5 -10.5q-153 0 -265.5 47.5t-234.5 147.5q-21 21 -2 43z" />
<glyph unicode="T" horiz-adv-x="1128" d="M154 1272l30 166q3 26 31 26h1020q14 0 21 -8.5t6 -21.5l-31 -166q-1 -12 -10 -19.5t-21 -7.5h-389l-217 -1214q-3 -27 -31 -27h-190q-14 0 -21 9t-4 22l215 1210h-383q-13 0 -20.5 8.5t-5.5 22.5z" />
<glyph unicode="U" horiz-adv-x="1357" d="M154 563l153 875q3 26 31 26h190q15 0 21.5 -8t3.5 -22l-158 -899q-9 -49 -8 -91q-1 -96 43 -156q64 -88 191 -87q133 0 221 79.5t114 231.5l162 926q3 26 31 26h190q14 0 21 -8.5t4 -21.5l-164 -949q-40 -240 -200.5 -375t-417.5 -135q-234 1 -354 163q-87 117 -87 285 q0 66 13 140z" />
<glyph unicode="V" horiz-adv-x="1251" d="M168 1434q-3 30 27 30h194q28 0 31 -26l102 -770l49 -389h15q3 6 70 156.5t100 219.5l372 787q13 22 37 22h209q17 0 22.5 -9t-1.5 -23l-705 -1412q-9 -20 -35 -20h-241q-28 0 -31 27z" />
<glyph unicode="W" horiz-adv-x="1873" d="M176 1434q-1 13 7 21.5t22 8.5h194q31 0 31 -28l35 -666q9 -129 14 -485h13q89 279 188 512l264 624q10 23 35 23h223q26 0 29 -27l53 -641q11 -167 23 -491h12q89 301 182 536l248 621q8 22 33 22h207q15 0 21.5 -8.5t0.5 -23.5l-608 -1409q-10 -23 -33 -23h-225 q-26 0 -29 27l-49 546q-24 315 -27 527h-12q-69 -229 -188 -500l-258 -577q-10 -23 -33 -23h-225q-28 0 -31 27z" />
<glyph unicode="X" horiz-adv-x="1193" d="M-56 11q-5 11 5 24l532 702l-272 695q-6 14 1 23t21 9h203q28 0 33 -22l184 -518l371 522q12 18 35 18h223q17 0 22 -10t-6 -24l-516 -701l293 -696q6 -15 -0.5 -24t-21.5 -9h-207q-24 0 -33 23l-203 520l-370 -525q-15 -18 -37 -18h-234q-18 0 -23 11z" />
<glyph unicode="Y" horiz-adv-x="1150" d="M160 1432q-4 15 3 23.5t21 8.5h201q26 0 31 -24l192 -686h4l414 690q11 20 33 20h217q17 0 23 -10t-3 -24l-594 -902l-92 -501q-3 -27 -30 -27h-193q-15 0 -21.5 8.5t-3.5 22.5l91 499z" />
<glyph unicode="Z" horiz-adv-x="1183" d="M-18 31l22 127q2 14 16 32l875 1051h-637q-13 0 -20.5 9.5t-4.5 23.5l31 164q3 26 31 26h934q29 0 26 -30l-22 -121q-3 -21 -14 -35l-865 -1053h674q13 0 21 -9t6 -23l-31 -166q-3 -27 -31 -27h-985q-29 0 -26 31z" />
<glyph unicode="[" horiz-adv-x="604" d="M14 -209l334 1878q3 27 31 27h336q13 0 20.5 -8.5t5.5 -22.5l-28 -158q-3 -26 -31 -26h-145l-265 -1506h140q29 0 26 -30l-28 -158q-3 -27 -31 -27h-338q-14 0 -21.5 9t-5.5 22z" />
<glyph unicode="\" horiz-adv-x="856" d="M205 1434q-3 14 4 22t22 8h146q27 0 33 -24l311 -1407q6 -31 -27 -31h-145q-27 0 -33 25z" />
<glyph unicode="]" horiz-adv-x="604" d="M-70 -209l29 158q3 26 31 26h145l264 1506h-139q-30 0 -27 30l29 158q3 27 31 27h338q14 0 21 -9t5 -22l-333 -1878q-3 -27 -31 -27h-336q-13 0 -21 8.5t-6 22.5z" />
<glyph unicode="^" horiz-adv-x="1236" d="M206 1153.5q-4 10.5 9 24.5l481 489q13 16 35 16h172q25 0 35 -18l315 -487q9 -15 4 -25t-22 -10h-201q-23 0 -35 18l-206 320l-306 -324q-14 -14 -36 -14h-222q-19 0 -23 10.5z" />
<glyph unicode="_" horiz-adv-x="1165" d="M-43 -213l29 162q3 26 30 26h936q15 0 22 -9t5 -23l-29 -160q-3 -27 -30 -27h-936q-30 0 -27 31z" />
<glyph unicode="`" horiz-adv-x="505" d="M206.5 1525q5.5 11 22.5 11h166q24 0 33 -23l117 -270q7 -15 0.5 -24t-21.5 -9h-125q-23 0 -32 19l-158 272q-8 13 -2.5 24z" />
<glyph unicode="a" horiz-adv-x="1024" d="M18 352q27 146 153 219.5t314 73.5q99 0 211 -22l11 63q6 32 6 59q1 55 -25 87q-38 47 -149 47q-139 0 -265 -70q-29 -14 -38 14l-54 127q-9 27 6 37q162 100 392 100q196 -1 294 -117q73 -86 73 -214q0 -46 -9 -97l-102 -581q-3 -21 -25 -31q-205 -72 -418 -72 q-118 0 -210 43q-91 42 -139 130q-32 60 -33 133q0 34 7 71zM252 330q-3 -18 -3 -34q0 -51 34 -80q45 -38 133 -38q74 0 207 25l39 233q-87 17 -181 17q-207 0 -229 -123z" />
<glyph unicode="b" horiz-adv-x="1089" d="M45 104l236 1334q7 26 32 26h176q15 0 22.5 -8.5t4.5 -21.5l-72 -404q99 57 226 57q184 -1 285 -125q74 -92 75 -227q0 -48 -10 -102l-39 -215q-19 -114 -68.5 -200t-122 -138.5t-161.5 -78.5t-193 -26q-95 0 -195 25.5t-180 67.5q-19 8 -16 36zM303 221q67 -39 162 -39 q234 0 278 250l41 227q8 38 8 70q0 63 -31 100q-46 56 -149 56q-115 0 -204 -72z" />
<glyph unicode="c" horiz-adv-x="927" d="M70 434l45 258q33 182 168 288.5t325 106.5q174 0 316 -102q21 -18 4 -41l-92 -119q-16 -19 -41 -4q-92 60 -199 60q-99 0 -164 -55t-82 -150l-45 -258q-7 -36 -6 -67q1 -67 31 -108q46 -61 137 -61q123 0 242 78q27 17 41 -10l69 -133q10 -23 -10 -41 q-171 -101 -367 -101q-204 1 -306 125q-76 92 -75 231q0 48 9 103z" />
<glyph unicode="d" horiz-adv-x="1089" d="M66 299q-1 20 -2 41q0 51 8 106l39 218q33 192 161.5 307.5t317.5 115.5q129 0 229 -51l70 402q3 26 31 26h178q29 0 26 -30l-237 -1356q-4 -22 -25 -31q-74 -33 -186.5 -52.5t-208.5 -19.5q-94 0 -168.5 24.5t-122 67.5t-77 102.5t-33.5 129.5zM309 426q-9 -48 -8 -85 q0 -67 27 -103q43 -56 159 -56q115 0 187 35l108 619q-34 20 -86 32.5t-102 12.5q-101 0 -164.5 -60.5t-83.5 -177.5z" />
<glyph unicode="e" horiz-adv-x="1050" d="M63 381l58 317q18 99 67 175.5t117 122t145.5 68.5t161.5 23q96 0 173.5 -26t131.5 -77q55 -50 75 -132q11 -43 10 -92q0 -45 -9 -96l-37 -207q-3 -27 -30 -27h-617l-10 -55q-6 -29 -7 -54q0 -57 34 -91q48 -50 149 -50q146 0 301 103q10 8 21.5 5.5t17.5 -14.5l72 -120 q14 -27 -8 -41q-194 -138 -437 -138q-89 0 -164.5 27t-130.5 76.5t-79 127.5q-13 44 -13 95q0 38 8 80zM342 614h414l12 70q6 29 6 54q0 58 -35 94q-50 50 -147 51q-89 0 -153.5 -51.5t-82.5 -147.5z" />
<glyph unicode="f" horiz-adv-x="634" d="M35 31l194 1089q31 179 145 274t277 95q57 0 109 -6q13 -1 19.5 -10.5t4.5 -22.5l-26 -150q-5 -24 -35 -24q-50 4 -72 4q-157 0 -188 -176l-12 -60h206q30 0 27 -32l-27 -146q-3 -26 -30 -26h-213l-144 -813q-3 -27 -30 -27h-181q-13 0 -20 8.5t-4 22.5z" />
<glyph unicode="g" horiz-adv-x="1089" d="M-2 -238l94 121q18 21 41 4q109 -84 250 -84q116 0 182 65.5t88 203.5q-93 -41 -211 -41q-199 0 -299 119q-74 87 -74 223q0 47 9 100l37 209q19 107 67.5 187t119.5 126.5t153.5 69t177.5 22.5q219 0 389 -94q19 -13 16 -37l-151 -893q-41 -238 -164 -355.5t-350 -117.5 q-123 0 -211 33.5t-162 100.5q-20 17 -2 38zM313 453q-6 -33 -6 -60q0 -151 172 -151q59 0 119.5 16.5t91.5 40.5l92 549q-26 12 -75 21.5t-95 9.5q-100 0 -170.5 -51t-89.5 -158z" />
<glyph unicode="h" horiz-adv-x="1110" d="M37 31l248 1407q3 26 30 26h179q29 0 26 -30l-69 -398q97 51 219 51q90 0 161 -29t119.5 -87.5t64.5 -146.5q7 -40 8 -87q0 -55 -11 -119l-107 -591q-3 -27 -31 -27h-176q-15 0 -22 8.5t-4 22.5l108 618q7 38 7 69q0 66 -30 106q-44 58 -147 59q-102 0 -198 -56 l-142 -800q-3 -27 -30 -27h-177q-15 0 -22 8.5t-4 22.5z" />
<glyph unicode="i" horiz-adv-x="485" d="M35 31l178 1005q8 27 31 27h178q15 0 22.5 -9.5t4.5 -23.5l-179 -1003q-2 -12 -10 -19.5t-20 -7.5h-179q-15 0 -22 8.5t-4 22.5zM246 1346q10 52 49 84t92 32q61 0 97 -42q27 -32 27 -76q0 -15 -3 -31q-9 -51 -49 -84t-92 -33q-61 0 -97 44q-27 33 -27 76q0 15 3 30z" />
<glyph unicode="j" horiz-adv-x="501" d="M-231 -369l30 158q3 25 29 25q50 -4 72 -4q54 0 93 53.5t56 154.5l180 1018q2 11 10.5 19t20.5 8h178q14 0 21.5 -9.5t5.5 -23.5l-182 -1036q-75 -404 -400 -404q-29 0 -90 9q-27 3 -24 32zM266 1346q10 52 49.5 84t92.5 32q63 0 98 -42q26 -33 26 -79q0 -14 -2 -28 q-11 -52 -50.5 -84.5t-92.5 -32.5q-60 0 -95 44q-28 35 -28 80q0 13 2 26z" />
<glyph unicode="k" horiz-adv-x="997" d="M37 31l248 1407q7 26 32 26h179q14 0 20.5 -8.5t3.5 -21.5l-133 -754l389 369q14 14 35 14h221q20 0 24.5 -11.5t-9.5 -25.5l-455 -424l313 -567q8 -15 2.5 -25t-22.5 -10h-203q-23 0 -33 20l-225 420l-94 -86l-58 -327q-2 -12 -10 -19.5t-20 -7.5h-179q-29 0 -26 31z " />
<glyph unicode="l" horiz-adv-x="579" d="M90 399l182 1039q3 26 31 26h178q30 0 27 -30l-184 -1051q-9 -48 -9 -84q0 -113 88 -113q46 0 66 2q16 2 24 -5t5 -23l-27 -150q-3 -25 -29 -28q-51 -7 -90 -7q-158 -1 -228 111q-46 74 -46 187q0 58 12 126z" />
<glyph unicode="m" horiz-adv-x="1642" d="M31 31l174 946q3 22 24 31q181 79 373 79q161 0 256 -86q159 86 322 86q202 0 302 -128q73 -93 72 -230q0 -51 -10 -108l-106 -594q-3 -27 -31 -27h-174q-15 0 -22.5 8.5t-4.5 22.5l107 612q7 41 7 74q0 164 -165 164q-102 0 -194 -54q12 -51 11 -105q0 -49 -9 -101 l-107 -594q-1 -12 -10 -19.5t-21 -7.5h-176q-13 0 -20.5 8.5t-5.5 22.5l108 612q7 42 7 77q0 161 -156 161q-84 0 -168 -35l-152 -819q-3 -27 -31 -27h-176q-13 0 -20 8.5t-4 22.5z" />
<glyph unicode="n" horiz-adv-x="1107" d="M31 31l172 946q3 20 24 31q194 79 402 79q211 0 315 -127q76 -93 76 -229q0 -50 -10 -106l-107 -598q-3 -27 -31 -27h-178q-13 0 -20.5 8.5t-5.5 22.5l106 612q8 42 8 76q0 162 -178 162q-97 0 -188 -35l-152 -819q-3 -27 -31 -27h-178q-13 0 -20 8.5t-4 22.5z" />
<glyph unicode="o" horiz-adv-x="1071" d="M68 422l49 276q31 172 171.5 280.5t336.5 108.5q134 0 229 -64q96 -63 134 -163q24 -64 23 -134q0 -39 -7 -79l-52 -278q-35 -184 -171.5 -289t-340.5 -105q-128 0 -221 60t-133 162q-26 66 -26 140q0 41 8 85zM303 399q-5 -30 -6 -56q0 -61 30 -101q42 -58 138 -58 q105 0 171 53t81 146l49 281q4 24 4 47q0 61 -32 107q-44 63 -138 63q-97 0 -164 -55t-84 -146z" />
<glyph unicode="p" horiz-adv-x="1087" d="M-37 -358l236 1321q2 16 20 30q78 42 191.5 68t210.5 26q93 0 167 -24.5t121 -67.5t76.5 -102.5t34.5 -129.5q1 -22 1 -44q0 -50 -7 -103l-37 -219q-31 -190 -161 -306t-318 -116q-133 0 -230 54l-69 -391q-7 -27 -33 -27h-178q-14 0 -21 9t-4 22zM303 233q35 -23 87 -37 t102 -14q208 0 249 236l37 219q9 48 9 86q0 68 -29 103q-43 55 -158 55q-113 0 -188 -47z" />
<glyph unicode="q" horiz-adv-x="1089" d="M68 430l38 213q45 224 186.5 334t338.5 110q208 0 393 -90q21 -8 18 -34l-235 -1325q-3 -27 -31 -27h-180q-30 0 -27 31l70 385q-106 -52 -227 -52q-84 0 -155 32.5t-120 90t-69 144.5q-9 43 -9 91q0 47 9 97zM303 403q-6 -33 -6 -62q0 -67 33 -107q45 -56 139 -56 q113 0 209 62l108 608q-78 33 -176 33q-211 0 -266 -250z" />
<glyph unicode="r" horiz-adv-x="733" d="M33 31l168 948q3 22 24 31q171 77 353 77q87 0 188 -16q28 -6 25 -35l-27 -147q-3 -28 -35 -25q-72 10 -160 10q-92 0 -157 -28l-144 -819q-3 -27 -30 -27h-179q-13 0 -20.5 8.5t-5.5 22.5z" />
<glyph unicode="s" horiz-adv-x="962" d="M2 154l86 120q8 11 19 12.5t20 -7.5q126 -97 289 -97q186 0 209 111q5 26 -2 46.5t-20 33.5t-40.5 25.5t-48.5 19t-59 16.5q-48 13 -93.5 30.5t-96.5 50.5t-85 73q-34 39 -52 98q-10 34 -11 71q0 27 6 56q14 74 56 128.5t104 85.5t133 45.5t153 14.5q197 0 351 -96 q26 -13 8 -39l-97 -129q-16 -22 -38 -6q-104 66 -246 66q-179 0 -193 -103q-5 -26 5.5 -48t26.5 -36t48.5 -27t54 -19.5t60.5 -16.5q74 -18 134.5 -49t106 -75t64.5 -106q11 -37 11 -78q0 -28 -5 -57q-19 -100 -89 -168t-163 -96.5t-205 -28.5q-239 0 -397 140q-21 15 -4 39 z" />
<glyph unicode="t" horiz-adv-x="628" d="M86 191q-8 38 -8 82.5t8 97.5l166 921q3 27 31 27h143q14 0 22 -8t7 -21l-17 -246h189q31 0 24 -30l-24 -146q-3 -26 -31 -26h-190l-87 -490q-4 -28 -4 -51q0 -119 115 -119h70q30 3 24 -28l-24 -146q-3 -25 -29 -28q-63 -5 -78 -5q-76 0 -137.5 22.5t-107.5 70.5 t-62 123z" />
<glyph unicode="u" horiz-adv-x="1099" d="M96 438l107 598q2 11 10 19t20 8h181q14 0 20.5 -9.5t3.5 -23.5l-108 -610q-8 -42 -8 -77q0 -161 176 -161q91 0 184 33l149 821q1 12 10 19.5t21 7.5h180q15 0 21.5 -9.5t3.5 -23.5l-172 -946q-3 -22 -25 -31q-204 -78 -397 -78q-211 -1 -313 127q-75 93 -74 229 q0 51 10 107z" />
<glyph unicode="v" horiz-adv-x="1015" d="M109 1032q-2 12 5.5 21.5t20.5 9.5h182q12 0 21 -7.5t10 -19.5l105 -788h4l366 792q11 23 35 23h199q17 0 22.5 -10t-2.5 -25l-520 -1008q-9 -20 -35 -20h-213q-27 0 -30 27z" />
<glyph unicode="w" horiz-adv-x="1488" d="M115 1032q-2 12 6.5 21.5t21.5 9.5h179q30 0 30 -29l17 -338q1 -31 6 -127.5t8.5 -179t3.5 -125.5h6q80 237 154 410l153 352q15 23 35 23h191q27 0 30 -29l29 -356q16 -226 16 -400h7q45 125 170 443l133 333q13 23 35 23h182q15 0 21 -10t-1 -25l-454 -1005 q-10 -23 -33 -23h-201q-28 0 -31 29l-24 399q-3 51 -7 175t-7 171h-7q-89 -257 -127 -346l-178 -405q-10 -23 -33 -23h-200q-28 0 -31 27z" />
<glyph unicode="x" horiz-adv-x="983" d="M-64.5 11q-5.5 11 5.5 24l407 508l-203 485q-6 15 1 25t22 10h190q25 0 31 -25l127 -340l244 346q15 19 35 19h202q17 0 23 -11.5t-6 -25.5l-371 -489l223 -504q13 -33 -22 -33h-195q-23 0 -33 23l-143 350l-268 -355q-10 -18 -35 -18h-211q-18 0 -23.5 11z" />
<glyph unicode="y" horiz-adv-x="1103" d="M8 -238l98 119q19 23 44 4q103 -86 245 -86q116 0 180 65t84 202q-110 -35 -200 -35q-186 0 -289 120q-76 90 -76 224q0 45 8 94l103 567q8 27 31 27h178q14 0 20.5 -9.5t3.5 -23.5l-102 -581q-7 -35 -7 -64q0 -65 33 -99q49 -50 142 -50q56 0 108 14.5t84 36.5l133 749 q2 11 10.5 19t20.5 8h180q13 0 21 -9.5t6 -23.5l-172 -967q-43 -243 -166 -358t-346 -115q-238 0 -375 131q-19 19 0 41z" />
<glyph unicode="z" horiz-adv-x="950" d="M-27 31l19 96q2 16 16 33l602 698h-430q-31 0 -24 31l26 147q3 27 31 27h723q14 0 21.5 -9.5t5.5 -23.5l-15 -86q-3 -20 -18 -35l-602 -702h469q31 0 24 -31l-26 -149q-1 -12 -10 -19.5t-21 -7.5h-764q-14 0 -22 9t-5 22z" />
<glyph unicode="{" horiz-adv-x="645" d="M84 653l22 154q6 26 31 29q35 6 64 27.5t48.5 53.5t33 67.5t20.5 74.5l62 358q27 153 97.5 217t205.5 64h88q13 0 20.5 -9.5t5.5 -21.5l-28 -160q-3 -26 -31 -26h-51q-37 0 -63.5 -26t-35.5 -75l-67 -376q-17 -100 -73.5 -176.5t-129.5 -104.5q55 -23 88 -105.5 t15 -179.5l-66 -379q-7 -48 4.5 -65t46.5 -17h62q15 0 21 -9t3 -23l-28 -158q-3 -27 -31 -27h-78q-270 0 -213 299l61 357q8 52 8.5 95t-20.5 74t-65 38q-30 3 -27 30z" />
<glyph unicode="|" horiz-adv-x="518" d="M8 -254l354 1991q3 26 31 26h162q30 0 27 -30l-353 -1991q-2 -12 -10 -19.5t-20 -7.5h-164q-30 0 -27 31z" />
<glyph unicode="}" horiz-adv-x="645" d="M-70 -209l29 160q3 26 31 26h51q37 0 63 26t35 75l68 377q17 99 73.5 175.5t129.5 104.5q-55 23 -88 105.5t-15 179.5l66 379q7 48 -4.5 65t-46.5 17h-62q-15 0 -21 9t-3 23l28 158q3 27 31 27h78q270 0 213 -299l-62 -357q-34 -189 78 -206q30 -3 27 -31l-23 -154 q-6 -25 -31 -28q-66 -11 -108 -75.5t-57 -148.5l-62 -358q-27 -153 -97.5 -217t-205.5 -64h-88q-13 0 -21 9.5t-6 21.5z" />
<glyph unicode="~" horiz-adv-x="1236" d="M186 659q-13 23 2 41q106 119 265 119q71 0 138.5 -21.5t124.5 -43t103 -21.5q40 0 84.5 15.5t75.5 42.5q23 16 41 -5l78 -98q15 -24 -2 -41q-106 -115 -258 -115q-68 0 -138 21t-130.5 42t-106.5 21q-41 0 -84 -16t-74 -43q-23 -23 -39 2z" />
<glyph unicode="&#xa1;" horiz-adv-x="512" d="M-25 -371l62 359l131 643q7 26 33 26h151q15 0 23 -9t6 -23l-98 -637l-66 -363q-3 -26 -31 -26h-186q-29 0 -25 30zM182 950q12 62 56.5 99.5t105.5 37.5q69 0 105 -48t24 -121q-11 -62 -54 -100t-104 -38q-69 0 -107 49t-26 121z" />
<glyph unicode="&#xa2;" horiz-adv-x="974" d="M86 434l45 258q29 162 141 265t273 124l28 172q4 27 31 27h103q29 0 26 -33l-28 -166q120 -13 235 -96q22 -16 6 -41l-94 -119q-17 -20 -39 -4q-92 60 -199 60q-100 0 -164 -55t-83 -150l-45 -258q-21 -114 24 -175t137 -61q123 0 242 78q27 17 41 -10l70 -133 q11 -24 -13 -39q-149 -93 -311 -101l-29 -167q-3 -27 -30 -27h-103q-29 0 -26 31l28 172q-153 31 -225.5 149.5t-40.5 298.5z" />
<glyph unicode="&#xa3;" horiz-adv-x="1085" d="M4 31l23 131q2 22 28 28q136 40 168 236l37 221h-115q-31 0 -24 31l24 147q4 25 31 25h121l41 233q32 187 156.5 296.5t302.5 109.5q207 0 331 -121q18 -18 0 -41l-90 -108q-19 -23 -43 -5q-83 74 -217 74q-86 0 -145 -59.5t-74 -161.5l-39 -217h309q14 0 21 -9t4 -22 l-27 -145q-3 -27 -30 -27h-310l-41 -235q-30 -155 -127 -209h603q14 0 20.5 -9t3.5 -22l-24 -145q-1 -12 -10 -19.5t-21 -7.5h-860q-30 0 -27 31z" />
<glyph unicode="&#xa4;" horiz-adv-x="1269" d="M80 279q-18 18 4 40l129 113q-55 129 -27 289q28 151 119 268l-84 98q-15 21 4 43l115 101q23 19 41 -2l82 -103q127 74 276 74q159 0 265 -82l126 113q21 21 41 -2l80 -96q18 -21 -4 -43l-131 -115q53 -123 25 -281q-28 -150 -119 -270l88 -102q15 -21 -4 -43l-115 -101 q-23 -19 -41 2l-86 109q-132 -74 -276 -74q-152 0 -258 76l-129 -113q-22 -19 -41 4zM381 707q-23 -138 41 -219.5t190 -81.5q122 0 218 86.5t118 214.5q22 138 -43.5 222.5t-189.5 84.5q-125 0 -218.5 -87.5t-115.5 -219.5z" />
<glyph unicode="&#xa5;" horiz-adv-x="1243" d="M184 240l23 122q7 27 33 27h237l21 115h-234q-15 0 -22 9.5t-4 23.5l22 122q3 27 31 27h162l-244 746q-4 15 2.5 23.5t21.5 8.5h195q26 0 31 -24l194 -695h4l418 699q11 20 33 20h213q17 0 22 -10t-4 -24l-489 -744h154q13 0 20.5 -8.5t5.5 -22.5l-24 -125 q-4 -26 -31 -26h-234l-20 -115h229q30 0 27 -31l-23 -122q-3 -27 -30 -27h-236l-35 -182q-3 -27 -30 -27h-185q-15 0 -22 8.5t-4 22.5l32 178h-233q-13 0 -21 8.5t-6 22.5z" />
<glyph unicode="&#xa6;" horiz-adv-x="524" d="M12 -254l152 856q1 12 10 19.5t21 7.5h163q13 0 21 -9.5t6 -21.5l-152 -856q-3 -27 -30 -27h-164q-13 0 -21 8.5t-6 22.5zM211 883l154 854q3 26 30 26h164q14 0 22 -8.5t5 -21.5l-154 -856q-4 -25 -31 -25h-163q-14 0 -22 9t-5 22z" />
<glyph unicode="&#xa7;" horiz-adv-x="1009" d="M-14 -180q-13 23 6 39l112 112q22 22 41 -4q44 -59 104.5 -90t127.5 -31q78 0 138.5 45t74.5 129q5 32 -6.5 58t-44.5 49t-59.5 36.5t-80.5 37.5q-80 35 -123 58.5t-99.5 70t-75 113t-3.5 153.5q17 92 75.5 161.5t148.5 112.5q-44 43 -69 120t-9 163q15 88 60.5 155.5 t107.5 105.5t128.5 56.5t135.5 18.5q170 0 303 -109q19 -20 0 -39l-100 -110q-17 -17 -41 -2q-73 49 -183 49q-74 0 -128 -41t-66 -113q-5 -33 4 -61t23.5 -46.5t47.5 -39t55.5 -31.5t67.5 -31q28 -12 45 -19.5t43.5 -20.5t43 -24t39.5 -27t36.5 -31.5t29 -36t23 -43.5 t13.5 -49.5t5 -58t-7 -66.5q-34 -178 -205 -269q56 -50 78.5 -118t3.5 -170q-22 -119 -88 -201t-156.5 -119t-200.5 -37q-119 0 -220 55t-156 140zM317 594q-15 -84 37 -127.5t209 -89.5q59 23 99 70.5t51 105.5q12 64 -36.5 105.5t-197.5 95.5q-71 -26 -111.5 -69 t-50.5 -91z" />
<glyph unicode="&#xa8;" horiz-adv-x="663" d="M150 1341q9 53 48 84t91 31q59 0 87.5 -37t16.5 -100q-10 -51 -49 -83t-90 -32q-59 0 -87.5 36.5t-16.5 100.5zM565 1341q9 53 48.5 84t91.5 31q58 0 87 -37.5t17 -99.5q-10 -51 -49 -83t-90 -32q-59 0 -88 36.5t-17 100.5z" />
<glyph unicode="&#xa9;" horiz-adv-x="1624" d="M120.5 472q-16.5 119 8.5 263q29 175 109.5 319t193 238.5t250.5 145.5t285 51q148 0 271 -54t205.5 -152.5t115.5 -247.5t2 -328q-30 -172 -109.5 -311.5t-191 -231t-247 -140.5t-282.5 -49q-118 0 -222 33t-184.5 96.5t-134 156t-70 211.5zM242 723q-26 -155 1.5 -278 t98 -200.5t174.5 -118t234 -40.5q120 0 233.5 42.5t208 120.5t162 198.5t92.5 267.5q26 167 2 291t-93 207t-171.5 124t-233.5 41q-123 0 -238 -43.5t-211 -124.5t-164.5 -206.5t-94.5 -280.5zM514 606l43 232q17 95 72 160.5t126 93.5t154 28q74 0 139.5 -28.5t108.5 -75.5 q16 -19 -2 -41l-78 -80q-21 -21 -39 0q-61 68 -145 68q-139 0 -166 -138l-41 -225q-12 -66 21 -98.5t98 -32.5q100 0 188 61q23 17 39 -8l41 -82q9 -24 -8 -41q-112 -92 -287 -92q-61 0 -113 19t-91 55t-56 94t-4 131z" />
<glyph unicode="&#xab;" horiz-adv-x="1089" d="M80 573q-9 21 4 41l340 414q16 19 37 19h186q19 0 24.5 -10.5t-5.5 -24.5l-351 -416l199 -418q7 -14 1 -23.5t-23 -9.5h-183q-25 0 -35 23zM512 573q-9 21 4 41l340 414q16 19 37 19h186q19 0 24.5 -10.5t-5.5 -24.5l-350 -416l198 -418q7 -14 1 -23.5t-23 -9.5h-183 q-24 0 -34 23z" />
<glyph unicode="&#xac;" horiz-adv-x="1236" d="M170 662l29 153q6 27 30 27h852q13 0 20.5 -9.5t4.5 -21.5l-82 -459q-3 -26 -31 -26h-157q-13 0 -21 9t-6 23l49 271h-661q-15 0 -22.5 9.5t-4.5 23.5z" />
<glyph unicode="&#xad;" horiz-adv-x="798" d="M121 530l29 166q2 12 10 19.5t20 7.5h500q15 0 21.5 -8.5t3.5 -22.5l-29 -166q-3 -26 -31 -26h-500q-31 0 -24 30z" />
<glyph unicode="&#xae;" horiz-adv-x="1005" d="M180 1083q33 183 170.5 294.5t317.5 111.5q81 0 151 -30.5t119 -86t69.5 -139t2.5 -182.5q-35 -194 -169 -304t-329 -110q-78 0 -146 31.5t-116 88t-68 142t-2 184.5zM266 1071q-28 -168 50 -261t219 -93q145 0 253 93.5t138 254.5q31 167 -48 256.5t-225 89.5 q-140 0 -250 -92t-137 -248zM426 885l66 375q3 18 18 18h139q65 0 101.5 -36.5t25.5 -104.5q-8 -52 -43 -83t-78 -36l74 -137q10 -17 -10 -17h-55q-12 0 -19 13l-65 137h-58l-22 -133q-3 -17 -19 -17h-41q-8 0 -12 6t-2 15zM537 1083h73q81 0 90 64q4 29 -12.5 44t-44.5 15 h-86z" />
<glyph unicode="&#xaf;" horiz-adv-x="604" d="M143 1257l23 125q3 27 31 27h520q15 0 22 -9.5t4 -23.5l-24 -123q-3 -26 -31 -26h-520q-14 0 -21 8.5t-4 21.5z" />
<glyph unicode="&#xb0;" horiz-adv-x="753" d="M186 1192q24 139 122 218t233 79q127 0 198.5 -93.5t48.5 -230.5q-25 -139 -120.5 -218t-237.5 -79q-125 0 -197 93.5t-47 230.5zM338 1182q-13 -83 22 -125.5t101 -42.5q64 0 112.5 43.5t61.5 122.5q12 76 -21 117.5t-96 41.5q-67 0 -117 -41.5t-63 -115.5z" />
<glyph unicode="&#xb1;" horiz-adv-x="1236" d="M96 119l29 151q6 27 31 27h850q13 0 19.5 -9t4.5 -22l-26 -151q-3 -27 -31 -27h-852q-15 0 -21.5 8.5t-3.5 22.5zM201 764l30 158q6 26 31 26h313l54 301q3 27 30 27h162q28 0 25 -31l-53 -297h313q13 0 19.5 -8.5t4.5 -21.5l-28 -158q-3 -27 -31 -27h-315l-51 -293 q-3 -26 -31 -26h-160q-30 0 -27 30l52 289h-314q-13 0 -20 8.5t-4 22.5z" />
<glyph unicode="&#xb2;" horiz-adv-x="647" d="M104 870l17 93q2 14 20 32l262 215q156 130 168 203q17 78 -73 78q-77 0 -166 -61q-29 -25 -41 6l-43 80q-10 24 8 36q125 93 266 93q115 0 172 -74.5t39 -173.5q-13 -70 -63.5 -135t-165.5 -170q-37 -34 -129 -99h270q15 0 22.5 -8.5t4.5 -21.5l-19 -97q-3 -26 -32 -26 h-488q-32 0 -29 30z" />
<glyph unicode="&#xb3;" horiz-adv-x="655" d="M115 946q-12 20 4 39l67 68q20 21 43 -2q64 -64 154 -64q59 0 101.5 32.5t54.5 92.5q9 52 -16 80.5t-77 28.5q-32 0 -63 -7q-31 -6 -37 21l-10 43q-6 23 10 39l80 78q64 58 109 90h-259q-30 0 -24 31l16 92q3 26 33 26h444q34 0 27 -30l-8 -60q-4 -14 -23 -33l-215 -188 q25 0 43 -4q68 -14 107 -76.5t22 -150.5q-23 -124 -111.5 -193.5t-215.5 -69.5q-163 0 -256 117z" />
<glyph unicode="&#xb4;" horiz-adv-x="561" d="M148 1221q-4 11 8 24l217 273q12 18 37 18h176q19 0 24 -11t-8 -24l-264 -276q-12 -15 -35 -15h-133q-18 0 -22 11z" />
<glyph unicode="&#xb6;" horiz-adv-x="1366" d="M126.5 834.5q-4.5 73.5 6.5 152.5q16 94 61.5 179t115 152t168 106.5t212.5 39.5h641q30 0 27 -30l-295 -1692q-7 -27 -33 -27h-162q-15 0 -22 8.5t-4 22.5l260 1493h-240l-260 -1497q-7 -27 -33 -27h-161q-15 0 -21.5 8.5t-3.5 22.5l131 735q-88 0 -159.5 27.5 t-117.5 75.5t-76 112.5t-34.5 138z" />
<glyph unicode="&#xb7;" horiz-adv-x="497" d="M119 653q9 62 53 100t107 38q72 0 110.5 -48t24.5 -122q-11 -61 -54.5 -98.5t-107.5 -37.5q-72 0 -109.5 48t-23.5 120z" />
<glyph unicode="&#xb8;" horiz-adv-x="364" d="M-150 -371l7 64q1 16 8.5 20.5t23.5 1.5q34 -10 70 -10q50 0 86.5 17.5t42.5 52.5q5 27 -15.5 41.5t-68.5 15.5q-23 0 -35 18q-6 9 6 29l62 109q11 20 35 20h71q17 0 22.5 -10t-3.5 -25l-45 -67q75 -4 115 -51.5t28 -116.5q-27 -162 -268 -162q-58 0 -121 18 q-24 9 -21 35z" />
<glyph unicode="&#xb9;" horiz-adv-x="448" d="M193 1475q-13 25 10 38l184 111q15 10 37 10h94q30 0 27 -30l-135 -738q-3 -26 -31 -26h-103q-29 0 -26 30l100 562l-78 -50q-26 -16 -39 11z" />
<glyph unicode="&#xbb;" horiz-adv-x="1085" d="M4.5 155.5q-5.5 10.5 5.5 24.5l350 416l-198 418q-7 14 -1 23.5t23 9.5h183q24 0 34 -23l195 -406q9 -21 -4 -40l-340 -414q-16 -19 -37 -19h-186q-19 0 -24.5 10.5zM436.5 155.5q-5.5 10.5 5.5 24.5l351 416l-199 418q-7 14 -1 23.5t23 9.5h183q25 0 35 -23l194 -406 q9 -21 -4 -40l-340 -414q-16 -19 -37 -19h-186q-19 0 -24.5 10.5z" />
<glyph unicode="&#xbc;" horiz-adv-x="1759" d="M133 11q-5 11 6 24l1186 1413q11 16 35 16h110q18 0 23 -10t-6 -24l-1184 -1414q-11 -16 -35 -16h-112q-18 0 -23 11zM195 1305q-13 25 10 38l184 111q15 10 37 10h94q30 0 27 -30l-133 -738q-6 -26 -33 -26h-102q-30 0 -27 30l100 562l-78 -50q-25 -15 -38 11zM1038 180 l15 82q3 16 16 33l332 481q14 19 39 19h116q17 0 22.5 -10.5t-5.5 -24.5l-313 -459h165l29 137q3 27 31 27h102q13 0 21 -8.5t6 -22.5l-25 -133h43q15 0 21.5 -8.5t3.5 -22.5l-19 -94q-3 -26 -32 -26h-45l-23 -123q-3 -27 -31 -27h-104q-30 0 -27 31l21 119h-330 q-33 0 -29 30z" />
<glyph unicode="&#xbd;" horiz-adv-x="1687" d="M108.5 11q-4.5 11 6.5 24l1185 1413q11 16 35 16h111q18 0 22.5 -10t-6.5 -24l-1183 -1414q-11 -16 -35 -16h-113q-18 0 -22.5 11zM193 1305q-13 25 10 38l184 111q15 10 37 10h94q30 0 27 -30l-133 -738q-6 -26 -33 -26h-103q-29 0 -26 30l100 562l-78 -50 q-26 -16 -39 11zM977 31l16 92q2 16 23 33l260 215q156 130 168 202q17 78 -74 78q-77 0 -166 -61q-29 -25 -41 6l-43 80q-11 25 8 37q123 92 267 92q115 0 172 -74.5t39 -173.5q-11 -69 -62 -133.5t-168 -171.5q-32 -29 -129 -98h271q15 0 22 -8.5t4 -22.5l-16 -96 q-7 -27 -33 -27h-489q-15 0 -23 8.5t-6 22.5z" />
<glyph unicode="&#xbe;" horiz-adv-x="1912" d="M109 774q-10 21 4 41l67 68q19 19 43 -2q62 -66 154 -66q58 0 100.5 33.5t54.5 93.5q9 52 -15.5 80.5t-76.5 28.5q-32 0 -63 -7q-31 -6 -37 21l-10 43q-7 23 10 37l80 80q67 61 108 90h-258q-30 0 -24 31l16 92q3 26 33 26h444q34 0 27 -30l-8 -60q-4 -14 -23 -33 l-215 -188q25 0 43 -4q68 -14 107 -76.5t22 -152.5q-23 -124 -111.5 -192.5t-215.5 -68.5q-164 0 -256 115zM329.5 11q-4.5 11 6.5 24l1186 1413q11 16 34 16h111q18 0 22.5 -10t-6.5 -24l-1183 -1414q-11 -16 -35 -16h-113q-18 0 -22.5 11zM1194 180l14 82q2 15 17 33 l331 481q14 19 39 19h117q17 0 22.5 -10.5t-5.5 -24.5l-314 -459h166l29 137q3 27 30 27h103q13 0 20.5 -8.5t5.5 -22.5l-24 -133h43q31 0 24 -31l-18 -94q-3 -26 -33 -26h-45l-22 -123q-3 -27 -31 -27h-104q-30 0 -27 31l20 119h-329q-33 0 -29 30z" />
<glyph unicode="&#xbf;" horiz-adv-x="995" d="M-25 27q13 71 42.5 127.5t67.5 93t81 67.5t85.5 57.5t79 55.5t64 70t37.5 92l10 57q3 25 31 25h174q13 0 20.5 -9.5t4.5 -23.5l-19 -109q-11 -59 -40 -107.5t-67 -81.5t-82 -62t-87.5 -56.5t-81 -57.5t-65 -72t-37.5 -93q-10 -41 -2.5 -78.5t27.5 -66.5t64 -46.5 t107 -17.5q160 0 320 121q10 9 21.5 6t17.5 -16l63 -127q10 -26 -8 -41q-203 -150 -443 -150q-90 0 -167.5 29t-133.5 83t-79.5 140t-4.5 191zM459 948q11 62 54.5 99.5t104.5 37.5q69 0 106.5 -49t25.5 -121q-12 -62 -55.5 -99.5t-104.5 -37.5q-69 0 -106 48t-25 122z" />
<glyph unicode="&#xc0;" horiz-adv-x="1249" d="M-77.5 10q-5.5 10 1.5 23l707 1411q11 20 35 20h231q27 0 33 -26l219 -1407q2 -14 -6 -22.5t-23 -8.5h-190q-28 0 -31 27l-41 303h-518l-147 -307q-13 -23 -37 -23h-211q-17 0 -22.5 10zM444 553h383l-79 641h-9zM539.5 1909q4.5 10 21.5 10h182q23 0 35 -21l148 -270 q9 -15 2.5 -25t-23.5 -10h-139q-21 0 -37 19l-184 272q-10 15 -5.5 25z" />
<glyph unicode="&#xc1;" horiz-adv-x="1249" d="M-79.5 10q-5.5 10 1.5 23l707 1411q11 20 35 20h231q27 0 33 -26l219 -1407q2 -14 -6 -22.5t-23 -8.5h-190q-28 0 -31 27l-41 303h-518l-148 -307q-13 -23 -36 -23h-211q-17 0 -22.5 10zM442 553h383l-80 641h-8zM678 1604.5q-4 11.5 8 23.5l248 277q11 14 35 14h196 q19 0 24 -11.5t-7 -23.5l-297 -276q-15 -15 -35 -15h-150q-18 0 -22 11.5z" />
<glyph unicode="&#xc2;" horiz-adv-x="1249" d="M-75.5 10q-5.5 10 1.5 23l707 1411q11 20 35 20h231q27 0 33 -26l219 -1407q2 -14 -6 -22.5t-23 -8.5h-190q-28 0 -31 27l-41 303h-518l-147 -307q-13 -23 -37 -23h-211q-17 0 -22.5 10zM446 553h383l-79 641h-9zM453.5 1604.5q-4.5 11.5 9.5 23.5l280 277q14 14 35 14 h154q23 0 35 -18l184 -273q9 -14 4 -24.5t-22 -10.5h-166q-24 0 -35 19l-96 153l-152 -155q-17 -17 -37 -17h-170q-19 0 -23.5 11.5z" />
<glyph unicode="&#xc3;" horiz-adv-x="1249" d="M-77.5 10q-5.5 10 1.5 23l707 1411q11 20 35 20h231q27 0 33 -26l219 -1407q2 -14 -6 -22.5t-23 -8.5h-190q-28 0 -31 27l-41 303h-518l-147 -307q-13 -23 -37 -23h-211q-17 0 -22.5 10zM444 553h383l-79 641h-9zM479 1749q33 64 89.5 106.5t123.5 42.5q55 0 146 -38 q87 -37 114 -37q41 0 78 47q17 20 41 8l82 -53q12 -6 15 -16t-3 -19q-35 -62 -91.5 -109t-123.5 -47q-42 0 -145 41q-84 37 -121 37q-43 0 -72 -45q-16 -26 -39 -10l-84 53q-22 16 -10 39z" />
<glyph unicode="&#xc4;" horiz-adv-x="1249" d="M-77.5 10q-5.5 10 1.5 23l707 1411q11 20 35 20h231q27 0 33 -26l219 -1407q2 -14 -6 -22.5t-23 -8.5h-190q-28 0 -31 27l-41 303h-518l-147 -307q-13 -23 -37 -23h-211q-17 0 -22.5 10zM444 553h383l-79 641h-9zM506 1745q8 55 47.5 91t95.5 36q59 0 88.5 -39.5 t20.5 -95.5q-9 -57 -48 -92t-96 -35q-62 0 -89 40t-19 95zM924 1745q8 55 47.5 91t95.5 36q59 0 88 -39t21 -96q-9 -58 -47.5 -92.5t-96.5 -34.5q-62 0 -90 40.5t-18 94.5z" />
<glyph unicode="&#xc5;" horiz-adv-x="1249" d="M-77.5 10q-5.5 10 1.5 23l707 1411q11 20 35 20h231q27 0 33 -26l219 -1407q2 -14 -6 -22.5t-23 -8.5h-190q-28 0 -31 27l-41 303h-518l-147 -307q-13 -23 -37 -23h-211q-17 0 -22.5 10zM444 553h383l-79 641h-9zM606 1792q20 113 95 173t192 60q95 0 154.5 -72 t42.5 -169q-21 -113 -94 -171.5t-185 -58.5q-99 0 -160.5 69.5t-44.5 168.5zM748 1788q-8 -47 14.5 -72.5t71.5 -25.5q44 0 75 27t37 71q9 49 -12 74.5t-66 25.5q-46 0 -79.5 -27.5t-40.5 -72.5z" />
<glyph unicode="&#xc6;" horiz-adv-x="1775" d="M-86.5 10q-6.5 10 2.5 25l918 1411q10 18 34 18h918q31 0 24 -30l-26 -162q-1 -12 -10 -19.5t-21 -7.5h-561l-68 -389h510q14 0 21 -9t6 -24l-29 -159q-3 -27 -30 -27h-517l-71 -416h585q14 0 22 -9t5 -22l-31 -163q-3 -27 -30 -27h-807q-15 0 -22.5 8.5t-4.5 22.5 l55 309h-391l-202 -320q-11 -20 -35 -20h-221q-17 0 -23.5 10zM530 561h295l121 670h-6z" />
<glyph unicode="&#xc7;" horiz-adv-x="1159" d="M115 532l80 459q21 125 79 222t140 156.5t179 89.5t204 30q237 0 413 -139q21 -18 4 -41l-118 -138q-17 -20 -39 -4q-130 95 -283 95q-133 0 -221 -81t-113 -223l-75 -444q-24 -140 38.5 -225.5t194.5 -85.5q79 0 172.5 32t167.5 87q26 19 39 -11l80 -151q11 -25 -6 -37 q-198 -126 -424 -143q0 -1 -1 -4.5t-1 -4.5l-39 -65q72 -6 112.5 -51t28.5 -111q-15 -90 -83 -132t-193 -42q-58 0 -117 18q-24 9 -21 35l9 68q1 16 8.5 20.5t23.5 1.5q31 -10 68 -10q108 0 125 70q6 27 -13 41.5t-69 15.5q-23 0 -37 18q-4 8 6 29l58 100 q-203 20 -310.5 165.5t-66.5 389.5z" />
<glyph unicode="&#xc8;" horiz-adv-x="1148" d="M72 31l250 1407q3 26 30 26h813q30 0 27 -30l-31 -166q-3 -27 -31 -27h-598l-67 -385h543q13 0 20.5 -8.5t5.5 -22.5l-30 -163q-3 -27 -31 -27h-547l-72 -410h619q29 0 26 -32l-28 -166q-3 -27 -31 -27h-842q-13 0 -20.5 8.5t-5.5 22.5zM517 1909q5 10 22 10h182 q23 0 35 -21l147 -270q9 -15 3 -25t-23 -10h-140q-20 0 -36 19l-185 272q-10 15 -5 25z" />
<glyph unicode="&#xc9;" horiz-adv-x="1148" d="M72 31l250 1407q3 26 30 26h813q30 0 27 -30l-31 -166q-3 -27 -31 -27h-598l-67 -385h543q13 0 20.5 -8.5t5.5 -22.5l-30 -163q-3 -27 -31 -27h-547l-72 -410h619q29 0 26 -32l-28 -166q-3 -27 -31 -27h-842q-13 0 -20.5 8.5t-5.5 22.5zM627 1604.5q-4 11.5 8 23.5 l248 277q11 14 35 14h196q18 0 23 -11.5t-7 -23.5l-296 -276q-15 -15 -35 -15h-150q-18 0 -22 11.5z" />
<glyph unicode="&#xca;" horiz-adv-x="1148" d="M72 31l250 1407q3 26 30 26h813q30 0 27 -30l-31 -166q-3 -27 -31 -27h-598l-67 -385h543q13 0 20.5 -8.5t5.5 -22.5l-30 -163q-3 -27 -31 -27h-547l-72 -410h619q29 0 26 -32l-28 -166q-3 -27 -31 -27h-842q-13 0 -20.5 8.5t-5.5 22.5zM437 1604.5q-5 11.5 9 23.5 l281 277q14 14 35 14h153q23 0 35 -18l185 -273q9 -14 3.5 -24.5t-22.5 -10.5h-166q-24 0 -35 19l-96 153l-151 -155q-17 -17 -37 -17h-170q-19 0 -24 11.5z" />
<glyph unicode="&#xcb;" horiz-adv-x="1148" d="M72 31l250 1407q3 26 30 26h813q30 0 27 -30l-31 -166q-3 -27 -31 -27h-598l-67 -385h543q13 0 20.5 -8.5t5.5 -22.5l-30 -163q-3 -27 -31 -27h-547l-72 -410h619q29 0 26 -32l-28 -166q-3 -27 -31 -27h-842q-13 0 -20.5 8.5t-5.5 22.5zM479 1745q8 55 48 91t96 36 q59 0 88 -39.5t20 -95.5q-9 -57 -47.5 -92t-95.5 -35q-62 0 -89.5 40.5t-19.5 94.5zM897 1745q8 55 47.5 91t95.5 36q59 0 88 -39t21 -96q-9 -58 -47 -92.5t-96 -34.5q-62 0 -90.5 40.5t-18.5 94.5z" />
<glyph unicode="&#xcc;" horiz-adv-x="569" d="M72 31l247 1407q3 26 31 26h189q29 0 26 -30l-248 -1407q-2 -12 -10 -19.5t-20 -7.5h-189q-29 0 -26 31zM205.5 1909q4.5 10 21.5 10h183q22 0 34 -21l148 -270q9 -15 2.5 -25t-23.5 -10h-139q-21 0 -37 19l-184 272q-10 15 -5.5 25z" />
<glyph unicode="&#xcd;" horiz-adv-x="569" d="M72 31l247 1407q3 26 31 26h189q29 0 26 -30l-248 -1407q-2 -12 -10 -19.5t-20 -7.5h-189q-29 0 -26 31zM346.5 1604.5q-4.5 11.5 7.5 23.5l248 277q11 14 35 14h197q18 0 23 -11.5t-7 -23.5l-297 -276q-15 -15 -35 -15h-149q-18 0 -22.5 11.5z" />
<glyph unicode="&#xce;" horiz-adv-x="569" d="M72 31l247 1407q7 26 33 26h187q15 0 22 -8t4 -22l-248 -1407q-2 -12 -10 -19.5t-20 -7.5h-189q-29 0 -26 31zM154 1602.5q-4 11.5 8 23.5l256 277q11 14 35 14h131q21 0 34 -19l154 -272q9 -15 4 -25t-22 -10h-158q-26 0 -35 21l-63 131l-123 -137q-12 -15 -35 -15h-164 q-18 0 -22 11.5z" />
<glyph unicode="&#xcf;" horiz-adv-x="569" d="M72 31l247 1407q3 26 31 26h189q29 0 26 -30l-248 -1407q-2 -12 -10 -19.5t-20 -7.5h-189q-29 0 -26 31zM184 1745q9 55 49 91t97 36q59 0 87.5 -39t20.5 -96q-9 -57 -47.5 -92t-95.5 -35q-62 0 -90.5 40.5t-20.5 94.5zM565 1745q9 55 49.5 91t96.5 36q59 0 87.5 -39 t20.5 -96q-9 -58 -47 -92.5t-96 -34.5q-63 0 -91 40t-20 95z" />
<glyph unicode="&#xd0;" horiz-adv-x="1343" d="M41 702l20 105q3 27 31 27h141l107 604q3 26 31 26h487q114 0 205.5 -38t150 -109t81 -173.5t-0.5 -232.5l-69 -397q-47 -262 -197.5 -388t-413.5 -126h-495q-15 0 -22.5 8.5t-4.5 22.5l113 641h-139q-14 0 -21 8.5t-4 21.5zM373 223h266q283 0 338 312l70 401 q27 158 -27 231.5t-191 73.5h-278l-72 -407h252q15 0 22.5 -9.5t4.5 -21.5l-21 -105q-3 -26 -30 -26h-256z" />
<glyph unicode="&#xd1;" horiz-adv-x="1392" d="M72 31l250 1407q3 26 30 26h213q27 0 33 -22l242 -684q24 -72 69 -208.5t58 -176.5h8q51 399 84 579l86 486q3 26 31 26h188q14 0 21 -8.5t6 -21.5l-250 -1407q-3 -27 -31 -27h-211q-24 0 -33 23l-243 626q-61 159 -131 422h-9q-33 -307 -88 -594l-78 -450 q-2 -12 -10 -19.5t-20 -7.5h-189q-29 0 -26 31zM557 1749q33 64 89.5 106.5t123.5 42.5q54 0 145 -38q87 -37 115 -37q41 0 78 47q17 20 41 8l82 -53q12 -6 15 -16t-3 -19q-35 -62 -91.5 -109t-123.5 -47q-42 0 -145 41q-84 37 -121 37q-43 0 -72 -45q-16 -26 -39 -10 l-84 53q-22 16 -10 39z" />
<glyph unicode="&#xd2;" horiz-adv-x="1337" d="M119 575l67 383q43 250 212 390.5t429 140.5q176 0 292 -77.5t158 -208.5t13 -300l-67 -389q-43 -257 -214.5 -398t-437.5 -141q-173 0 -286 77t-154.5 211.5t-11.5 311.5zM367 549q-28 -151 36 -248.5t197 -97.5q152 0 249 85.5t124 237.5l69 400q26 150 -37 243 t-206 93q-151 0 -244 -84.5t-121 -241.5zM594.5 1909q4.5 10 21.5 10h183q23 0 35 -21l147 -270q9 -15 3 -25t-23 -10h-140q-21 0 -37 19l-184 272q-10 15 -5.5 25z" />
<glyph unicode="&#xd3;" horiz-adv-x="1337" d="M119 575l67 383q43 250 212 390.5t429 140.5q176 0 292 -77.5t158 -208.5t13 -300l-67 -389q-43 -257 -214.5 -398t-437.5 -141q-173 0 -286 77t-154.5 211.5t-11.5 311.5zM367 549q-28 -151 36 -248.5t197 -97.5q152 0 249 85.5t124 237.5l69 400q26 150 -37 243 t-206 93q-151 0 -244 -84.5t-121 -241.5zM705 1604.5q-4 11.5 8 23.5l248 277q11 14 34 14h197q18 0 23 -11.5t-7 -23.5l-297 -276q-15 -15 -34 -15h-150q-18 0 -22 11.5z" />
<glyph unicode="&#xd4;" horiz-adv-x="1337" d="M119 575l67 383q43 250 212 390.5t429 140.5q176 0 292 -77.5t158 -208.5t13 -300l-67 -389q-43 -257 -214.5 -398t-437.5 -141q-173 0 -286 77t-154.5 211.5t-11.5 311.5zM367 549q-28 -151 36 -248.5t197 -97.5q152 0 249 85.5t124 237.5l69 400q26 150 -37 243 t-206 93q-151 0 -244 -84.5t-121 -241.5zM498.5 1604.5q-4.5 11.5 9.5 23.5l280 277q14 14 35 14h154q23 0 35 -18l184 -273q9 -14 4 -24.5t-22 -10.5h-166q-24 0 -35 19l-96 153l-152 -155q-17 -17 -37 -17h-170q-19 0 -23.5 11.5z" />
<glyph unicode="&#xd5;" horiz-adv-x="1337" d="M119 575l67 383q43 250 212 390.5t429 140.5q176 0 292 -77.5t158 -208.5t13 -300l-67 -389q-43 -257 -214.5 -398t-437.5 -141q-173 0 -286 77t-154.5 211.5t-11.5 311.5zM367 549q-28 -151 36 -248.5t197 -97.5q152 0 249 85.5t124 237.5l69 400q26 150 -37 243 t-206 93q-151 0 -244 -84.5t-121 -241.5zM526 1749q33 64 89.5 106.5t123.5 42.5q55 0 146 -38q87 -37 114 -37q41 0 78 47q17 20 41 8l82 -53q26 -13 12 -35q-35 -62 -91.5 -109t-123.5 -47q-43 0 -145 41q-84 37 -121 37q-43 0 -72 -45q-16 -26 -38 -10l-84 53 q-22 16 -11 39z" />
<glyph unicode="&#xd6;" horiz-adv-x="1337" d="M119 575l67 383q43 250 212 390.5t429 140.5q176 0 292 -77.5t158 -208.5t13 -300l-67 -389q-43 -257 -214.5 -398t-437.5 -141q-173 0 -286 77t-154.5 211.5t-11.5 311.5zM367 549q-28 -151 36 -248.5t197 -97.5q152 0 249 85.5t124 237.5l69 400q26 150 -37 243 t-206 93q-151 0 -244 -84.5t-121 -241.5zM553 1745q8 55 47.5 91t95.5 36q59 0 88.5 -39.5t20.5 -95.5q-9 -57 -47.5 -92t-95.5 -35q-62 0 -89.5 40.5t-19.5 94.5zM971 1745q8 55 47.5 91t95.5 36q59 0 88 -39t21 -96q-9 -58 -47.5 -92.5t-96.5 -34.5q-62 0 -90 40.5 t-18 94.5z" />
<glyph unicode="&#xd7;" horiz-adv-x="1236" d="M121 317q-19 22 4 41l369 326l-258 322q-14 23 4 41l127 108q23 19 41 -2l254 -317l366 323q23 20 43 -4l96 -115q19 -22 -2 -43l-370 -327l254 -320q17 -20 -5 -39l-126 -108q-23 -23 -41 2l-252 315l-363 -321q-22 -19 -43 2z" />
<glyph unicode="&#xd8;" horiz-adv-x="1337" d="M35 -100.5q-5 10.5 6 24.5l149 217q-119 162 -71 434l67 383q43 250 212 390.5t429 140.5q147 0 250 -53l74 106q15 19 35 19h151q17 0 22 -11t-5 -26l-140 -203q120 -161 76 -418l-67 -389q-43 -257 -214.5 -398t-437.5 -141q-138 0 -245 52l-82 -119q-13 -19 -35 -19 h-152q-17 0 -22 10.5zM365 395l571 834q-61 33 -137 33q-151 0 -244 -84.5t-121 -241.5l-67 -387q-15 -82 -2 -154zM469 236q53 -33 131 -33q152 0 249 85.5t124 237.5l69 400q12 80 0 145z" />
<glyph unicode="&#xd9;" horiz-adv-x="1357" d="M154 563l153 875q3 26 31 26h190q15 0 21.5 -8t3.5 -22l-158 -899q-28 -159 35.5 -246.5t190.5 -87.5q133 0 221 79.5t114 231.5l162 926q3 26 31 26h190q14 0 21 -8.5t4 -21.5l-164 -949q-40 -240 -200.5 -375t-417.5 -135q-234 0 -354.5 162.5t-73.5 425.5zM599 1909 q5 10 22 10h182q23 0 35 -21l147 -270q9 -15 3 -25t-23 -10h-140q-21 0 -37 19l-184 272q-10 15 -5 25z" />
<glyph unicode="&#xda;" horiz-adv-x="1357" d="M154 563l153 875q3 26 31 26h190q15 0 21.5 -8t3.5 -22l-158 -899q-28 -159 35.5 -246.5t190.5 -87.5q133 0 221 79.5t114 231.5l162 926q3 26 31 26h190q14 0 21 -8.5t4 -21.5l-164 -949q-40 -240 -200.5 -375t-417.5 -135q-234 0 -354.5 162.5t-73.5 425.5zM723 1604.5 q-4 11.5 8 23.5l248 277q11 14 35 14h196q19 0 24 -11.5t-7 -23.5l-297 -276q-15 -15 -35 -15h-150q-18 0 -22 11.5z" />
<glyph unicode="&#xdb;" horiz-adv-x="1357" d="M154 563l153 875q3 26 31 26h190q15 0 21.5 -8t3.5 -22l-158 -899q-28 -159 35.5 -246.5t190.5 -87.5q133 0 221 79.5t114 231.5l162 926q3 26 31 26h190q14 0 21 -8.5t4 -21.5l-164 -949q-40 -240 -200.5 -375t-417.5 -135q-234 0 -354.5 162.5t-73.5 425.5z M506.5 1604.5q-4.5 11.5 9.5 23.5l281 277q14 14 34 14h154q23 0 35 -18l184 -273q9 -14 4 -24.5t-22 -10.5h-166q-24 0 -35 19l-96 153l-152 -155q-17 -17 -37 -17h-170q-19 0 -23.5 11.5z" />
<glyph unicode="&#xdc;" horiz-adv-x="1357" d="M154 563l153 875q3 26 31 26h190q15 0 21.5 -8t3.5 -22l-158 -899q-28 -159 35.5 -246.5t190.5 -87.5q133 0 221 79.5t114 231.5l162 926q3 26 31 26h190q14 0 21 -8.5t4 -21.5l-164 -949q-40 -240 -200.5 -375t-417.5 -135q-234 0 -354.5 162.5t-73.5 425.5zM559 1745 q8 55 47.5 91t95.5 36q59 0 88.5 -39.5t20.5 -95.5q-9 -57 -47.5 -92t-95.5 -35q-62 0 -89.5 40.5t-19.5 94.5zM977 1745q8 55 47.5 91t95.5 36q59 0 88 -39t21 -96q-9 -58 -47.5 -92.5t-96.5 -34.5q-62 0 -90 40.5t-18 94.5z" />
<glyph unicode="&#xdd;" horiz-adv-x="1150" d="M160 1432q-4 15 3 23.5t21 8.5h201q26 0 31 -24l192 -686h4l414 690q11 20 33 20h217q17 0 23 -10t-3 -24l-594 -902l-92 -501q-3 -27 -30 -27h-193q-15 0 -21.5 8.5t-3.5 22.5l91 499zM629 1604.5q-4 11.5 8 23.5l248 277q11 14 35 14h196q19 0 24 -11.5t-7 -23.5 l-297 -276q-15 -15 -35 -15h-150q-18 0 -22 11.5z" />
<glyph unicode="&#xde;" horiz-adv-x="1253" d="M72 31l250 1407q3 26 30 26h191q14 0 20.5 -8.5t3.5 -21.5l-32 -181h239q98 0 178.5 -26.5t133 -73.5t86.5 -111.5t40 -139.5t-6 -159q-40 -230 -185 -349.5t-396 -119.5h-263l-43 -247q-2 -12 -10 -19.5t-20 -7.5h-191q-13 0 -20.5 8.5t-5.5 22.5zM403 498h244 q265 0 311 268q45 264 -219 264h-243z" />
<glyph unicode="&#xdf;" horiz-adv-x="1124" d="M37 31l180 1011q42 219 177 333t327 114q188 0 292.5 -125.5t71.5 -321.5q-14 -84 -63.5 -161.5t-136.5 -116.5q90 -49 126.5 -140.5t14.5 -209.5q-34 -194 -170.5 -306t-310.5 -112q-95 0 -172 27q-24 7 -21 34l29 140q6 28 35 22q49 -14 116 -14q94 0 170.5 65 t94.5 176q14 99 -33 149t-139 50h-129q-30 0 -27 31l29 149q4 27 30 27h125q67 0 127 61t74 156q17 96 -25 152.5t-122 56.5q-102 0 -167.5 -65t-90.5 -189l-177 -997q-2 -12 -10 -19.5t-20 -7.5h-179q-29 0 -26 31z" />
<glyph unicode="&#xe0;" horiz-adv-x="1024" d="M18 352q27 146 153 219.5t314 73.5q99 0 211 -22l11 63q18 99 -19.5 146t-148.5 47q-139 0 -265 -70q-29 -14 -38 14l-54 127q-9 27 6 37q162 100 392 100q196 0 294.5 -116.5t63.5 -311.5l-102 -581q-3 -21 -25 -31q-205 -72 -418 -72q-118 0 -210 42.5t-139.5 130 t-25.5 204.5zM252 330q-14 -76 31 -114t133 -38q74 0 207 25l39 233q-87 17 -181 17q-207 0 -229 -123zM376.5 1525q5.5 11 22.5 11h166q24 0 33 -23l117 -270q7 -15 0.5 -24t-21.5 -9h-125q-23 0 -32 19l-158 272q-8 13 -2.5 24z" />
<glyph unicode="&#xe1;" horiz-adv-x="1024" d="M18 352q27 146 153 219.5t314 73.5q99 0 211 -22l11 63q18 99 -19.5 146t-148.5 47q-139 0 -265 -70q-29 -14 -38 14l-54 127q-9 27 6 37q162 100 392 100q196 0 294.5 -116.5t63.5 -311.5l-102 -581q-3 -21 -25 -31q-205 -72 -418 -72q-118 0 -210 42.5t-139.5 130 t-25.5 204.5zM252 330q-14 -76 31 -114t133 -38q74 0 207 25l39 233q-87 17 -181 17q-207 0 -229 -123zM467 1221q-4 11 8 24l217 273q12 18 37 18h176q19 0 24.5 -11t-7.5 -24l-265 -276q-12 -15 -34 -15h-134q-18 0 -22 11z" />
<glyph unicode="&#xe2;" horiz-adv-x="1024" d="M18 352q27 146 153 219.5t314 73.5q99 0 211 -22l11 63q18 99 -19.5 146t-148.5 47q-139 0 -265 -70q-29 -14 -38 14l-54 127q-9 27 6 37q162 100 392 100q196 0 294.5 -116.5t63.5 -311.5l-102 -581q-3 -21 -25 -31q-205 -72 -418 -72q-118 0 -210 42.5t-139.5 130 t-25.5 204.5zM252 330q-14 -76 31 -114t133 -38q74 0 207 25l39 233q-87 17 -181 17q-207 0 -229 -123zM285.5 1221q-4.5 11 7.5 24l278 275q16 16 37 16h135q22 0 33 -20l172 -271q8 -15 3.5 -25t-21.5 -10h-146q-22 0 -32 19l-95 157l-155 -161q-15 -15 -37 -15h-156 q-19 0 -23.5 11z" />
<glyph unicode="&#xe3;" horiz-adv-x="1024" d="M18 352q27 146 153 219.5t314 73.5q99 0 211 -22l11 63q18 99 -19.5 146t-148.5 47q-139 0 -265 -70q-29 -14 -38 14l-54 127q-9 27 6 37q162 100 392 100q196 0 294.5 -116.5t63.5 -311.5l-102 -581q-3 -21 -25 -31q-205 -72 -418 -72q-118 0 -210 42.5t-139.5 130 t-25.5 204.5zM252 330q-14 -76 31 -114t133 -38q74 0 207 25l39 233q-87 17 -181 17q-207 0 -229 -123zM293 1307q38 61 93.5 105t123.5 44q49 0 141 -41q84 -37 113 -37q41 0 78 47q18 21 41 9l80 -54q24 -15 14 -37q-38 -61 -94 -106t-121 -45q-59 0 -146 41 q-80 37 -110 37q-45 0 -82 -47q-19 -23 -41 -9l-80 54q-26 13 -10 39z" />
<glyph unicode="&#xe4;" horiz-adv-x="1024" d="M18 352q27 146 153 219.5t314 73.5q99 0 211 -22l11 63q18 99 -19.5 146t-148.5 47q-139 0 -265 -70q-29 -14 -38 14l-54 127q-9 27 6 37q162 100 392 100q196 0 294.5 -116.5t63.5 -311.5l-102 -581q-3 -21 -25 -31q-205 -72 -418 -72q-118 0 -210 42.5t-139.5 130 t-25.5 204.5zM252 330q-14 -76 31 -114t133 -38q74 0 207 25l39 233q-87 17 -181 17q-207 0 -229 -123zM295 1341q9 53 48 84t91 31q59 0 88 -37t17 -100q-10 -51 -49.5 -83t-90.5 -32q-59 0 -87.5 36.5t-16.5 100.5zM711 1341q9 53 48 84t91 31q58 0 87 -37.5t17 -99.5 q-10 -51 -49 -83t-90 -32q-59 0 -87.5 36.5t-16.5 100.5z" />
<glyph unicode="&#xe5;" horiz-adv-x="1024" d="M18 352q27 146 153 219.5t314 73.5q99 0 211 -22l11 63q18 99 -19.5 146t-148.5 47q-139 0 -265 -70q-29 -14 -38 14l-54 127q-9 27 6 37q162 100 392 100q196 0 294.5 -116.5t63.5 -311.5l-102 -581q-3 -21 -25 -31q-205 -72 -418 -72q-118 0 -210 42.5t-139.5 130 t-25.5 204.5zM252 330q-14 -76 31 -114t133 -38q74 0 207 25l39 233q-87 17 -181 17q-207 0 -229 -123zM408 1389q19 109 92 169t184 60q89 0 147 -69t41 -160q-20 -108 -92.5 -168t-177.5 -60q-92 0 -151.5 68.5t-42.5 159.5zM541 1389q-7 -44 17 -72.5t67 -28.5 q42 0 72 28t38 73q9 45 -12 72.5t-64 27.5q-44 0 -76.5 -27t-41.5 -73z" />
<glyph unicode="&#xe6;" horiz-adv-x="1613" d="M25 352q22 98 90 163.5t165.5 94.5t221.5 29q102 0 188 -14l15 88q33 166 -166 166q-66 0 -140 -18.5t-133 -49.5q-30 -14 -39 12l-57 133q-9 25 12 37q82 43 184 68.5t199 25.5q110 0 179 -34.5t116 -102.5q140 137 336 137q182 0 290 -115t75 -296l-39 -217 q-1 -12 -10 -19.5t-21 -7.5h-604l-10 -63q-15 -97 27 -143t149 -46q150 0 293 99q23 18 40 -9l64 -112q13 -26 -8 -41q-87 -66 -202 -104t-216 -38q-146 0 -262 97q-90 -47 -170 -72t-174 -25q-201 0 -315.5 104.5t-77.5 272.5zM256 330q-16 -74 34 -113t136 -39 q62 0 124.5 19.5t102.5 46.5q-16 67 -4 135l10 63q-83 13 -163 13q-212 0 -240 -125zM920 614h409l12 76q17 93 -32 142t-140 49q-93 0 -158.5 -52.5t-80.5 -144.5z" />
<glyph unicode="&#xe7;" horiz-adv-x="929" d="M72 434l45 258q33 182 168 288.5t325 106.5q174 0 316 -102q21 -18 4 -41l-92 -119q-16 -19 -41 -4q-92 60 -199 60q-99 0 -164 -55t-82 -150l-45 -258q-21 -114 24.5 -175t137.5 -61q123 0 242 78q27 17 41 -10l69 -133q10 -23 -10 -41q-148 -87 -315 -99l-45 -71 q75 -4 115 -51.5t28 -116.5q-27 -162 -268 -162q-58 0 -121 18q-24 9 -21 35l6 64q2 28 33 22q34 -10 70 -10q50 0 86.5 17.5t42.5 52.5q5 27 -15.5 41.5t-68.5 15.5q-23 0 -35 18q-6 9 6 29l58 103q-167 24 -247.5 144t-47.5 308z" />
<glyph unicode="&#xe8;" horiz-adv-x="1050" d="M63 381l58 317q18 99 67 175.5t117 122t145.5 68.5t161.5 23q96 0 173.5 -26t131.5 -76.5t74.5 -133t1.5 -187.5l-37 -207q-3 -27 -30 -27h-617l-10 -55q-21 -96 26.5 -145.5t149.5 -49.5q146 0 301 103q10 8 21.5 5.5t17.5 -14.5l72 -120q14 -27 -8 -41 q-194 -138 -437 -138q-89 0 -164.5 27t-130.5 76.5t-78.5 128t-5.5 174.5zM342 614h414l12 70q21 98 -29 148.5t-147 50.5q-89 0 -153.5 -51.5t-82.5 -147.5zM389 1525q6 11 23 11h166q23 0 32 -23l117 -270q7 -15 1 -24t-21 -9h-125q-24 0 -33 19l-158 272q-8 13 -2 24z " />
<glyph unicode="&#xe9;" horiz-adv-x="1050" d="M63 381l58 317q18 99 67 175.5t117 122t145.5 68.5t161.5 23q96 0 173.5 -26t131.5 -76.5t74.5 -133t1.5 -187.5l-37 -207q-3 -27 -30 -27h-617l-10 -55q-21 -96 26.5 -145.5t149.5 -49.5q146 0 301 103q10 8 21.5 5.5t17.5 -14.5l72 -120q14 -27 -8 -41 q-194 -138 -437 -138q-89 0 -164.5 27t-130.5 76.5t-78.5 128t-5.5 174.5zM342 614h414l12 70q21 98 -29 148.5t-147 50.5q-89 0 -153.5 -51.5t-82.5 -147.5zM504 1221q-4 11 8 24l217 273q12 18 37 18h176q19 0 24 -11t-8 -24l-264 -276q-12 -15 -35 -15h-133q-18 0 -22 11 z" />
<glyph unicode="&#xea;" horiz-adv-x="1050" d="M63 381l58 317q18 99 67 175.5t117 122t145.5 68.5t161.5 23q96 0 173.5 -26t131.5 -76.5t74.5 -133t1.5 -187.5l-37 -207q-3 -27 -30 -27h-617l-10 -55q-21 -96 26.5 -145.5t149.5 -49.5q146 0 301 103q10 8 21.5 5.5t17.5 -14.5l72 -120q14 -27 -8 -41 q-194 -138 -437 -138q-89 0 -164.5 27t-130.5 76.5t-78.5 128t-5.5 174.5zM312 1221q-5 11 7 24l279 275q16 16 37 16h135q22 0 33 -20l172 -271q8 -15 3 -25t-22 -10h-145q-23 0 -33 19l-94 157l-156 -161q-15 -15 -36 -15h-156q-19 0 -24 11zM342 614h414l12 70 q21 98 -29 148.5t-147 50.5q-89 0 -153.5 -51.5t-82.5 -147.5z" />
<glyph unicode="&#xeb;" horiz-adv-x="1050" d="M63 381l58 317q18 99 67 175.5t117 122t145.5 68.5t161.5 23q96 0 173.5 -26t131.5 -76.5t74.5 -133t1.5 -187.5l-37 -207q-3 -27 -30 -27h-617l-10 -55q-21 -96 26.5 -145.5t149.5 -49.5q146 0 301 103q10 8 21.5 5.5t17.5 -14.5l72 -120q14 -27 -8 -41 q-194 -138 -437 -138q-89 0 -164.5 27t-130.5 76.5t-78.5 128t-5.5 174.5zM342 614h414l12 70q21 98 -29 148.5t-147 50.5q-89 0 -153.5 -51.5t-82.5 -147.5zM348 1341q9 53 48 84t91 31q59 0 88 -37t17 -100q-10 -51 -49 -83t-90 -32q-59 0 -88 36.5t-17 100.5zM764 1341 q9 53 48 84t91 31q58 0 87.5 -37.5t17.5 -99.5q-10 -51 -49.5 -83t-90.5 -32q-59 0 -87.5 36.5t-16.5 100.5z" />
<glyph unicode="&#xec;" horiz-adv-x="485" d="M35 31l178 1005q2 11 10.5 19t20.5 8h178q14 0 22 -10t5 -23l-181 -1003q-2 -12 -10 -19.5t-20 -7.5h-177q-15 0 -22 8.5t-4 22.5zM104 1525q6 11 23 11h166q24 0 33 -23l116 -270q7 -15 1 -24t-21 -9h-125q-23 0 -33 19l-158 272q-8 13 -2 24z" />
<glyph unicode="&#xed;" horiz-adv-x="485" d="M35 31l178 1005q2 11 10.5 19t20.5 8h178q14 0 22 -10t5 -23l-181 -1003q-2 -12 -10 -19.5t-20 -7.5h-177q-15 0 -22 8.5t-4 22.5zM219 1221q-4 11 8 24l217 273q12 18 37 18h176q19 0 24.5 -11t-7.5 -24l-264 -276q-12 -15 -35 -15h-133q-19 0 -23 11z" />
<glyph unicode="&#xee;" horiz-adv-x="483" d="M35 31l178 1005q7 27 31 27h176q15 0 22 -8.5t4 -22.5l-180 -1005q-3 -27 -30 -27h-175q-15 0 -22 8.5t-4 22.5zM44 1221q-5 11 7 24l262 277q13 16 37 16h133q26 0 35 -20l158 -273q8 -15 2 -25t-23 -10h-153q-26 0 -35 21l-78 153l-137 -159q-12 -15 -35 -15h-149 q-19 0 -24 11z" />
<glyph unicode="&#xef;" horiz-adv-x="485" d="M35 31l178 1005q2 11 10.5 19t20.5 8h178q14 0 22 -10t5 -23l-181 -1003q-2 -12 -10 -19.5t-20 -7.5h-177q-15 0 -22 8.5t-4 22.5zM78 1341q9 53 48.5 84t92.5 31q58 0 86.5 -37.5t16.5 -99.5q-10 -51 -49 -83t-89 -32q-59 0 -87.5 36.5t-18.5 100.5zM457 1341 q10 53 49.5 84t91.5 31q57 0 85.5 -37t16.5 -100q-11 -51 -48.5 -83t-88.5 -32q-59 0 -87.5 36.5t-18.5 100.5z" />
<glyph unicode="&#xf0;" horiz-adv-x="1110" d="M61 403l37 207q32 179 164.5 285t315.5 106q79 0 148 -30t112 -76q8 166 -115 279l-182 -121q-23 -15 -39 16l-33 57q-19 27 6 41l125 84q-87 37 -186 37q-18 0 -27 11.5t-6 27.5l25 141q3 15 8 20t16 5q215 0 377 -104l154 104q22 15 40 -16l33 -60q18 -25 -8 -41 l-113 -76q185 -205 125 -548l-63 -369q-35 -190 -174 -299t-346 -109q-204 0 -315.5 118t-78.5 310zM297 377q-17 -98 27.5 -147.5t146.5 -49.5q108 0 176.5 54t85.5 153l33 178q22 106 -22.5 169t-145.5 63q-107 0 -177 -56.5t-87 -156.5z" />
<glyph unicode="&#xf1;" horiz-adv-x="1107" d="M31 31l172 946q3 20 24 31q194 79 402 79q211 0 315 -127t66 -335l-107 -598q-3 -27 -31 -27h-178q-13 0 -20.5 8.5t-5.5 22.5l106 612q46 238 -170 238q-97 0 -188 -35l-152 -819q-3 -27 -31 -27h-178q-13 0 -20 8.5t-4 22.5zM352 1307q38 61 93.5 105t123.5 44 q50 0 142 -41q84 -37 112 -37q41 0 78 47q18 21 41 9l80 -54q24 -15 14 -37q-38 -61 -94 -106t-121 -45q-58 0 -145 41q-80 37 -111 37q-45 0 -82 -47q-19 -23 -41 -9l-80 54q-26 13 -10 39z" />
<glyph unicode="&#xf2;" horiz-adv-x="1071" d="M68 422l49 276q31 172 171.5 280.5t336.5 108.5q134 0 229.5 -64t133 -163.5t16.5 -212.5l-52 -278q-35 -184 -171.5 -289t-340.5 -105q-128 0 -221 60t-133 162t-18 225zM303 399q-18 -99 24 -157t138 -58q105 0 171 53t81 146l49 281q16 91 -27.5 154t-138.5 63 q-97 0 -164 -55t-84 -146zM411.5 1525q5.5 11 22.5 11h166q24 0 33 -23l117 -270q7 -15 0.5 -24t-21.5 -9h-125q-24 0 -33 19l-157 272q-8 13 -2.5 24z" />
<glyph unicode="&#xf3;" horiz-adv-x="1071" d="M68 422l49 276q31 172 171.5 280.5t336.5 108.5q134 0 229.5 -64t133 -163.5t16.5 -212.5l-52 -278q-35 -184 -171.5 -289t-340.5 -105q-128 0 -221 60t-133 162t-18 225zM303 399q-18 -99 24 -157t138 -58q105 0 171 53t81 146l49 281q16 91 -27.5 154t-138.5 63 q-97 0 -164 -55t-84 -146zM494 1221q-4 11 8 24l217 273q12 18 37 18h176q19 0 24 -11t-8 -24l-264 -276q-12 -15 -35 -15h-133q-18 0 -22 11z" />
<glyph unicode="&#xf4;" horiz-adv-x="1071" d="M68 422l49 276q31 172 171.5 280.5t336.5 108.5q134 0 229.5 -64t133 -163.5t16.5 -212.5l-52 -278q-35 -184 -171.5 -289t-340.5 -105q-128 0 -221 60t-133 162t-18 225zM303 399q-18 -99 24 -157t138 -58q105 0 171 53t81 146l49 281q16 91 -27.5 154t-138.5 63 q-97 0 -164 -55t-84 -146zM318.5 1221q-4.5 11 7.5 24l278 275q16 16 37 16h135q22 0 33 -20l172 -271q17 -35 -18 -35h-146q-23 0 -33 19l-94 157l-155 -161q-15 -15 -37 -15h-156q-19 0 -23.5 11z" />
<glyph unicode="&#xf5;" horiz-adv-x="1071" d="M68 422l49 276q31 172 171.5 280.5t336.5 108.5q134 0 229.5 -64t133 -163.5t16.5 -212.5l-52 -278q-35 -184 -171.5 -289t-340.5 -105q-128 0 -221 60t-133 162t-18 225zM303 399q-18 -99 24 -157t138 -58q105 0 171 53t81 146l49 281q16 91 -27.5 154t-138.5 63 q-97 0 -164 -55t-84 -146zM332 1307q38 61 93.5 105t123.5 44q49 0 141 -41q84 -37 113 -37q41 0 78 47q18 21 41 9l79 -54q24 -15 15 -37q-38 -61 -94 -106t-121 -45q-59 0 -146 41q-80 37 -110 37q-45 0 -82 -47q-19 -23 -41 -9l-80 54q-26 13 -10 39z" />
<glyph unicode="&#xf6;" horiz-adv-x="1071" d="M68 422l49 276q31 172 171.5 280.5t336.5 108.5q134 0 229.5 -64t133 -163.5t16.5 -212.5l-52 -278q-35 -184 -171.5 -289t-340.5 -105q-128 0 -221 60t-133 162t-18 225zM303 399q-18 -99 24 -157t138 -58q105 0 171 53t81 146l49 281q16 91 -27.5 154t-138.5 63 q-97 0 -164 -55t-84 -146zM346 1341q9 53 48 84t91 31q59 0 88 -37t17 -100q-10 -51 -49 -83t-90 -32q-59 0 -88 36.5t-17 100.5zM762 1341q9 53 48 84t91 31q58 0 87.5 -37.5t17.5 -99.5q-10 -51 -49.5 -83t-90.5 -32q-59 0 -87.5 36.5t-16.5 100.5z" />
<glyph unicode="&#xf7;" horiz-adv-x="1236" d="M176 606l31 160q3 27 31 27h849q14 0 21 -9t4 -22l-29 -160q-3 -27 -30 -27h-852q-15 0 -21.5 8.5t-3.5 22.5zM434 317q12 60 55.5 97t104.5 37q71 0 108 -46.5t25 -119.5q-10 -60 -55 -97.5t-105 -37.5q-72 0 -109.5 47.5t-23.5 119.5zM567 1079q11 60 54.5 97.5 t103.5 37.5q72 0 110 -47t25 -120q-10 -60 -55 -97t-107 -37q-70 0 -106.5 47t-24.5 119z" />
<glyph unicode="&#xf8;" horiz-adv-x="1073" d="M-4.5 -112.5q-5.5 10.5 4.5 24.5l137 194q-50 61 -68.5 143t-0.5 173l49 276q31 172 171.5 280.5t338.5 108.5q98 0 178 -36l90 129q12 18 35 18h129q17 0 22 -12t-4 -25l-145 -207q51 -61 70 -141.5t4 -165.5l-52 -278q-35 -184 -171.5 -289t-340.5 -105q-100 0 -178 35 l-82 -114q-13 -19 -35 -19h-129q-17 0 -22.5 10.5zM299 336l375 530q-38 15 -74 15q-96 0 -162.5 -55.5t-83.5 -145.5l-49 -281q-6 -35 -6 -63zM393 195q28 -11 72 -11q106 0 171 52.5t83 146.5l49 281q5 30 2 63z" />
<glyph unicode="&#xf9;" horiz-adv-x="1099" d="M96 438l107 598q2 11 10 19t20 8h181q14 0 20.5 -9.5t3.5 -23.5l-108 -610q-46 -238 168 -238q91 0 184 33l149 821q1 12 10 19.5t21 7.5h180q15 0 21.5 -9.5t3.5 -23.5l-172 -946q-3 -22 -25 -31q-204 -78 -397 -78q-210 0 -312.5 127.5t-64.5 335.5zM436 1525 q6 11 23 11h166q23 0 32 -23l117 -270q7 -15 1 -24t-21 -9h-125q-23 0 -33 19l-158 272q-8 13 -2 24z" />
<glyph unicode="&#xfa;" horiz-adv-x="1099" d="M96 438l107 598q2 11 10 19t20 8h181q14 0 20.5 -9.5t3.5 -23.5l-108 -610q-46 -238 168 -238q91 0 184 33l149 821q1 12 10 19.5t21 7.5h180q15 0 21.5 -9.5t3.5 -23.5l-172 -946q-3 -22 -25 -31q-204 -78 -397 -78q-210 0 -312.5 127.5t-64.5 335.5zM527 1221 q-4 11 8 24l217 273q12 18 36 18h177q19 0 24 -11t-8 -24l-264 -276q-12 -15 -35 -15h-133q-18 0 -22 11z" />
<glyph unicode="&#xfb;" horiz-adv-x="1099" d="M96 438l107 598q2 11 10 19t20 8h181q14 0 20.5 -9.5t3.5 -23.5l-108 -610q-46 -238 168 -238q91 0 184 33l149 821q1 12 10 19.5t21 7.5h180q15 0 21.5 -9.5t3.5 -23.5l-172 -946q-3 -22 -25 -31q-204 -78 -397 -78q-210 0 -312.5 127.5t-64.5 335.5zM328.5 1221 q-4.5 11 7.5 24l278 275q16 16 37 16h135q22 0 33 -20l172 -271q17 -35 -18 -35h-146q-23 0 -32 19l-95 157l-155 -161q-15 -15 -37 -15h-156q-19 0 -23.5 11z" />
<glyph unicode="&#xfc;" horiz-adv-x="1099" d="M96 438l107 598q2 11 10 19t20 8h181q14 0 20.5 -9.5t3.5 -23.5l-108 -610q-46 -238 168 -238q91 0 184 33l149 821q1 12 10 19.5t21 7.5h180q15 0 21.5 -9.5t3.5 -23.5l-172 -946q-3 -22 -25 -31q-204 -78 -397 -78q-210 0 -312.5 127.5t-64.5 335.5zM365 1341 q9 53 48 84t91 31q59 0 87.5 -37t16.5 -100q-10 -51 -49 -83t-90 -32q-59 0 -87.5 36.5t-16.5 100.5zM780 1341q9 53 48.5 84t91.5 31q58 0 87 -37.5t17 -99.5q-10 -51 -49 -83t-90 -32q-59 0 -88 36.5t-17 100.5z" />
<glyph unicode="&#xfd;" horiz-adv-x="1103" d="M8 -238l98 119q19 23 44 4q103 -86 245 -86q116 0 180 65t84 202q-110 -35 -200 -35q-186 0 -288.5 120t-68.5 318l103 567q8 27 31 27h178q14 0 20.5 -9.5t3.5 -23.5l-102 -581q-22 -113 26.5 -163t141.5 -50q56 0 108 14.5t84 36.5l133 749q2 11 10.5 19t20.5 8h180 q13 0 21 -9.5t6 -23.5l-172 -967q-43 -243 -166 -358t-346 -115q-238 0 -375 131q-19 19 0 41zM529 1221q-4 11 8 24l217 273q12 18 37 18h176q19 0 24 -11t-8 -24l-264 -276q-12 -15 -35 -15h-133q-18 0 -22 11z" />
<glyph unicode="&#xfe;" horiz-adv-x="1091" d="M-33 -358l318 1796q3 26 30 26h181q29 0 26 -30l-69 -394q100 47 196 47q87 0 156.5 -24.5t113.5 -67.5t72 -102.5t32.5 -129.5t-5.5 -147l-37 -221q-31 -189 -161 -304.5t-318 -115.5q-130 0 -230 54l-69 -394q-7 -24 -33 -24h-178q-14 0 -21 9t-4 22zM307 233 q35 -23 87 -37t102 -14q208 0 249 236l37 221q23 128 -21.5 186t-156.5 58q-54 0 -105.5 -18t-84.5 -46z" />
<glyph unicode="&#xff;" horiz-adv-x="1103" d="M8 -238l98 119q19 23 44 4q103 -86 245 -86q116 0 180 65t84 202q-110 -35 -200 -35q-186 0 -288.5 120t-68.5 318l103 567q8 27 31 27h178q14 0 20.5 -9.5t3.5 -23.5l-102 -581q-22 -113 26.5 -163t141.5 -50q56 0 108 14.5t84 36.5l133 749q2 11 10.5 19t20.5 8h180 q13 0 21 -9.5t6 -23.5l-172 -967q-43 -243 -166 -358t-346 -115q-238 0 -375 131q-19 19 0 41zM367 1341q9 53 48 84t91 31q59 0 87.5 -37t16.5 -100q-10 -51 -49 -83t-90 -32q-59 0 -87.5 36.5t-16.5 100.5zM782 1341q9 53 48.5 84t91.5 31q58 0 87 -37.5t17 -99.5 q-10 -51 -49 -83t-90 -32q-59 0 -88 36.5t-17 100.5z" />
<glyph unicode="&#x152;" horiz-adv-x="1900" d="M116 325q-24 108 1 238l76 426q23 125 82 222.5t141.5 157t177.5 90t197 30.5q189 0 296 -135l15 84q3 26 31 26h782q14 0 21 -8.5t6 -21.5l-31 -168q-2 -11 -10.5 -19t-20.5 -8h-571l-66 -381h516q14 0 21.5 -9.5t5.5 -23.5l-29 -166q-3 -26 -31 -26h-524l-69 -402h593 q15 0 21.5 -8t3.5 -22l-31 -174q-7 -27 -30 -27h-807q-13 0 -21 8.5t-6 22.5l12 57q-59 -54 -145.5 -83.5t-187.5 -29.5q-102 0 -190 43t-146.5 121t-82.5 186zM367 543q-27 -151 32.5 -242.5t169.5 -91.5q57 0 113 14t107.5 41t88 73.5t46.5 106.5l90 529q22 126 -45 205.5 t-195 81.5q-118 2 -211.5 -72t-118.5 -219z" />
<glyph unicode="&#x153;" horiz-adv-x="1701" d="M68 422l49 276q31 172 169 280.5t330 108.5q194 0 304 -137q137 137 344 137q96 0 173 -26t131 -76.5t75 -133t2 -187.5l-39 -207q-3 -27 -31 -27h-612l-13 -61q-13 -85 35 -137t139 -52q146 0 301 103q26 16 39 -9l72 -120q14 -27 -6 -41q-197 -138 -436 -138 q-95 0 -175.5 33.5t-130.5 97.5q-137 -131 -350 -131q-128 0 -221.5 60t-132.5 162t-16 225zM303 399q-19 -98 22.5 -156.5t135.5 -58.5q107 0 173 52.5t81 146.5l51 287q14 88 -29.5 149.5t-138.5 61.5q-97 0 -164 -55t-84 -146zM993 612h412l14 72q19 99 -30 149t-146 50 q-91 0 -155.5 -52t-81.5 -147z" />
<glyph unicode="&#x178;" horiz-adv-x="1150" d="M160 1432q-4 15 3 23.5t21 8.5h201q26 0 31 -24l192 -686h4l414 690q11 20 33 20h217q17 0 23 -10t-3 -24l-594 -902l-92 -501q-3 -27 -30 -27h-193q-15 0 -21.5 8.5t-3.5 22.5l91 499zM459 1745q8 55 47.5 91t95.5 36q59 0 88.5 -39.5t20.5 -95.5q-9 -57 -48 -92 t-96 -35q-62 0 -89 40t-19 95zM877 1745q8 55 47.5 91t95.5 36q59 0 87.5 -39t20.5 -96q-9 -58 -47 -92.5t-96 -34.5q-62 0 -90 40.5t-18 94.5z" />
<glyph unicode="&#x2c6;" horiz-adv-x="669" d="M126 1221q-5 11 7 24l279 275q16 16 37 16h135q21 0 32 -20l172 -271q8 -15 3.5 -25t-21.5 -10h-145q-23 0 -33 19l-94 157l-156 -161q-15 -15 -37 -15h-155q-19 0 -24 11z" />
<glyph unicode="&#x2dc;" horiz-adv-x="716" d="M172 1307q38 61 93.5 105t123.5 44q49 0 141 -41q84 -37 113 -37q41 0 78 47q18 21 41 9l80 -54q24 -15 14 -37q-38 -61 -94 -106t-121 -45q-58 0 -145 41q-80 37 -111 37q-45 0 -82 -47q-19 -23 -41 -9l-80 54q-26 13 -10 39z" />
<glyph unicode="&#x2000;" horiz-adv-x="1012" />
<glyph unicode="&#x2001;" horiz-adv-x="2025" />
<glyph unicode="&#x2002;" horiz-adv-x="1012" />
<glyph unicode="&#x2003;" horiz-adv-x="2025" />
<glyph unicode="&#x2004;" horiz-adv-x="675" />
<glyph unicode="&#x2005;" horiz-adv-x="506" />
<glyph unicode="&#x2006;" horiz-adv-x="337" />
<glyph unicode="&#x2007;" horiz-adv-x="337" />
<glyph unicode="&#x2008;" horiz-adv-x="253" />
<glyph unicode="&#x2009;" horiz-adv-x="405" />
<glyph unicode="&#x200a;" horiz-adv-x="112" />
<glyph unicode="&#x2010;" horiz-adv-x="798" d="M121 530l29 166q2 12 10 19.5t20 7.5h500q15 0 21.5 -8.5t3.5 -22.5l-29 -166q-3 -26 -31 -26h-500q-31 0 -24 30z" />
<glyph unicode="&#x2011;" horiz-adv-x="798" d="M121 530l29 166q2 12 10 19.5t20 7.5h500q15 0 21.5 -8.5t3.5 -22.5l-29 -166q-3 -26 -31 -26h-500q-31 0 -24 30z" />
<glyph unicode="&#x2012;" horiz-adv-x="798" d="M121 530l29 166q2 12 10 19.5t20 7.5h500q15 0 21.5 -8.5t3.5 -22.5l-29 -166q-3 -26 -31 -26h-500q-31 0 -24 30z" />
<glyph unicode="&#x2013;" horiz-adv-x="1185" d="M121 530l29 166q2 12 10 19.5t20 7.5h889q14 0 21 -9t4 -22l-31 -166q-3 -26 -31 -26h-887q-31 0 -24 30z" />
<glyph unicode="&#x2014;" horiz-adv-x="1949" d="M121 530l29 166q2 12 10 19.5t20 7.5h1651q31 0 24 -31l-28 -166q-3 -26 -31 -26h-1651q-31 0 -24 30z" />
<glyph unicode="&#x2018;" horiz-adv-x="489" d="M149 956q-6 10 1 23l229 463q9 22 35 22h145q15 0 22 -8.5t1 -23.5l-197 -463q-9 -23 -35 -23h-178q-17 0 -23 10z" />
<glyph unicode="&#x2019;" horiz-adv-x="487" d="M158 979l196 463q8 22 33 22h180q17 0 23 -9t0 -23l-230 -463q-10 -23 -34 -23h-146q-15 0 -21.5 9t-0.5 24z" />
<glyph unicode="&#x201a;" horiz-adv-x="473" d="M-104.5 -250q-6.5 10 0.5 25l194 463q10 20 33 20h180q34 0 21 -33l-228 -465q-13 -20 -35 -20h-145q-14 0 -20.5 10z" />
<glyph unicode="&#x201c;" horiz-adv-x="866" d="M152 956q-5 10 2 25l227 463q11 20 35 20h143q15 0 22 -8.5t1 -23.5l-197 -463q-11 -23 -33 -23h-180q-15 0 -20 10zM528.5 956q-5.5 10 1.5 25l230 463q9 20 35 20h143q15 0 22 -8.5t1 -23.5l-197 -463q-12 -23 -33 -23h-180q-17 0 -22.5 10z" />
<glyph unicode="&#x201d;" horiz-adv-x="864" d="M158 979l194 463q9 22 35 22h178q17 0 23 -9t-2 -23l-228 -465q-9 -21 -34 -21h-144q-15 0 -21.5 9t-0.5 24zM537 979l194 463q9 22 33 22h180q17 0 23 -9t-2 -23l-228 -465q-12 -21 -35 -21h-143q-15 0 -21.5 9t-0.5 24z" />
<glyph unicode="&#x201e;" horiz-adv-x="851" d="M-104 -225l194 463q10 20 33 20h180q34 0 21 -33l-228 -465q-13 -20 -35 -20h-143q-15 0 -21.5 10t-0.5 25zM272 -225l197 463q10 20 33 20h180q33 0 20 -33l-229 -465q-10 -20 -35 -20h-143q-15 0 -22 10t-1 25z" />
<glyph unicode="&#x2022;" horiz-adv-x="780" d="M166 696q19 106 97.5 174t180.5 68q117 0 179.5 -77.5t40.5 -196.5q-19 -107 -97.5 -176.5t-179.5 -69.5q-116 0 -179.5 79t-41.5 199z" />
<glyph unicode="&#x2026;" horiz-adv-x="1503" d="M23 158q9 61 52 99t103 38q71 0 108.5 -48.5t24.5 -121.5q-11 -60 -54.5 -97.5t-104.5 -37.5q-70 0 -105.5 47.5t-23.5 120.5zM543 158q9 61 52 99t103 38q71 0 108.5 -48.5t24.5 -121.5q-11 -60 -54.5 -97.5t-104.5 -37.5q-70 0 -106.5 48t-22.5 120zM1063 158 q9 61 52.5 99t103.5 38q71 0 108.5 -48.5t24.5 -121.5q-11 -60 -55 -97.5t-105 -37.5q-70 0 -105.5 47.5t-23.5 120.5z" />
<glyph unicode="&#x202f;" horiz-adv-x="405" />
<glyph unicode="&#x2039;" horiz-adv-x="657" d="M80 573q-9 21 4 41l340 414q16 19 37 19h186q19 0 24.5 -10.5t-5.5 -24.5l-351 -416l199 -418q7 -14 1 -23.5t-23 -9.5h-183q-25 0 -35 23z" />
<glyph unicode="&#x203a;" horiz-adv-x="653" d="M4.5 155.5q-5.5 10.5 5.5 24.5l350 416l-198 418q-7 14 -1 23.5t23 9.5h183q24 0 34 -23l195 -406q9 -21 -4 -40l-340 -414q-16 -19 -37 -19h-186q-19 0 -24.5 10.5z" />
<glyph unicode="&#x2044;" horiz-adv-x="419" d="M-434.5 11q-4.5 11 6.5 24l1186 1413q11 16 35 16h110q18 0 23 -10t-6 -24l-1184 -1414q-11 -16 -35 -16h-113q-18 0 -22.5 11z" />
<glyph unicode="&#x205f;" horiz-adv-x="506" />
<glyph unicode="&#x2070;" horiz-adv-x="702" d="M170 1122l47 258q25 130 118 197.5t214 67.5q113 0 184 -83t47 -206l-47 -258q-25 -133 -115 -201t-219 -68q-114 0 -184 80.5t-45 212.5zM330 1104q-14 -63 15.5 -91t80.5 -28t91.5 30t51.5 91l47 264q12 59 -13.5 89t-78.5 30q-55 0 -95 -29t-50 -90z" />
<glyph unicode="&#x2074;" horiz-adv-x="673" d="M123 1020l12 82q2 15 17 33l333 481q10 18 37 18h117q17 0 22 -11t-4 -24l-315 -458h168l27 137q6 27 32 27h101q29 0 26 -31l-22 -133h41q31 0 24 -31l-18 -94q-3 -27 -33 -27h-43l-24 -123q-3 -26 -31 -26h-105q-29 0 -26 30l22 119h-331q-15 0 -22.5 9.5t-4.5 21.5z " />
<glyph unicode="&#x2075;" horiz-adv-x="677" d="M135 936q-12 19 8 41l66 67q19 18 41 -4q55 -55 164 -55q58 0 101 33t52 90q10 56 -16.5 84.5t-81.5 28.5q-78 0 -150 -47q-25 -14 -40 -7l-70 29q-11 5 -17 15.5t-2 21.5l86 377q6 24 35 24h445q31 0 24 -30l-16 -95q-3 -26 -33 -26h-332l-34 -154q53 31 151 31 q106 0 169 -76t42 -192q-21 -128 -111 -195.5t-227 -67.5q-162 0 -254 107z" />
<glyph unicode="&#x2076;" horiz-adv-x="692" d="M170 1112l49 274q22 120 119 189.5t209 69.5q131 0 235 -97q19 -16 2 -39l-67 -71q-21 -22 -41 -2q-54 51 -146 51q-56 0 -99 -34t-52 -87l-14 -63q57 45 157 45q108 0 174 -68.5t45 -183.5q-23 -126 -109 -196.5t-218 -70.5q-121 0 -193 85.5t-51 197.5zM330 1098 q-8 -51 19 -79t85 -28q59 0 98.5 29t49.5 86q9 47 -17.5 72.5t-83.5 25.5q-63 0 -102.5 -27t-48.5 -79z" />
<glyph unicode="&#x2077;" horiz-adv-x="620" d="M155.5 850q-5.5 10 4.5 24l387 607h-314q-15 0 -22 8t-4 22l18 97q3 26 33 26h490q31 0 24 -30l-12 -74q-3 -21 -10 -35l-412 -635q-11 -20 -35 -20h-125q-17 0 -22.5 10z" />
<glyph unicode="&#x2078;" horiz-adv-x="696" d="M154 1090q25 126 147 176q-36 26 -52.5 69.5t-6.5 98.5q17 97 99 154t204 57q120 0 186.5 -68t46.5 -164q-23 -110 -125 -158q49 -24 69 -73.5t9 -110.5q-21 -116 -110.5 -179t-217.5 -63q-126 0 -199.5 75t-49.5 186zM311 1079q-9 -47 19 -73.5t90 -26.5q63 0 104 30 t49 81q6 42 -20.5 66t-87.5 24q-63 0 -103 -27.5t-51 -73.5zM393 1415q-8 -44 15.5 -70t78.5 -26q56 0 94 27.5t46 70.5q5 36 -21.5 58t-79.5 22q-54 0 -89.5 -23t-43.5 -59z" />
<glyph unicode="&#x2079;" horiz-adv-x="686" d="M158 926q-19 17 0 39l65 73q19 19 41 2q53 -53 137 -53q58 0 100.5 33.5t53.5 87.5l16 68q-58 -50 -157 -50q-104 0 -170 73t-47 173q22 130 108 201.5t217 71.5q126 0 195 -80.5t47 -200.5l-49 -277q-22 -120 -118.5 -189t-207.5 -69t-231 97zM360 1372q-8 -50 15 -73 t80 -23q62 0 101 26.5t48 77.5q9 52 -18.5 79.5t-83.5 27.5t-94.5 -29t-47.5 -86z" />
<glyph unicode="&#x2080;" horiz-adv-x="702" d="M-14 78l47 258q25 129 118 196.5t214 67.5q113 0 184 -83t47 -206l-47 -258q-25 -133 -115 -200.5t-219 -67.5q-114 0 -184 80.5t-45 212.5zM145 59q-14 -63 15.5 -90.5t81.5 -27.5q51 0 91.5 29.5t51.5 90.5l47 265q12 59 -13.5 88.5t-78.5 29.5q-55 0 -94.5 -28.5 t-50.5 -89.5z" />
<glyph unicode="&#x2081;" horiz-adv-x="448" d="M8 430q-13 26 10 39l185 111q15 10 37 10h94q29 0 26 -31l-133 -737q-3 -27 -32 -27h-103q-29 0 -26 31l100 561l-78 -49q-26 -16 -39 10z" />
<glyph unicode="&#x2082;" horiz-adv-x="647" d="M-80 -174l17 92q2 17 22 33l260 215q156 130 168 203q17 77 -74 77q-77 0 -166 -61q-29 -25 -41 6l-43 80q-10 24 9 37q123 92 266 92q115 0 172 -74.5t39 -173.5q-11 -69 -62 -133.5t-168 -171.5q-32 -29 -129 -98h271q15 0 22 -8.5t4 -22.5l-16 -96q-7 -27 -33 -27 h-489q-15 0 -23 8.5t-6 22.5z" />
<glyph unicode="&#x2083;" horiz-adv-x="655" d="M-70 -98q-12 20 4 39l68 67q20 20 43 -2q63 -63 154 -63q59 0 101 32.5t54 92.5q9 52 -15.5 80t-76.5 28q-36 0 -63 -6q-31 -6 -37 20l-10 43q-6 23 10 39l80 78q67 61 108 90h-258q-30 0 -24 31l16 92q2 12 11 19.5t22 7.5h444q34 0 27 -31l-8 -59q-4 -14 -23 -33 l-215 -188q20 0 43 -5q68 -14 107 -76.5t22 -150.5q-23 -124 -112 -193t-216 -69q-163 0 -256 117z" />
<glyph unicode="&#x2084;" horiz-adv-x="673" d="M-63 -25l14 82q3 16 16 33l334 481q11 19 37 19h117q17 0 22 -11t-4 -24l-315 -459h168l26 137q6 27 33 27h100q13 0 21 -8.5t6 -22.5l-25 -133h43q15 0 21.5 -8t3.5 -22l-18 -95q-3 -26 -33 -26h-45l-23 -123q-3 -27 -30 -27h-105q-30 0 -27 31l21 119h-330 q-14 0 -22 8.5t-6 21.5z" />
<glyph unicode="&#x2085;" horiz-adv-x="677" d="M-51 -109q-11 18 6 41l65 68q16 19 43 -4q58 -55 162 -55q59 0 102.5 32.5t53.5 89.5q9 56 -17.5 84.5t-82.5 28.5q-90 0 -148 -47q-24 -14 -43 -6l-67 29q-26 10 -19 36l86 377q6 25 35 25h444q15 0 21.5 -8.5t3.5 -22.5l-16 -94q-7 -27 -33 -27h-332l-35 -153 q51 30 152 30q105 0 168 -76t43 -192q-21 -128 -111 -195t-227 -67q-188 0 -254 106z" />
<glyph unicode="&#x2086;" horiz-adv-x="692" d="M-14 68l49 274q22 120 118.5 189t206.5 69q135 0 238 -96q19 -17 0 -39l-66 -72q-21 -21 -43 -2q-51 51 -143 51q-57 0 -100 -33t-53 -87l-13 -64q57 45 158 45q107 0 172.5 -68.5t46.5 -183.5q-23 -126 -109.5 -196t-218.5 -70q-122 0 -193.5 85.5t-49.5 197.5zM145 53 q-9 -51 18.5 -78.5t86.5 -27.5q58 0 97.5 29t49.5 85q9 47 -17.5 73t-84.5 26q-62 0 -102.5 -28t-47.5 -79z" />
<glyph unicode="&#x2087;" horiz-adv-x="620" d="M-30.5 -194.5q-5.5 10.5 3.5 24.5l387 606h-313q-31 0 -24 31l16 96q7 27 33 27h491q14 0 21 -9t4 -22l-15 -74q-3 -20 -10 -34l-411 -635q-12 -21 -35 -21h-125q-17 0 -22.5 10.5z" />
<glyph unicode="&#x2088;" horiz-adv-x="696" d="M-31 45q25 125 148 176q-37 26 -53.5 69.5t-6.5 98.5q17 97 99 154t204 57q120 0 187 -67.5t47 -163.5q-23 -110 -125 -158q49 -24 69 -73.5t9 -110.5q-21 -116 -110.5 -179t-217.5 -63q-126 0 -200 74.5t-50 185.5zM127 35q-9 -47 18.5 -74t87.5 -27q64 0 106 30t50 81 q6 41 -21 65.5t-87 24.5q-63 0 -103 -27t-51 -73zM209 371q-8 -45 15.5 -71t78.5 -26t93 28t44 71q6 36 -19.5 58t-78.5 22q-54 0 -89.5 -23t-43.5 -59z" />
<glyph unicode="&#x2089;" horiz-adv-x="686" d="M-27 -80l66 74q20 20 41 2q56 -53 137 -53q60 0 102 33t54 87l14 68q-57 -49 -156 -49q-104 0 -170 73t-49 173q23 130 109 201t217 71q127 0 196 -80.5t46 -200.5l-50 -276q-22 -120 -117.5 -189t-205.5 -69q-117 0 -232 96q-22 16 -2 39zM176 328q-6 -50 16 -73.5 t78 -23.5q62 0 101.5 27t48.5 78q10 51 -18 78.5t-85 27.5q-56 0 -94 -28.5t-47 -85.5z" />
<glyph unicode="&#x20ac;" horiz-adv-x="1302" d="M72 526l20 111q1 12 10 19.5t21 7.5h139l19 116h-131q-30 0 -27 31l20 111q3 26 31 26h135l8 43q21 125 78.5 222t138.5 156.5t177 89.5t202 30q117 0 224 -37t188 -102q23 -17 2 -41l-115 -131q-16 -19 -38 -7q-128 99 -283 99q-133 0 -220.5 -84t-115.5 -238h383 q30 0 27 -30l-21 -111q-3 -27 -31 -27h-387l-20 -116h381q15 0 22 -8.5t4 -22.5l-20 -111q-3 -26 -31 -26h-385q-17 -135 46.5 -217t191.5 -82q81 0 174 31.5t166 86.5q10 9 21.5 7t17.5 -15l80 -147q11 -25 -11 -39q-224 -146 -499 -146q-102 0 -187.5 34t-145.5 98 t-87 164.5t-11 224.5h-135q-29 0 -26 30z" />
<glyph unicode="&#x2122;" horiz-adv-x="1277" d="M205 1384l10 68q4 12 16 12h428q18 0 15 -16l-10 -70q-3 -12 -23 -12h-158l-86 -498q-4 -18 -20 -18h-74q-19 0 -16 20l88 496h-156q-9 0 -13 5t-1 13zM621 870l102 578q3 16 18 16h84q14 0 17 -12l96 -393l236 393q9 12 22 12h82q21 0 18 -20l-102 -576q-4 -18 -25 -18 h-61q-11 0 -16.5 5.5t-4.5 14.5l37 203l45 209h-2l-75 -139l-115 -185q-6 -12 -23 -12h-67q-11 0 -15 15l-49 182l-30 139h-2l-29 -209l-35 -205q-4 -18 -20 -18h-68q-21 0 -18 20z" />
<glyph unicode="&#x2153;" horiz-adv-x="1777" d="M145.5 11q-4.5 11 6.5 24l1185 1413q11 16 35 16h111q18 0 22.5 -10t-6.5 -24l-1184 -1414q-11 -16 -34 -16h-113q-18 0 -22.5 11zM193 1305q-13 25 10 38l184 111q15 10 37 10h94q30 0 27 -30l-133 -738q-6 -26 -33 -26h-103q-29 0 -26 30l100 562l-78 -50 q-26 -16 -39 11zM1061 106q-12 20 4 39l68 68q21 21 43 -2q64 -64 153 -64q59 0 101.5 32.5t54.5 92.5q9 52 -15.5 80.5t-76.5 28.5q-37 0 -64 -6q-31 -6 -37 20l-10 43q-6 23 10 39l80 78q64 58 109 90h-258q-31 0 -25 31l16 92q2 12 11 19.5t22 7.5h445q33 0 26 -31 l-8 -59q-4 -15 -22 -33l-215 -189q25 0 43 -4q68 -14 107 -76.5t22 -150.5q-23 -124 -112 -193t-216 -69q-164 0 -256 116z" />
<glyph unicode="&#x2154;" horiz-adv-x="1898" d="M94 700l17 93q2 16 22 32l260 215q156 130 168 203q17 78 -74 78q-76 0 -165 -61q-29 -25 -41 6l-43 80q-10 24 8 36q125 93 266 93q115 0 172 -74.5t39 -173.5q-11 -69 -62 -133.5t-167 -171.5q-37 -34 -129 -99h270q15 0 22.5 -8.5t4.5 -21.5l-17 -97q-7 -26 -33 -26 h-489q-32 0 -29 30zM290.5 11q-4.5 11 6.5 24l1186 1413q11 16 35 16h110q18 0 23 -10t-6 -24l-1184 -1414q-11 -16 -35 -16h-113q-18 0 -22.5 11zM1192 106q-12 20 4 39l68 68q20 21 43 -2q64 -64 153 -64q59 0 101.5 32.5t54.5 92.5q9 52 -15.5 80.5t-76.5 28.5 q-37 0 -64 -6q-31 -6 -37 20l-10 43q-6 23 10 39l80 78q64 58 109 90h-258q-31 0 -25 31l17 92q3 27 32 27h445q33 0 26 -31l-8 -59q-4 -15 -22 -33l-215 -189q25 0 43 -4q68 -14 107 -76.5t22 -150.5q-23 -124 -112 -193t-216 -69q-164 0 -256 116z" />
<glyph unicode="&#x215b;" horiz-adv-x="1771" d="M127 11q-5 11 6 24l1186 1413q11 16 35 16h110q18 0 23 -10t-6 -24l-1184 -1414q-11 -16 -35 -16h-112q-18 0 -23 11zM193 1305q-13 25 10 38l184 111q15 10 37 10h94q30 0 27 -30l-133 -738q-6 -26 -33 -26h-103q-29 0 -26 30l100 562l-78 -50q-26 -16 -39 11zM1067 250 q25 126 147 176q-82 58 -59 168q19 97 100.5 154t202.5 57q120 0 186 -67.5t48 -164.5q-23 -109 -125 -157q49 -24 69.5 -74t8.5 -111q-21 -115 -110.5 -178t-217.5 -63q-126 0 -199 74.5t-51 185.5zM1225 240q-9 -47 18.5 -74t89.5 -27t102.5 29.5t51.5 81.5 q6 41 -21.5 65.5t-87.5 24.5q-63 0 -102.5 -27t-50.5 -73zM1307 575q-8 -44 15.5 -70t78.5 -26q56 0 93 27.5t46 71.5q5 36 -21 57.5t-79 21.5q-54 0 -90.5 -23t-42.5 -59z" />
<glyph unicode="&#x215c;" horiz-adv-x="1957" d="M104 774q-10 20 5 41l67 68q19 19 43 -2q62 -66 154 -66q58 0 100.5 33.5t54.5 93.5q9 52 -15.5 80.5t-76.5 28.5q-32 0 -63 -7q-31 -6 -37 21l-10 43q-7 23 10 37l80 80q67 61 108 90h-258q-30 0 -24 31l16 92q3 26 33 26h444q34 0 27 -30l-8 -60q-4 -14 -23 -33 l-215 -188q25 0 43 -4q68 -14 107 -76.5t22 -152.5q-23 -124 -112 -192.5t-216 -68.5q-164 0 -256 115zM319.5 11q-4.5 11 6.5 24l1185 1413q11 16 35 16h111q18 0 22.5 -10t-6.5 -24l-1184 -1414q-11 -16 -34 -16h-113q-18 0 -22.5 11zM1262 250q25 126 147 176 q-82 58 -59 168q19 97 100.5 154t202.5 57q120 0 185.5 -67.5t47.5 -164.5q-23 -109 -125 -157q49 -24 69.5 -74t8.5 -111q-21 -115 -110.5 -178t-217.5 -63q-126 0 -198.5 74t-50.5 186zM1419 240q-9 -47 19 -74t90 -27t102 29.5t51 81.5q6 41 -21 65.5t-87 24.5 q-63 0 -103 -27t-51 -73zM1501 575q-8 -44 15.5 -70t78.5 -26q56 0 93.5 27.5t46.5 71.5q5 36 -21.5 57.5t-79.5 21.5q-54 0 -90.5 -23t-42.5 -59z" />
<glyph unicode="&#x215d;" horiz-adv-x="1978" d="M119 766q-10 20 8 41l66 67q18 18 40 -4q55 -55 164 -55q58 0 101.5 33t52.5 90q10 56 -16.5 84.5t-81.5 28.5q-78 0 -150 -47q-26 -15 -41 -7l-67 29q-12 5 -17.5 15t-1.5 22l84 377q9 24 35 24h444q15 0 21.5 -8t3.5 -22l-16 -95q-3 -26 -33 -26h-330l-37 -154 q53 31 152 31q106 0 169 -76t42 -192q-21 -128 -111 -195.5t-227 -67.5q-162 0 -254 107zM337.5 11q-4.5 11 6.5 24l1186 1413q11 16 35 16h110q18 0 23 -10t-6 -24l-1184 -1414q-11 -16 -35 -16h-113q-18 0 -22.5 11zM1288 250q25 125 148 176q-37 26 -54 69.5t-6 98.5 q19 97 100.5 154t202.5 57q120 0 186 -67.5t48 -164.5q-23 -109 -125 -157q49 -24 69.5 -74t8.5 -111q-21 -115 -110.5 -178t-217.5 -63q-126 0 -199 74.5t-51 185.5zM1446 240q-9 -47 18.5 -74t89.5 -27t102.5 29.5t51.5 81.5q6 41 -21.5 65.5t-87.5 24.5q-63 0 -102.5 -27 t-50.5 -73zM1528 575q-8 -44 15.5 -70t78.5 -26q56 0 93 27.5t46 71.5q5 36 -21 57.5t-79 21.5q-54 0 -90.5 -23t-42.5 -59z" />
<glyph unicode="&#x215e;" horiz-adv-x="1910" d="M143 681q-6 11 4 24l388 606h-314q-31 0 -24 30l16 97q3 26 33 26h489q15 0 21.5 -8t3.5 -22l-12 -74q-3 -18 -11 -35l-411 -635q-11 -20 -35 -20h-125q-17 0 -23 11zM206.5 11q-4.5 11 6.5 24l1186 1413q11 16 35 16h110q18 0 23 -10t-6 -24l-1184 -1414 q-11 -16 -35 -16h-113q-18 0 -22.5 11zM1214 250q25 125 148 176q-82 58 -59 168q19 97 100.5 154t202.5 57q120 0 185.5 -67.5t47.5 -164.5q-23 -109 -125 -157q49 -24 69.5 -74t8.5 -111q-21 -115 -110.5 -178t-217.5 -63q-126 0 -199 74.5t-51 185.5zM1372 240 q-9 -47 19 -74t90 -27t102 29.5t51 81.5q6 41 -21 65.5t-87 24.5q-63 0 -103 -27t-51 -73zM1454 575q-8 -44 15.5 -70t78.5 -26q56 0 93.5 27.5t46.5 71.5q5 36 -21.5 57.5t-79.5 21.5q-54 0 -90.5 -23t-42.5 -59z" />
<glyph unicode="&#x2190;" horiz-adv-x="1277" d="M111 676l12 80q3 19 16 32l396 355q9 9 20 8.5t18 -12.5l70 -86q19 -22 -4 -41l-225 -195h800q28 0 25 -31l-25 -145q-2 -12 -10 -19.5t-20 -7.5h-803l154 -174q19 -19 -3 -41l-102 -92q-9 -10 -21 -9.5t-20 11.5l-268 332q-13 16 -10 35z" />
<glyph unicode="&#x2191;" horiz-adv-x="921" d="M129 924q-16 20 6 39l387 344q14 14 35 14h70q22 0 37 -18l270 -345q16 -22 -2 -40l-98 -91q-24 -20 -41 4l-154 195l-150 -848q-3 -26 -30 -26h-135q-14 0 -21 8.5t-6 21.5l147 840l-206 -186q-23 -19 -41 2z" />
<glyph unicode="&#x2192;" horiz-adv-x="1273" d="M104 662l25 147q3 27 31 27h803l-156 172q-16 23 2 41l102 94q23 20 41 -4l269 -330q13 -19 10 -37l-10 -78q-3 -18 -19 -32l-393 -355q-21 -21 -41 2l-70 88q-16 22 7 39l223 195h-799q-14 0 -21 9t-4 22z" />
<glyph unicode="&#x2193;" horiz-adv-x="925" d="M55 487q-19 22 2 39l99 92q22 19 41 -4l147 -186l150 848q2 12 10 19.5t20 7.5h138q13 0 20.5 -8.5t5.5 -22.5l-149 -840l215 195q25 21 41 -2l67 -86q19 -22 -2 -39l-397 -353q-12 -14 -35 -14h-72q-21 0 -34 19z" />
<glyph unicode="&#x2196;" horiz-adv-x="1044" d="M98 555l86 492q2 16 21 32l63 62q15 12 35 12h459q31 0 24 -31l-20 -125q-1 -10 -10 -17t-21 -7h-256l461 -596q21 -25 -2 -41l-113 -107q-24 -20 -41 4l-465 598l-49 -282q-3 -27 -30 -27h-115q-14 0 -21.5 9.5t-5.5 23.5z" />
<glyph unicode="&#x2197;" horiz-adv-x="1050" d="M45 334q-17 23 2 39l670 600h-244q-13 0 -21 8.5t-6 22.5l23 122q1 12 10 19.5t21 7.5h456q22 0 37 -18l37 -52q13 -16 10 -36l-84 -498q-7 -27 -30 -27h-115q-15 0 -22.5 9.5t-4.5 23.5l47 270l-667 -596q-23 -20 -41 4z" />
<glyph unicode="&#x2198;" horiz-adv-x="1050" d="M160 1010q-18 24 2 41l114 106q22 19 41 -4l463 -592l45 264q1 12 10 19.5t21 7.5h117q29 0 26 -31l-81 -481q-3 -18 -21 -33l-66 -59q-15 -15 -34 -15h-469q-15 0 -22.5 9.5t-4.5 23.5l23 125q2 12 10 19.5t20 7.5h267z" />
<glyph unicode="&#x2199;" horiz-adv-x="1046" d="M66 340l84 485q3 27 30 27h115q15 0 22.5 -8.5t4.5 -22.5l-46 -256l668 592q23 19 41 -2l78 -100q17 -22 -2 -41l-672 -596h256q13 0 21 -8.5t6 -22.5l-23 -127q-2 -11 -10.5 -19t-20.5 -8h-468q-20 0 -35 19l-39 51q-13 16 -10 37z" />
<glyph unicode="&#x25fc;" horiz-adv-x="1064" d="M0 0v1065h1065v-1065h-1065z" />
<glyph horiz-adv-x="485" d="M35 31l178 1005q2 11 10.5 19t20.5 8h178q14 0 22 -10t5 -23l-181 -1003q-2 -12 -10 -19.5t-20 -7.5h-177q-15 0 -22 8.5t-4 22.5zM258 1343q10 52 50 84.5t93 32.5q59 0 93 -40.5t24 -100.5q-11 -53 -50 -86t-93 -33q-59 0 -93 41.5t-24 101.5z" />
<glyph horiz-adv-x="1091" d="M68 412l49 258q26 137 110.5 233.5t195 140t236.5 43.5q167 0 369 -79q24 -9 21 -35l-168 -946q-1 -12 -10 -19.5t-21 -7.5h-137q-29 0 -29 29v80q-137 -134 -303 -134q-167 0 -257 124.5t-56 312.5zM303 385q-15 -94 19 -147.5t118 -53.5q62 0 134 36t122 95l95 533 q-91 31 -160 31q-102 0 -179.5 -60t-97.5 -160z" />
<glyph horiz-adv-x="1091" d="M68 412l49 258q26 137 110.5 233.5t195 140t236.5 43.5q167 0 369 -79q24 -9 21 -35l-168 -946q-1 -12 -10 -19.5t-21 -7.5h-137q-29 0 -29 29v80q-137 -134 -303 -134q-167 0 -257 124.5t-56 312.5zM303 385q-15 -94 19 -147.5t118 -53.5q62 0 134 36t122 95l95 533 q-91 31 -160 31q-102 0 -179.5 -60t-97.5 -160zM520 1221q-4 11 8 24l217 273q12 18 37 18h176q19 0 24.5 -11t-7.5 -24l-264 -276q-12 -15 -35 -15h-133q-19 0 -23 11z" />
<glyph horiz-adv-x="1091" d="M68 412l49 258q26 137 110.5 233.5t195 140t236.5 43.5q167 0 369 -79q24 -9 21 -35l-168 -946q-1 -12 -10 -19.5t-21 -7.5h-137q-29 0 -29 29v80q-137 -134 -303 -134q-167 0 -257 124.5t-56 312.5zM303 385q-15 -94 19 -147.5t118 -53.5q62 0 134 36t122 95l95 533 q-91 31 -160 31q-102 0 -179.5 -60t-97.5 -160zM351 1221q-5 11 7 24l279 275q16 16 37 16h135q22 0 33 -20l172 -271q8 -15 3 -25t-22 -10h-145q-24 0 -33 19l-94 157l-156 -161q-15 -15 -37 -15h-155q-19 0 -24 11z" />
<glyph horiz-adv-x="1091" d="M68 412l49 258q26 137 110.5 233.5t195 140t236.5 43.5q167 0 369 -79q24 -9 21 -35l-168 -946q-1 -12 -10 -19.5t-21 -7.5h-137q-29 0 -29 29v80q-137 -134 -303 -134q-167 0 -257 124.5t-56 312.5zM303 385q-15 -94 19 -147.5t118 -53.5q62 0 134 36t122 95l95 533 q-91 31 -160 31q-102 0 -179.5 -60t-97.5 -160zM377 1341q9 53 48 84t91 31q59 0 88 -37t17 -100q-10 -51 -49.5 -83t-90.5 -32q-59 0 -87.5 36.5t-16.5 100.5zM793 1341q9 53 48 84t91 31q58 0 87 -37.5t17 -99.5q-10 -51 -49 -83t-90 -32q-59 0 -87.5 36.5t-16.5 100.5z " />
<glyph horiz-adv-x="1091" d="M68 412l49 258q26 137 110.5 233.5t195 140t236.5 43.5q167 0 369 -79q24 -9 21 -35l-168 -946q-1 -12 -10 -19.5t-21 -7.5h-137q-29 0 -29 29v80q-137 -134 -303 -134q-167 0 -257 124.5t-56 312.5zM303 385q-15 -94 19 -147.5t118 -53.5q62 0 134 36t122 95l95 533 q-91 31 -160 31q-102 0 -179.5 -60t-97.5 -160zM438 1525q6 11 23 11h166q23 0 32 -23l117 -270q7 -15 1 -24t-21 -9h-125q-23 0 -33 19l-158 272q-8 13 -2 24z" />
<glyph horiz-adv-x="1091" d="M68 412l49 258q26 137 110.5 233.5t195 140t236.5 43.5q167 0 369 -79q24 -9 21 -35l-168 -946q-1 -12 -10 -19.5t-21 -7.5h-137q-29 0 -29 29v80q-137 -134 -303 -134q-167 0 -257 124.5t-56 312.5zM303 385q-15 -94 19 -147.5t118 -53.5q62 0 134 36t122 95l95 533 q-91 31 -160 31q-102 0 -179.5 -60t-97.5 -160zM469 1389q19 109 92 169t184 60q89 0 147.5 -69t41.5 -160q-20 -108 -92.5 -168t-177.5 -60q-92 0 -152 68.5t-43 159.5zM602 1389q-7 -44 17 -72.5t67 -28.5q42 0 72.5 28t38.5 73q9 45 -12 72.5t-64 27.5q-45 0 -77.5 -27.5 t-41.5 -72.5z" />
<glyph horiz-adv-x="1091" d="M68 412l49 258q26 137 110.5 233.5t195 140t236.5 43.5q167 0 369 -79q24 -9 21 -35l-168 -946q-1 -12 -10 -19.5t-21 -7.5h-137q-29 0 -29 29v80q-137 -134 -303 -134q-167 0 -257 124.5t-56 312.5zM303 385q-15 -94 19 -147.5t118 -53.5q62 0 134 36t122 95l95 533 q-91 31 -160 31q-102 0 -179.5 -60t-97.5 -160zM352 1307q38 61 93.5 105t123.5 44q50 0 142 -41q84 -37 112 -37q41 0 78 47q18 21 41 9l80 -54q24 -15 14 -37q-38 -61 -94 -106t-121 -45q-58 0 -145 41q-80 37 -111 37q-45 0 -82 -47q-19 -23 -41 -9l-80 54q-26 13 -10 39 z" />
<glyph horiz-adv-x="1691" d="M66 412l49 258q25 137 109 233.5t195 140t238 43.5q134 0 287 -90q139 90 311 90q96 0 172.5 -26t130.5 -76.5t74.5 -133t1.5 -187.5l-37 -207q-6 -27 -32 -27h-615l-16 -102q-3 -73 44 -110.5t136 -37.5q154 0 301 103q28 17 41 -9l72 -120q12 -24 -8 -41 q-172 -138 -437 -138q-67 0 -134 35t-89 94l-20 -77q-3 -27 -31 -27h-102q-12 0 -20.5 8t-8.5 21l2 73q-137 -127 -301 -127q-167 0 -257.5 124.5t-55.5 312.5zM301 385q-18 -93 16.5 -147t118.5 -54q63 0 134.5 36t121.5 95l96 533q-91 31 -161 31q-102 0 -179.5 -60.5 t-95.5 -159.5zM983 614h414l12 70q19 99 -30 149t-146 50q-143 0 -215 -76z" />
<glyph d="M114 301.5q-14 84.5 5 192.5l88 505q23 128 80 225.5t136 153.5t166.5 83.5t182.5 27.5t176.5 -30.5t143 -90.5t87 -160t3.5 -227l-90 -508q-18 -105 -59.5 -190.5t-96.5 -142t-123.5 -94.5t-139.5 -54.5t-147 -16.5q-75 0 -142 19.5t-124.5 59.5t-94.5 101.5t-51 146z M349.5 364q8.5 -45 24.5 -74t46 -46t60.5 -24t66.5 -7q39 0 76 8t75 27.5t68 48.5t53 75.5t33 104.5l92 514q13 62 5 107t-24.5 74.5t-47 47t-61.5 24.5t-68 7q-49 0 -94.5 -13.5t-89 -42.5t-75.5 -83.5t-45 -128.5l-90 -512q-13 -62 -4.5 -107z" />
<glyph d="M102 31l31 159q3 27 31 27h301l170 952l-232 -147q-10 -8 -22 -4.5t-16 16.5l-60 137q-12 27 10 39l385 244q15 10 35 10h158q14 0 21 -8.5t6 -21.5l-215 -1217h309q13 0 20 -8.5t4 -22.5l-28 -159q-3 -27 -31 -27h-852q-15 0 -21.5 8.5t-3.5 22.5z" />
<glyph d="M45 31l23 133q3 19 20 33l471 434q165 147 250 248.5t104 201.5q13 77 -23.5 126.5t-135.5 49.5t-182 -46t-164 -121q-25 -22 -41 6l-80 143q-13 22 6 41q222 209 477 209q198 0 306.5 -114t74.5 -314q-23 -130 -106.5 -247.5t-253.5 -289.5q-163 -150 -345 -299h549 q15 0 21.5 -8t3.5 -22l-29 -168q-2 -12 -10 -19.5t-20 -7.5h-889q-13 0 -21 8.5t-6 22.5z" />
<glyph d="M66 184q-17 23 4 41l112 119q21 21 41 -2q65 -67 129 -99t168 -32q118 0 203 71t108 199q18 107 -43.5 168.5t-175.5 61.5q-54 0 -131 -17q-27 -6 -37 21l-30 100q-6 21 10 37l227 225q33 33 94.5 85.5t96.5 78.5h-512q-14 0 -21 9t-4 22l29 166q3 26 31 26h806 q14 0 21 -8.5t4 -21.5l-20 -125q-2 -17 -17 -35l-426 -395h6q75 2 142 -28t114.5 -84t68.5 -136t5 -178q-39 -220 -195.5 -348t-367.5 -128q-107 0 -193 29.5t-139.5 71.5t-107.5 106z" />
<glyph d="M61 328l23 139q5 16 14 35l650 944q15 18 36 18h207q17 0 22 -10t-5 -24l-623 -908h358l60 287q4 25 31 25h172q13 0 20 -8.5t4 -22.5l-49 -281h119q31 0 24 -30l-28 -168q-1 -12 -10 -19.5t-21 -7.5h-123l-47 -270q-1 -12 -10 -19.5t-21 -7.5h-180q-15 0 -21.5 8.5 t-3.5 22.5l46 266h-617q-14 0 -21.5 9t-5.5 22z" />
<glyph d="M94 180q-13 21 4 41l113 121q9 10 20 9t19 -11q123 -129 299 -129q125 0 205 77.5t104 211.5q22 123 -24.5 181t-169.5 58q-158 0 -277 -94q-16 -14 -39 -6l-129 51q-26 10 -20 35l149 713q6 26 33 26h780q14 0 21 -8.5t6 -21.5l-33 -174q-3 -27 -31 -27h-583l-72 -328 q107 58 246 58q211 0 314.5 -131.5t64.5 -358.5q-39 -229 -190.5 -363.5t-379.5 -134.5q-268 0 -430 205z" />
<glyph d="M133 469l94 530q28 158 112.5 270.5t199.5 166t249 53.5q114 0 217 -39t179 -109q20 -20 2 -41l-115 -135q-15 -21 -41 -2q-51 46 -120.5 71.5t-141.5 25.5q-111 0 -196 -69.5t-107 -195.5l-23 -139q122 86 281 86q213 0 320 -130.5t69 -346.5q-38 -221 -196 -355.5 t-375 -134.5q-140 0 -242.5 66.5t-146 179.5t-19.5 248zM371 455q-20 -115 33.5 -179.5t164.5 -64.5q119 0 202 74t106 202q21 116 -27.5 175t-173.5 59q-110 0 -195.5 -63.5t-107.5 -184.5z" />
<glyph d="M161.5 11q-5.5 11 2.5 24l758 1202h-631q-13 0 -21 8.5t-6 22.5l31 170q3 26 31 26h903q31 0 24 -30l-20 -121q-3 -21 -10 -33l-791 -1260q-14 -20 -35 -20h-213q-17 0 -22.5 11z" />
<glyph d="M88 449q18 104 84.5 192.5t171.5 134.5q-144 115 -108 322q30 166 179.5 278.5t356.5 112.5q135 0 238 -58.5t149.5 -155.5t26.5 -208q-17 -98 -72 -176t-143 -127q81 -49 118.5 -144.5t18.5 -199.5q-39 -214 -194.5 -329.5t-387.5 -115.5q-228 0 -353 129t-85 345z M322 422q-17 -100 43 -158.5t180 -58.5q128 0 217.5 66t109.5 173q15 94 -47.5 148.5t-187.5 54.5t-210.5 -61t-104.5 -164zM465 1061q-15 -94 36.5 -145.5t160.5 -51.5q119 0 195.5 57t90.5 150q15 92 -37 142.5t-170 50.5q-109 0 -184 -55t-92 -148z" />
<glyph d="M104 164q-17 20 0 41l113 129q19 20 41 -2q120 -123 274 -123q112 0 198.5 68.5t107.5 191.5l22 139q-62 -44 -127 -65t-153 -21q-207 0 -316 138t-71 352q38 215 195 346t370 131q227 0 337.5 -143t71.5 -363l-92 -526q-40 -235 -192 -358.5t-377 -123.5 q-111 0 -217.5 50t-184.5 139zM430 995q-19 -124 25.5 -187t162.5 -63q117 0 204 64t108 184l2 13q23 125 -31.5 189.5t-169.5 64.5q-117 0 -198 -71.5t-103 -193.5z" />
<glyph horiz-adv-x="702" d="M23 283l47 258q25 130 117.5 197t213.5 67q113 0 184.5 -83t47.5 -206l-47 -258q-25 -133 -115 -200.5t-219 -67.5q-114 0 -184 80.5t-45 212.5zM182 264q-14 -63 15.5 -91t81.5 -28q51 0 91.5 30t51.5 91l47 264q13 59 -12.5 89t-79.5 30q-55 0 -95 -29t-51 -90z" />
<glyph horiz-adv-x="448" d="M45 635q-13 26 10 39l185 110q16 11 36 11h95q29 0 26 -31l-133 -737q-7 -27 -33 -27h-102q-30 0 -27 31l101 561l-78 -49q-26 -16 -39 10z" />
<glyph horiz-adv-x="647" d="M-45 31l16 92q2 16 23 33l260 215q156 130 168 202q17 78 -74 78q-77 0 -166 -61q-29 -25 -41 6l-43 80q-11 25 8 37q123 92 267 92q115 0 172 -74.5t39 -173.5q-11 -69 -62 -133.5t-168 -171.5q-32 -29 -129 -98h271q15 0 22 -8.5t4 -22.5l-16 -96q-7 -27 -33 -27h-489 q-15 0 -23 8.5t-6 22.5z" />
<glyph horiz-adv-x="655" d="M-33 106q-12 20 4 39l68 68q21 21 43 -2q64 -64 154 -64q59 0 101 32.5t54 92.5q9 52 -15.5 80.5t-76.5 28.5q-36 0 -63 -6q-31 -6 -37 20l-11 43q-6 22 11 39l80 78q67 61 108 90h-258q-31 0 -25 31l17 92q2 12 11 19.5t22 7.5h444q34 0 27 -31l-9 -59q-4 -15 -22 -33 l-215 -189q25 0 43 -4q68 -14 107 -76.5t22 -150.5q-23 -124 -112 -193t-216 -69q-164 0 -256 116z" />
<glyph horiz-adv-x="673" d="M-27 180l15 82q3 16 16 33l332 481q14 19 39 19h117q17 0 22 -10.5t-6 -24.5l-313 -459h165l29 137q3 27 31 27h102q13 0 21 -8.5t6 -22.5l-25 -133h43q15 0 21.5 -8.5t3.5 -22.5l-19 -94q-3 -26 -32 -26h-45l-23 -123q-3 -27 -31 -27h-104q-30 0 -27 31l21 119h-330 q-33 0 -29 30z" />
<glyph horiz-adv-x="677" d="M-12 96q-10 20 8 41l65 68q19 19 41 -4q56 -56 164 -56q58 0 101.5 33t52.5 90q10 56 -16.5 84.5t-81.5 28.5q-78 0 -150 -47q-25 -14 -41 -6l-68 28q-12 5 -17 15t-1 22l84 377q9 25 35 25h444q15 0 21.5 -8.5t3.5 -22.5l-17 -94q-3 -27 -32 -27h-330l-37 -154 q53 31 152 31q106 0 169 -76t42 -192q-21 -128 -111 -195t-227 -67q-162 0 -254 106z" />
<glyph horiz-adv-x="692" d="M23 272l49 275q23 120 119 189t206 69q142 0 238 -96q19 -16 2 -39l-68 -72q-21 -21 -43 -2q-51 51 -143 51q-57 0 -100.5 -33.5t-53.5 -87.5l-12 -63q57 45 158 45q107 0 173.5 -68.5t45.5 -183.5q-23 -126 -109.5 -196t-218.5 -70q-121 0 -192.5 85t-50.5 197zM182 258 q-9 -51 18.5 -78.5t86.5 -27.5q58 0 97.5 29t49.5 85q9 47 -17 73t-83 26q-63 0 -104 -28t-48 -79z" />
<glyph horiz-adv-x="620" d="M8 11q-6 11 4 24l387 606h-313q-15 0 -21.5 8.5t-3.5 22.5l17 96q2 12 11 19.5t22 7.5h489q15 0 21.5 -8.5t3.5 -22.5l-13 -74q-3 -21 -10 -35l-412 -635q-11 -20 -34 -20h-125q-17 0 -23 11z" />
<glyph horiz-adv-x="696" d="M6 250q25 125 148 176q-37 26 -54 69.5t-6 98.5q19 97 100.5 154t202.5 57q120 0 186 -67.5t48 -164.5q-23 -109 -125 -157q49 -24 69.5 -74t8.5 -111q-21 -115 -110.5 -178t-217.5 -63q-126 0 -199 74.5t-51 185.5zM164 240q-9 -47 18.5 -74t89.5 -27t102.5 29.5 t51.5 81.5q6 41 -21.5 65.5t-87.5 24.5q-63 0 -102.5 -27t-50.5 -73zM246 575q-8 -44 15.5 -70t78.5 -26q56 0 93 27.5t46 71.5q5 36 -21 57.5t-79 21.5q-54 0 -90.5 -23t-42.5 -59z" />
<glyph horiz-adv-x="686" d="M10 86q-19 17 0 39l66 74q17 17 41 2q57 -54 137 -54q60 0 102.5 33.5t53.5 87.5l14 68q-57 -49 -156 -49q-105 0 -170.5 72t-48.5 173q22 130 108.5 201.5t217.5 71.5q127 0 195.5 -80.5t45.5 -200.5l-49 -276q-22 -120 -118 -189t-207 -69q-136 0 -232 96zM213 532 q-8 -50 14.5 -73t79.5 -23q62 0 102.5 27.5t47.5 77.5q9 52 -18.5 79t-84.5 27q-56 0 -94 -29t-47 -86z" />
<glyph horiz-adv-x="702" d="M141 952l47 258q25 130 118 197.5t214 67.5q113 0 184.5 -83t47.5 -206l-47 -258q-25 -133 -115 -201t-219 -68q-114 0 -184.5 80.5t-45.5 212.5zM301 934q-14 -63 15.5 -91t80.5 -28t92 30t52 91l47 264q13 59 -12.5 89t-79.5 30q-55 0 -95 -29t-51 -90z" />
<glyph horiz-adv-x="448" d="M162 1305q-13 25 10 38l184 111q15 10 37 10h94q30 0 27 -30l-133 -738q-7 -26 -33 -26h-102q-30 0 -27 30l100 562l-77 -50q-26 -16 -39 11z" />
<glyph horiz-adv-x="647" d="M74 700l16 93q2 15 23 32l260 215q156 130 168 203q17 78 -74 78q-77 0 -166 -61q-29 -25 -41 6l-43 80q-10 24 8 36q125 93 267 93q115 0 171.5 -74.5t38.5 -173.5q-11 -69 -62 -133.5t-167 -171.5q-37 -34 -129 -99h270q15 0 22.5 -8.5t4.5 -21.5l-16 -97 q-7 -26 -33 -26h-490q-31 0 -28 30z" />
<glyph horiz-adv-x="655" d="M86 774q-10 21 4 41l68 68q19 19 43 -2q62 -66 153 -66q59 0 101.5 33.5t54.5 93.5q9 52 -15.5 80.5t-76.5 28.5q-32 0 -64 -7q-31 -6 -37 21l-10 43q-7 23 10 37l80 80q64 58 109 90h-258q-31 0 -25 31l17 92q3 26 32 26h445q33 0 26 -30l-8 -60q-4 -15 -22 -33 l-215 -188q25 0 43 -4q68 -14 107 -76.5t22 -152.5q-23 -124 -112 -192.5t-216 -68.5q-164 0 -256 115z" />
<glyph horiz-adv-x="673" d="M92 850l12 82q7 21 19 33l332 481q10 18 37 18h116q17 0 22.5 -10t-3.5 -24l-316 -459h168l29 137q3 27 31 27h100q30 0 27 -31l-23 -133h43q13 0 19.5 -8.5t3.5 -22.5l-17 -94q-6 -27 -33 -27h-45l-22 -123q-6 -26 -33 -26h-104q-30 0 -27 30l23 119h-332q-14 0 -21.5 9 t-5.5 22z" />
<glyph horiz-adv-x="677" d="M106 766q-10 20 9 41l65 67q18 18 41 -4q55 -55 164 -55q58 0 101.5 33t52.5 90q10 56 -16.5 84.5t-82.5 28.5q-77 0 -149 -47q-26 -15 -41 -7l-68 29q-12 5 -17 15t-1 22l84 377q9 24 35 24h444q15 0 21.5 -8t3.5 -22l-17 -95q-3 -26 -33 -26h-329l-37 -154 q53 31 151 31q106 0 169 -76t42 -192q-21 -128 -111 -195.5t-227 -67.5q-162 0 -254 107z" />
<glyph horiz-adv-x="692" d="M139 942l49 275q22 120 119 189t209 69q132 0 236 -97q20 -18 2 -39l-68 -71q-20 -20 -41 -2q-54 51 -143 51q-58 0 -101.5 -34t-52.5 -87l-14 -63q60 45 160 45q107 0 172.5 -68.5t44.5 -183.5q-23 -126 -109.5 -196.5t-218.5 -70.5q-121 0 -193 85.5t-51 197.5z M299 928q-8 -51 19 -79t85 -28q59 0 98.5 29t49.5 86q9 47 -17 72.5t-83 25.5q-63 0 -103 -27t-49 -79z" />
<glyph horiz-adv-x="620" d="M124.5 681q-5.5 11 4.5 24l387 606h-313q-15 0 -21.5 8t-3.5 22l17 97q3 26 32 26h490q31 0 24 -30l-12 -74q-3 -21 -10 -35l-412 -635q-11 -20 -35 -20h-125q-17 0 -22.5 11z" />
<glyph horiz-adv-x="696" d="M125 920q25 126 147 176q-36 26 -52.5 69.5t-6.5 98.5q17 97 99 154t204 57q120 0 187 -68t47 -164q-23 -110 -125 -158q48 -24 68 -73.5t9 -110.5q-21 -116 -110 -179t-217 -63q-126 0 -199.5 75t-50.5 186zM283 909q-9 -47 18.5 -73.5t89.5 -26.5q64 0 105 30t49 81 q6 41 -21 65.5t-88 24.5q-63 0 -102.5 -27.5t-50.5 -73.5zM367 1245q-9 -44 14 -70t80 -26q55 0 92 27.5t45 70.5q6 36 -20 58t-80 22t-89.5 -23t-41.5 -59z" />
<glyph horiz-adv-x="686" d="M129 756q-19 17 0 39l66 73q19 19 41 2q56 -53 137 -53q59 0 101 33t54 88l15 68q-58 -50 -156 -50q-105 0 -170.5 72.5t-48.5 173.5q23 130 109 201.5t217 71.5q127 0 195 -80t46 -201l-49 -276q-22 -120 -118.5 -189.5t-207.5 -69.5t-231 97zM332 1202q-8 -50 14.5 -73 t79.5 -23q62 0 101 26.5t48 77.5q9 52 -18.5 79.5t-83.5 27.5t-94 -29t-47 -86z" />
<glyph d="M213 434l45 258q29 162 140.5 265t271.5 124l28 156q7 27 33 27h103q13 0 20.5 -8.5t5.5 -22.5l-29 -152q118 -13 236 -96q22 -17 4 -41l-92 -119q-18 -18 -41 -4q-92 60 -199 60q-100 0 -163.5 -55t-81.5 -150l-45 -258q-22 -113 23 -174.5t136 -61.5q125 0 244 78 q25 16 41 -10l68 -133q13 -24 -11 -39q-149 -93 -311 -101l-29 -157q-2 -12 -10 -19.5t-20 -7.5h-103q-15 0 -22 8.5t-4 22.5l28 162q-153 31 -225.5 149.5t-40.5 298.5z" />
<glyph d="M59 279q-16 20 4 40l130 113q-53 125 -27 289q27 146 119 268l-82 98q-18 21 4 43l112 101q25 21 41 -2l84 -103q127 74 277 74q156 0 262 -82l129 113q9 10 20 9.5t19 -11.5l82 -96q16 -23 -4 -43l-131 -115q50 -122 24 -281q-28 -152 -121 -270l89 -102q18 -20 -5 -43 l-114 -101q-9 -9 -20.5 -8.5t-18.5 10.5l-88 109q-132 -74 -275 -74q-149 0 -260 76l-129 -113q-9 -9 -20 -8t-19 12zM360 707q-23 -138 42 -219.5t190 -81.5q124 0 220 86.5t116 214.5q22 139 -43.5 223t-190.5 84q-124 0 -218 -87.5t-116 -219.5z" />
<glyph d="M51 213l111 127q17 21 39 2q186 -143 362 -143q72 0 136 22.5t109.5 69t55.5 108.5q7 42 -7 77.5t-38 59t-68 45t-77.5 33.5t-85.5 27q-32 10 -61.5 21.5t-64 27.5t-63 34.5t-59 42.5t-52.5 51.5t-42.5 61.5t-29 71.5t-12.5 83t7 95.5q16 88 59.5 155t108 108.5 t140.5 64.5t167 29l29 145q3 27 30 27h140q14 0 20.5 -9t3.5 -22l-26 -149q168 -26 325 -150q10 -7 10.5 -18.5t-8.5 -20.5l-114 -133q-17 -17 -41 -2q-152 111 -332 111q-69 0 -124 -15t-97 -53.5t-53 -99.5q-7 -23 -3.5 -44t6.5 -37.5t16 -32.5t24 -27.5t30.5 -23.5 t36.5 -20.5t41.5 -18t45.5 -16t48 -14.5q475 -138 410 -502q-17 -99 -64 -173t-115.5 -117t-142.5 -65.5t-161 -29.5l-29 -157q-3 -27 -31 -27h-139q-30 0 -27 31l29 158q-103 18 -190.5 64t-180.5 124q-22 19 -2 43z" />
<glyph d="M53 526l21 111q3 27 30 27h132l20 116h-127q-15 0 -22.5 9.5t-4.5 21.5l19 111q7 26 33 26h127l10 43q21 125 77 222t134.5 156.5t171 89.5t194.5 30q114 0 218 -37t182 -102q21 -18 4 -41l-113 -129q-18 -21 -39 -9q-124 99 -274 99q-128 0 -213.5 -81.5t-110.5 -223.5 v-17h369q30 0 27 -30l-19 -111q-3 -27 -31 -27h-374l-21 -116h369q29 0 26 -31l-20 -111q-3 -26 -31 -26h-371q-17 -135 44 -217t186 -82q77 0 167.5 31t160.5 85q25 19 40 -8l76 -145q11 -24 -10 -39q-221 -146 -483 -146q-100 0 -183 34t-141 98.5t-84 164.5t-10 224h-129 q-30 0 -27 30z" />
<glyph d="M76 31l22 131q2 21 29 28q136 40 168 236l39 221h-117q-31 0 -24 31l24 147q7 25 31 25h121l41 233q32 187 156 296.5t302 109.5q208 0 332 -121q18 -18 0 -41l-90 -108q-19 -23 -43 -5q-83 74 -215 74q-87 0 -145.5 -59.5t-75.5 -161.5l-39 -217h309q14 0 21 -9t4 -22 l-27 -145q-3 -27 -31 -27h-309l-41 -235q-27 -153 -127 -209h602q15 0 22.5 -9.5t4.5 -21.5l-27 -145q-3 -27 -30 -27h-861q-13 0 -20.5 8.5t-5.5 22.5z" />
<glyph d="M190 240l23 122q3 27 31 27h237l21 115h-234q-14 0 -21 9.5t-5 23.5l22 122q3 27 31 27h162l-234 746q-4 15 3 23.5t22 8.5h184q28 0 33 -24l186 -695h2l404 699q9 20 33 20h204q17 0 23.5 -10t-2.5 -24l-473 -744h137q14 0 21.5 -9t5.5 -22l-23 -125q-3 -26 -31 -26 h-215l-20 -115h213q13 0 20.5 -8.5t5.5 -22.5l-22 -122q-1 -12 -10 -19.5t-21 -7.5h-219l-33 -182q-3 -27 -30 -27h-177q-29 0 -26 31l33 178h-234q-30 0 -27 31z" />
</font>
</defs>
</svg>
